STARTFONT 2.1
FONT -FontForge-Good Times Rg-Book-R-Normal--78-750-75-75-P-579-ISO10646-1
SIZE 75 75 75
FONTBOUNDINGBOX 156 93 -22 -16
COMMENT "Generated by fontforge, http://fontforge.sourceforge.net"
COMMENT "(c) 1998-2012 Typodermic Fonts Inc. See attached license agreement. If agreement is missing visit typodermicfonts.com for more info. Languages by Chikako Larabie"
STARTPROPERTIES 39
FOUNDRY "FontForge"
FAMILY_NAME "Good Times Rg"
WEIGHT_NAME "Book"
SLANT "R"
SETWIDTH_NAME "Normal"
ADD_STYLE_NAME ""
PIXEL_SIZE 78
POINT_SIZE 750
RESOLUTION_X 75
RESOLUTION_Y 75
SPACING "P"
AVERAGE_WIDTH 579
CHARSET_REGISTRY "ISO10646"
CHARSET_ENCODING "1"
FONTNAME_REGISTRY ""
CHARSET_COLLECTIONS "ISO8859-2 ISO8859-9 ISO8859-4 ISO10646-1"
FONT_NAME "GoodTimesRg-Regular"
FACE_NAME "GoodTimesRg-Regular"
COPYRIGHT "(c) 1998-2012 Typodermic Fonts Inc. See attached license agreement. If agreement is missing visit typodermicfonts.com for more info. Languages by Chikako Larabie"
FONT_VERSION "4.001"
FONT_ASCENT 62
FONT_DESCENT 16
UNDERLINE_POSITION -11
UNDERLINE_THICKNESS 2
X_HEIGHT 56
CAP_HEIGHT 56
RAW_ASCENT 799
RAW_DESCENT 201
NORM_SPACE 23
RELATIVE_WEIGHT 40
RELATIVE_SETWIDTH 50
SUPERSCRIPT_X 0
SUPERSCRIPT_Y 23
SUPERSCRIPT_SIZE 23
SUBSCRIPT_X 0
SUBSCRIPT_Y 0
SUBSCRIPT_SIZE 23
AVG_LOWERCASE_WIDTH 664
AVG_UPPERCASE_WIDTH 662
ENDPROPERTIES
CHARS 372
STARTCHAR space
ENCODING 32
SWIDTH 294 0
DWIDTH 23 0
BBX 1 1 0 0
BITMAP
00
ENDCHAR
STARTCHAR exclam
ENCODING 33
SWIDTH 298 0
DWIDTH 23 0
BBX 11 57 6 0
BITMAP
7FC0
7FC0
7FC0
7FC0
7FC0
7FC0
7FC0
7FC0
7FC0
7FC0
7FC0
7FC0
7FC0
7FC0
7FC0
7FC0
7FC0
7FC0
7FC0
7FC0
7FC0
7FC0
7FC0
7FC0
7FC0
7FC0
7FC0
7FC0
7FC0
7FC0
7FC0
7FC0
7FC0
7FC0
7FC0
7FC0
7FC0
7FC0
7FC0
0000
0000
0000
0000
0000
0000
0000
1F00
3FC0
7FC0
7FE0
7FE0
FFE0
7FE0
7FE0
7FC0
3FC0
1F00
ENDCHAR
STARTCHAR quotedbl
ENCODING 34
SWIDTH 452 0
DWIDTH 35 0
BBX 25 20 5 37
BITMAP
FFC1FF80
FFC1FF80
7FC1FF80
7FC1FF80
7FC1FF80
7FC1FF00
7FC1FF00
7FC0FF00
7FC0FF00
7FC0FF00
7F80FF00
7F80FF00
7F80FF00
3F80FF00
3F80FF00
3F80FF00
3F80FE00
3F807E00
3F807E00
3F807E00
ENDCHAR
STARTCHAR numbersign
ENCODING 35
SWIDTH 697 0
DWIDTH 54 0
BBX 48 57 3 0
BITMAP
00000FE003FC
00001FE003F8
00001FC003F8
00001FC007F8
00001FC007F0
00003F8007F0
00003F8007F0
00003F800FE0
00007F000FE0
00007F000FE0
00007F001FC0
0000FE001FC0
0000FE001FC0
0000FE003F80
03FFFFFFFFFF
03FFFFFFFFFF
03FFFFFFFFFF
03FFFFFFFFFF
03FFFFFFFFFF
03FFFFFFFFFF
03FFFFFFFFFF
0007F000FE00
0007F000FE00
0007F001FC00
0007F001FC00
000FE001FC00
000FE001FC00
000FE003F800
001FC003F800
001FC003F800
001FC007F000
003FC007F000
003F8007F000
003F8007F000
003F800FE000
FFFFFFFFFFC0
FFFFFFFFFFC0
FFFFFFFFFFC0
FFFFFFFFFFC0
FFFFFFFFFFC0
FFFFFFFFFFC0
FFFFFFFFFFC0
01FC003F8000
01FC003F8000
01FC007F0000
03F8007F0000
03F8007F0000
03F800FE0000
07F000FE0000
07F000FE0000
07F001FE0000
07F001FC0000
0FE001FC0000
0FE001FC0000
0FE003F80000
1FC003F80000
1FC007F80000
ENDCHAR
STARTCHAR dollar
ENCODING 36
SWIDTH 744 0
DWIDTH 58 0
BBX 49 57 4 0
BITMAP
000001F0000000
000001F0000000
000001F0000000
000001F0000000
000001F0000000
000001F0000000
003FFFFFFFFE00
01FFFFFFFFFE00
07FFFFFFFFFE00
0FFFFFFFFFFE00
1FFFFFFFFFFE00
3FFFFFFFFFFE00
3FFFFFFFFFFE00
7FFFFFFFFFFE00
7FF001F0000000
7FC001F0000000
7F8001F0000000
FF8001F0000000
FF8001F0000000
FF8001F0000000
7F8001F0000000
7F8001F0000000
7F8001F0000000
7FC001F0000000
3FF001F0000000
3FFFFFFFFF0000
1FFFFFFFFFE000
1FFFFFFFFFF800
0FFFFFFFFFFC00
03FFFFFFFFFE00
01FFFFFFFFFF00
003FFFFFFFFF00
000001F001FF80
000001F000FF80
000001F0007F80
000001F0003F80
000001F0003F80
000001F0003F80
000001F0003F80
000001F0003F80
000001F0007F80
000001F000FF80
000001F001FF80
7FFFFFFFFFFF00
7FFFFFFFFFFF00
7FFFFFFFFFFE00
7FFFFFFFFFFE00
7FFFFFFFFFFC00
7FFFFFFFFFF800
7FFFFFFFFFE000
7FFFFFFFFF0000
000001F0000000
000001F0000000
000001F0000000
000001F0000000
000001F0000000
000001F0000000
ENDCHAR
STARTCHAR percent
ENCODING 37
SWIDTH 965 0
DWIDTH 75 0
BBX 69 66 3 -5
BITMAP
00000000000000FC00
00000000000001FC00
00000000000003F800
001FE000000007F000
00FFFC00000007E000
03FFFF0000000FE000
07FFFF8000001FC000
0FFFFFC000003F8000
1FE03FE000003F0000
3F8007E000007E0000
3F0003F00000FE0000
7E0001F80001FC0000
7C0001F80003F80000
7C0000F80003F00000
FC0000F80007F00000
F800007C000FE00000
F800007C001FC00000
F800007C003F800000
F800007C003F000000
F80000FC007F000000
7C0000F800FE000000
7C0000F801FC000000
7C0001F801F8000000
3E0001F003F8000000
3F0003F007F0000000
1F8007E00FE0000000
1FE01FE01FC0000000
0FFFFFC01F80000000
07FFFF803F80000000
01FFFE007F00000000
00FFFC00FE00000000
001FE000FC00000000
00000001F800000000
00000003F8003FC000
00000007F001FFF800
0000000FE003FFFE00
0000000FC00FFFFF00
0000001FC01FFFFF80
0000003F803FE03FC0
0000007F003F000FE0
000000FE007E0007E0
000000FC007C0003F0
000001FC00FC0001F0
000003F800F80001F8
000007F000F80000F8
000007E000F80000F8
00000FE000F80000F8
00001FC000F80000F8
00003F8000F80000F8
00007F0000F80000F8
00007E0000F80000F8
0000FE0000F80001F0
0001FC00007C0001F0
0003F800007C0003F0
0003F000007E0007E0
0007F000003F000FE0
000FE000001FE03FC0
001FC000000FFFFF80
003F80000007FFFF00
003F00000003FFFE00
007F00000000FFF800
00FE000000003FC000
01FC00000000000000
01F800000000000000
03F800000000000000
07F000000000000000
ENDCHAR
STARTCHAR ampersand
ENCODING 38
SWIDTH 759 0
DWIDTH 59 0
BBX 53 57 4 0
BITMAP
0003FFFC000000
003FFFFC000000
00FFFFFC000000
03FFFFFC000000
07FFFFFC000000
0FFFFFFC000000
1FFFFFFC000000
1FFFFFFC000000
3FFFFFFC000000
3FFFFFFC000000
7FFE0000000000
7FF80000000000
7FF00000000000
7FF00000000000
7FE00000000000
7FE00000000000
7FE00000000000
7FE00000000000
7FE00000000000
7FE00000000000
3FF00000000000
3FF00000000000
1FF80000000000
0FFE0000000000
0FFFFFFFFFFF80
03FFFFFFFFFF80
01FFFFFFFFFF80
01FFFFFFFFFF80
03FFFFFFFFFF80
0FFFFFFFFFFF80
1FFFFFFFFFFF80
3FFFFFFFFFFF80
3FFE00007FE000
7FF800007FE000
7FE000007FE000
FFE000007FE000
FFC000007FE000
FFC000007FE000
FFC000007FE000
FFC000007FE000
FFC000007FE000
FFC000007FE000
FFC000007FE000
FFE000007FE000
FFF000007FE000
7FF800007FE000
7FFE00007FE000
7FFFFFFFFFFFF8
3FFFFFFFFFFFF8
3FFFFFFFFFFFF8
1FFFFFFFFFFFF8
0FFFFFFFFFFFF8
07FFFFFFFFFFF8
03FFFFFFFFFFF8
00FFFFFFFFFFF8
003FFFFFFFFFF8
0007FFFFFFFFF8
ENDCHAR
STARTCHAR quotesingle
ENCODING 39
SWIDTH 255 0
DWIDTH 20 0
BBX 10 20 5 37
BITMAP
FFC0
FFC0
FFC0
FFC0
FFC0
FF80
7F80
7F80
7F80
7F80
7F80
7F80
7F80
7F80
7F80
7F80
7F00
3F00
3F00
3F00
ENDCHAR
STARTCHAR parenleft
ENCODING 40
SWIDTH 356 0
DWIDTH 28 0
BBX 16 72 7 -7
BITMAP
00FF
00FE
00FE
01FC
01FC
03F8
03F8
03F8
07F0
07F0
07F0
0FE0
0FE0
0FE0
1FC0
1FC0
1FC0
1F80
3F80
3F80
3F80
3F00
3F00
7F00
7F00
7F00
7E00
7E00
7E00
7E00
FE00
FE00
FE00
FE00
FE00
FE00
FE00
FE00
FE00
FE00
FE00
7E00
7E00
7E00
7E00
7E00
7F00
7F00
7F00
3F00
3F00
3F00
3F80
3F80
1F80
1F80
1FC0
1FC0
0FC0
0FE0
0FE0
07E0
07F0
07F0
03F8
03F8
03F8
01FC
01FC
00FE
00FE
007F
ENDCHAR
STARTCHAR parenright
ENCODING 41
SWIDTH 355 0
DWIDTH 28 0
BBX 15 72 5 -7
BITMAP
FE00
7F00
7F00
3F80
3F80
3F80
1FC0
1FC0
1FC0
0FE0
0FE0
07E0
07F0
07F0
03F0
03F8
03F8
03F8
01F8
01FC
01FC
01FC
00FC
00FC
00FE
00FE
00FE
00FE
007E
007E
007E
007E
007E
007E
007E
007E
007E
007E
007E
007E
007E
007E
007E
007E
00FE
00FE
00FE
00FE
00FC
00FC
01FC
01FC
01FC
01F8
03F8
03F8
03F8
03F0
07F0
07F0
07E0
0FE0
0FE0
1FC0
1FC0
1FC0
3F80
3F80
7F00
7F00
7F00
FE00
ENDCHAR
STARTCHAR asterisk
ENCODING 42
SWIDTH 469 0
DWIDTH 37 0
BBX 27 26 5 31
BITMAP
001F0000
001F0000
001F0000
001F0000
001F0000
001F0000
001F0000
601F0080
7C1F07C0
7F9F7FC0
FFFFFFC0
FFFFFFE0
1FFFFE00
01FFF000
007F8000
007FC000
00FFC000
01FFE000
01F3F000
03F1F800
07E0F800
07C0FC00
0FC07E00
0F803C00
03003800
01001000
ENDCHAR
STARTCHAR plus
ENCODING 43
SWIDTH 690 0
DWIDTH 54 0
BBX 44 44 5 7
BITMAP
00001F800000
00001F800000
00001F800000
00001F800000
00001F800000
00001F800000
00001F800000
00001F800000
00001F800000
00001F800000
00001F800000
00001F800000
00001F800000
00001F800000
00001F800000
00001F800000
00001F800000
00001F800000
FFFFFFFFFFF0
FFFFFFFFFFF0
FFFFFFFFFFF0
FFFFFFFFFFF0
FFFFFFFFFFF0
FFFFFFFFFFF0
FFFFFFFFFFF0
00001F800000
00001F800000
00001F800000
00001F800000
00001F800000
00001F800000
00001F800000
00001F800000
00001F800000
00001F800000
00001F800000
00001F800000
00001F800000
00001F800000
00001F800000
00001F800000
00001F800000
00001F800000
00001F800000
ENDCHAR
STARTCHAR comma
ENCODING 44
SWIDTH 259 0
DWIDTH 20 0
BBX 10 20 5 -9
BITMAP
FFC0
FFC0
FFC0
FFC0
FF80
FF80
FF80
FF80
FF80
FF00
FF00
FF00
FF00
FF00
FE00
FE00
FE00
FE00
FE00
FE00
ENDCHAR
STARTCHAR hyphen
ENCODING 45
SWIDTH 296 0
DWIDTH 23 0
BBX 19 7 2 26
BITMAP
FFFFE0
FFFFE0
FFFFE0
FFFFE0
FFFFE0
FFFFE0
FFFFE0
ENDCHAR
STARTCHAR period
ENCODING 46
SWIDTH 262 0
DWIDTH 20 0
BBX 11 11 5 0
BITMAP
1E00
7F80
7FC0
FFC0
FFC0
FFE0
FFC0
FFC0
7FC0
7F80
1E00
ENDCHAR
STARTCHAR slash
ENCODING 47
SWIDTH 444 0
DWIDTH 35 0
BBX 33 57 1 0
BITMAP
0000003F80
0000003F00
0000007F00
0000007E00
000000FE00
000000FC00
000001FC00
000001F800
000003F800
000003F000
000007F000
000007F000
000007E000
00000FE000
00000FC000
00001FC000
00001F8000
00003F8000
00003F0000
00007F0000
00007E0000
0000FE0000
0000FC0000
0001FC0000
0001FC0000
0003F80000
0003F80000
0007F00000
0007F00000
0007E00000
000FE00000
000FC00000
001FC00000
001F800000
003F800000
003F000000
007F000000
007F000000
00FE000000
00FE000000
01FC000000
01FC000000
03F8000000
03F8000000
03F0000000
07F0000000
07E0000000
0FE0000000
0FC0000000
1FC0000000
1FC0000000
3F80000000
3F80000000
7F00000000
7F00000000
FE00000000
FE00000000
ENDCHAR
STARTCHAR zero
ENCODING 48
SWIDTH 838 0
DWIDTH 65 0
BBX 59 57 3 0
BITMAP
000000FFF0000000
00000FFFFF000000
00007FFFFFC00000
0001FFFFFFF00000
0007FFFFFFFC0000
000FFFFFFFFF0000
003FFFFFFFFF8000
007FFFFFFFFFC000
00FFFFFFFFFFE000
01FFFFFFFFFFF000
03FFFF001FFFF800
07FFF80003FFFC00
07FFE00000FFFE00
0FFF8000003FFE00
0FFF0000001FFF00
1FFE0000000FFF00
1FFC00000007FF80
3FF800000003FF80
3FF800000001FFC0
7FF000000001FFC0
7FF000000000FFC0
7FE000000000FFC0
7FE000000000FFE0
7FE0000000007FE0
FFE0000000007FE0
FFC0000000007FE0
FFC0000000007FE0
FFC0000000007FE0
FFC0000000007FE0
FFC0000000007FE0
FFC0000000007FE0
FFC0000000007FE0
7FE0000000007FE0
7FE000000000FFE0
7FE000000000FFC0
7FE000000000FFC0
3FF000000001FFC0
3FF000000001FFC0
3FF800000003FF80
1FF800000003FF80
1FFC00000007FF00
0FFE0000000FFF00
0FFF0000001FFE00
07FF8000003FFE00
07FFE00000FFFC00
03FFF80003FFF800
01FFFF001FFFF000
00FFFFFFFFFFF000
007FFFFFFFFFE000
003FFFFFFFFFC000
001FFFFFFFFF0000
000FFFFFFFFE0000
0003FFFFFFFC0000
0001FFFFFFF00000
00007FFFFFC00000
00000FFFFE000000
000000FFE0000000
ENDCHAR
STARTCHAR one
ENCODING 49
SWIDTH 385 0
DWIDTH 30 0
BBX 23 57 2 0
BITMAP
FFC000
FFFC00
FFFF00
FFFF80
FFFFC0
FFFFE0
FFFFF0
FFFFF0
FFFFF8
FFFFF8
007FFC
003FFC
001FFC
000FFE
0007FE
0007FE
0007FE
0007FE
0007FE
0007FE
0007FE
0007FE
0007FE
0007FE
0007FE
0007FE
0007FE
0007FE
0007FE
0007FE
0007FE
0007FE
0007FE
0007FE
0007FE
0007FE
0007FE
0007FE
0007FE
0007FE
0007FE
0007FE
0007FE
0007FE
0007FE
0007FE
0007FE
0007FE
0007FE
0007FE
0007FE
0007FE
0007FE
0007FE
0007FE
0007FE
0007FE
ENDCHAR
STARTCHAR two
ENCODING 50
SWIDTH 825 0
DWIDTH 64 0
BBX 55 57 5 0
BITMAP
FFFFFFFFFFE000
FFFFFFFFFFFC00
FFFFFFFFFFFF00
FFFFFFFFFFFFC0
FFFFFFFFFFFFE0
FFFFFFFFFFFFF0
FFFFFFFFFFFFF8
FFFFFFFFFFFFF8
FFFFFFFFFFFFFC
FFFFFFFFFFFFFC
00000000007FFC
00000000001FFE
00000000000FFE
00000000000FFE
000000000007FE
000000000007FE
000000000007FE
000000000007FE
000000000007FE
000000000007FE
00000000000FFE
00000000000FFC
00000000001FFC
00000000007FFC
000FFFFFFFFFF8
00FFFFFFFFFFF0
03FFFFFFFFFFF0
07FFFFFFFFFFE0
0FFFFFFFFFFF80
1FFFFFFFFFFF00
3FFFFFFFFFFC00
3FFFFFFFFFE000
7FFC0000000000
7FF00000000000
7FE00000000000
FFC00000000000
FFC00000000000
FF800000000000
FF800000000000
FF800000000000
FF800000000000
FF800000000000
FF800000000000
FF800000000000
FF800000000000
FF800000000000
FF800000000000
FFFFFFFFFFFFFC
FFFFFFFFFFFFFC
FFFFFFFFFFFFFC
FFFFFFFFFFFFFC
FFFFFFFFFFFFFC
FFFFFFFFFFFFFC
FFFFFFFFFFFFFC
FFFFFFFFFFFFFC
FFFFFFFFFFFFFC
FFFFFFFFFFFFFC
ENDCHAR
STARTCHAR three
ENCODING 51
SWIDTH 827 0
DWIDTH 65 0
BBX 57 57 4 0
BITMAP
FFFFFFFFFFE00000
FFFFFFFFFFFE0000
FFFFFFFFFFFF8000
FFFFFFFFFFFFC000
FFFFFFFFFFFFF000
FFFFFFFFFFFFF000
FFFFFFFFFFFFF800
FFFFFFFFFFFFFC00
FFFFFFFFFFFFFC00
FFFFFFFFFFFFFE00
0000000000FFFE00
00000000001FFE00
00000000000FFE00
000000000007FF00
000000000007FF00
000000000007FF00
000000000003FF00
000000000003FE00
000000000007FE00
000000000007FE00
000000000007FE00
00000000000FFC00
00000000001FFC00
00000000007FF800
0007FFFFFFFFF000
0007FFFFFFFFE000
0007FFFFFFFF8000
0007FFFFFFFF8000
0007FFFFFFFFE000
0007FFFFFFFFF000
0007FFFFFFFFF800
0007FFFFFFFFFC00
00000000003FFE00
00000000000FFE00
000000000007FF00
000000000003FF00
000000000003FF00
000000000003FF80
000000000001FF80
000000000001FF80
000000000001FF80
000000000003FF80
000000000003FF80
000000000007FF00
00000000000FFF00
00000000001FFF00
00000000007FFF00
FFFFFFFFFFFFFE00
FFFFFFFFFFFFFE00
FFFFFFFFFFFFFC00
FFFFFFFFFFFFF800
FFFFFFFFFFFFF000
FFFFFFFFFFFFF000
FFFFFFFFFFFFC000
FFFFFFFFFFFF8000
FFFFFFFFFFFE0000
FFFFFFFFFFE00000
ENDCHAR
STARTCHAR four
ENCODING 52
SWIDTH 845 0
DWIDTH 66 0
BBX 60 57 4 0
BITMAP
FFC00000003FF000
FFC00000003FF000
FFC00000003FF000
FFC00000003FF000
FFC00000003FF000
FFC00000003FF000
FFC00000003FF000
FFC00000003FF000
FFC00000003FF000
FFC00000003FF000
FFC00000003FF000
FFC00000003FF000
FFC00000003FF000
FFC00000003FF000
FFC00000003FF000
FFC00000003FF000
FFC00000003FF000
FFC00000003FF000
FFC00000003FF000
FFC00000003FF000
FFC00000003FF000
FFC00000003FF000
FFC00000003FF000
FFC00000003FF000
FFC00000003FF000
FFC00000003FF000
FFC00000003FF000
FFC00000003FF000
FFE00000003FF000
FFE00000003FF000
7FF00000003FF000
7FFC0000003FF000
7FFFFFFFFFFFFFF0
3FFFFFFFFFFFFFF0
3FFFFFFFFFFFFFF0
1FFFFFFFFFFFFFF0
0FFFFFFFFFFFFFF0
0FFFFFFFFFFFFFF0
03FFFFFFFFFFFFF0
01FFFFFFFFFFFFF0
007FFFFFFFFFFFF0
0007FFFFFFFFFFF0
00000000003FF000
00000000003FF000
00000000003FF000
00000000003FF000
00000000003FF000
00000000003FF000
00000000003FF000
00000000003FF000
00000000003FF000
00000000003FF000
00000000003FF000
00000000003FF000
00000000003FF000
00000000003FF000
00000000003FF000
ENDCHAR
STARTCHAR five
ENCODING 53
SWIDTH 885 0
DWIDTH 69 0
BBX 60 57 5 0
BITMAP
FFFFFFFFFFFFFF80
FFFFFFFFFFFFFF80
FFFFFFFFFFFFFF80
FFFFFFFFFFFFFF80
FFFFFFFFFFFFFF80
FFFFFFFFFFFFFF80
FFFFFFFFFFFFFF80
FFFFFFFFFFFFFF80
FFFFFFFFFFFFFF80
FFFFFFFFFFFFFF80
FFC0000000000000
FFC0000000000000
FFC0000000000000
FFC0000000000000
FFC0000000000000
FFC0000000000000
FFC0000000000000
FFC0000000000000
FFC0000000000000
FFC0000000000000
FFC0000000000000
FFC0000000000000
FFC0000000000000
FFC0000000000000
FFFFFFFFFFFF0000
FFFFFFFFFFFFE000
FFFFFFFFFFFFF800
FFFFFFFFFFFFFE00
FFFFFFFFFFFFFF00
FFFFFFFFFFFFFF80
FFFFFFFFFFFFFFC0
FFFFFFFFFFFFFFC0
000000000003FFE0
000000000000FFE0
0000000000007FE0
0000000000003FE0
0000000000003FF0
0000000000003FF0
0000000000001FF0
0000000000001FF0
0000000000001FF0
0000000000003FF0
0000000000003FF0
0000000000003FF0
0000000000007FF0
000000000000FFE0
000000000003FFE0
FFFFFFFFFFFFFFE0
FFFFFFFFFFFFFFC0
FFFFFFFFFFFFFFC0
FFFFFFFFFFFFFF80
FFFFFFFFFFFFFF00
FFFFFFFFFFFFFE00
FFFFFFFFFFFFFC00
FFFFFFFFFFFFF800
FFFFFFFFFFFFE000
FFFFFFFFFFFE0000
ENDCHAR
STARTCHAR six
ENCODING 54
SWIDTH 872 0
DWIDTH 68 0
BBX 61 57 3 0
BITMAP
00000FFFFFFFFFE0
0000FFFFFFFFFFE0
0007FFFFFFFFFFE0
001FFFFFFFFFFFE0
003FFFFFFFFFFFE0
00FFFFFFFFFFFFE0
01FFFFFFFFFFFFE0
03FFFFFFFFFFFFE0
03FFFFFFFFFFFFE0
07FFFFFFFFFFFFE0
0FFFF80000000000
0FFFC00000000000
1FFF000000000000
1FFE000000000000
3FFC000000000000
3FF8000000000000
3FF8000000000000
7FF0000000000000
7FF0000000000000
7FE0000000000000
7FE0000000000000
7FE0000000000000
7FE0000000000000
FFE0000000000000
FFFFFFFFFFFF8000
FFFFFFFFFFFFF000
FFFFFFFFFFFFFC00
FFFFFFFFFFFFFF00
FFFFFFFFFFFFFF80
FFFFFFFFFFFFFFC0
FFFFFFFFFFFFFFE0
FFFFFFFFFFFFFFE0
FFC000000001FFF0
7FE0000000007FF0
7FE0000000003FF0
7FE0000000001FF0
7FE0000000001FF8
7FE0000000001FF8
7FF0000000001FF8
3FF0000000001FF8
3FF8000000001FF8
3FF8000000001FF8
1FFC000000001FF8
1FFE000000003FF8
0FFF000000003FF0
0FFFC00000007FF0
07FFF8000001FFF0
07FFFFFFFFFFFFF0
03FFFFFFFFFFFFE0
01FFFFFFFFFFFFE0
00FFFFFFFFFFFFC0
007FFFFFFFFFFF80
003FFFFFFFFFFF00
000FFFFFFFFFFE00
0003FFFFFFFFFC00
0000FFFFFFFFF000
00000FFFFFFF8000
ENDCHAR
STARTCHAR seven
ENCODING 55
SWIDTH 756 0
DWIDTH 59 0
BBX 54 57 3 0
BITMAP
FFFFFFFFFFFFE0
FFFFFFFFFFFFF8
FFFFFFFFFFFFFC
FFFFFFFFFFFFFC
FFFFFFFFFFFFFC
FFFFFFFFFFFFFC
FFFFFFFFFFFFFC
FFFFFFFFFFFFFC
FFFFFFFFFFFFF8
FFFFFFFFFFFFF0
0000000001FFF0
0000000003FFE0
0000000003FFC0
0000000007FF80
000000000FFF00
000000001FFF00
000000003FFE00
000000007FFC00
000000007FF800
00000000FFF000
00000001FFE000
00000003FFE000
00000007FFC000
0000000FFF8000
0000000FFF0000
0000001FFE0000
0000003FFE0000
0000007FFC0000
000000FFF80000
000000FFF00000
000001FFE00000
000003FFE00000
000007FFC00000
00000FFF800000
00001FFF000000
00001FFE000000
00003FFC000000
00007FFC000000
0000FFF8000000
0001FFF0000000
0003FFE0000000
0003FFC0000000
0007FFC0000000
000FFF80000000
001FFF00000000
003FFE00000000
003FFC00000000
007FFC00000000
00FFF800000000
01FFF000000000
03FFE000000000
07FFC000000000
07FF8000000000
0FFF8000000000
1FFF0000000000
3FFE0000000000
7FFC0000000000
ENDCHAR
STARTCHAR eight
ENCODING 56
SWIDTH 898 0
DWIDTH 70 0
BBX 62 57 4 0
BITMAP
0003FFFFFFFF0000
003FFFFFFFFFF000
00FFFFFFFFFFFC00
03FFFFFFFFFFFF00
07FFFFFFFFFFFF80
0FFFFFFFFFFFFFC0
1FFFFFFFFFFFFFE0
1FFFFFFFFFFFFFE0
3FFFFFFFFFFFFFF0
3FFFFFFFFFFFFFF0
3FFF00000003FFF0
7FFC00000000FFF8
7FF0000000003FF8
7FF0000000003FF8
7FE0000000001FF8
7FE0000000001FF8
7FE0000000001FF8
7FE0000000001FF8
7FE0000000001FF8
3FE0000000001FF0
3FF0000000003FF0
3FF0000000003FF0
1FF8000000007FE0
0FFE00000001FFC0
07FFFFFFFFFFFF80
03FFFFFFFFFFFF00
00FFFFFFFFFFFC00
00FFFFFFFFFFFC00
03FFFFFFFFFFFF00
0FFFFFFFFFFFFFC0
1FFFFFFFFFFFFFE0
3FFFFFFFFFFFFFF0
3FFE00000001FFF0
7FF8000000007FF8
7FF0000000003FF8
7FE0000000001FFC
FFC0000000000FFC
FFC0000000000FFC
FFC0000000000FFC
FFC0000000000FFC
FFC0000000000FFC
FFC0000000000FFC
FFE0000000001FFC
FFE0000000001FFC
FFF0000000003FFC
7FFC000000007FF8
7FFF00000003FFF8
3FFFFFFFFFFFFFF8
3FFFFFFFFFFFFFF0
1FFFFFFFFFFFFFE0
1FFFFFFFFFFFFFE0
0FFFFFFFFFFFFFC0
07FFFFFFFFFFFF80
03FFFFFFFFFFFF00
00FFFFFFFFFFFC00
003FFFFFFFFFF000
0007FFFFFFFF8000
ENDCHAR
STARTCHAR nine
ENCODING 57
SWIDTH 861 0
DWIDTH 67 0
BBX 61 57 3 0
BITMAP
000FFFFFFF800000
003FFFFFFFF80000
00FFFFFFFFFF0000
03FFFFFFFFFF8000
07FFFFFFFFFFE000
0FFFFFFFFFFFF000
1FFFFFFFFFFFF800
1FFFFFFFFFFFFC00
3FFFFFFFFFFFFE00
3FFFFFFFFFFFFF00
7FFE000000FFFF00
7FF80000001FFF80
7FF000000007FFC0
7FE000000003FFC0
FFE000000001FFC0
FFE000000000FFE0
FFC000000000FFE0
FFC0000000007FE0
FFC0000000007FF0
FFC0000000003FF0
FFE0000000003FF0
7FE0000000003FF0
7FE0000000003FF0
7FF0000000001FF8
7FF8000000001FF8
3FFE000000001FF8
3FFFFFFFFFFFFFF8
3FFFFFFFFFFFFFF8
1FFFFFFFFFFFFFF8
0FFFFFFFFFFFFFF8
07FFFFFFFFFFFFF8
03FFFFFFFFFFFFF8
00FFFFFFFFFFFFF8
000FFFFFFFFFFFF8
0000000000003FF8
0000000000003FF0
0000000000003FF0
0000000000003FF0
0000000000007FF0
0000000000007FF0
000000000000FFE0
000000000000FFE0
000000000001FFE0
000000000003FFC0
000000000007FFC0
00000000001FFF80
0000000000FFFF80
01FFFFFFFFFFFF00
01FFFFFFFFFFFF00
01FFFFFFFFFFFE00
01FFFFFFFFFFFC00
01FFFFFFFFFFF800
01FFFFFFFFFFF000
01FFFFFFFFFFC000
01FFFFFFFFFF0000
01FFFFFFFFF80000
01FFFFFFFFC00000
ENDCHAR
STARTCHAR colon
ENCODING 58
SWIDTH 262 0
DWIDTH 20 0
BBX 11 37 5 0
BITMAP
1E00
3F80
7FC0
FFC0
FFC0
FFE0
FFC0
FFC0
7FC0
7F80
1F00
0000
0000
0000
0000
0000
0000
0000
0000
0000
0000
0000
0000
0000
0000
0000
1E00
7F80
7FC0
FFC0
FFC0
FFE0
FFC0
FFC0
7FC0
7F80
1E00
ENDCHAR
STARTCHAR semicolon
ENCODING 59
SWIDTH 262 0
DWIDTH 20 0
BBX 11 45 5 -9
BITMAP
1F00
3F80
7FC0
FFC0
FFC0
FFE0
FFC0
FFC0
7FC0
3F80
1F00
0000
0000
0000
0000
0000
0000
0000
0000
0000
0000
0000
0000
0000
0000
FFC0
FFC0
FFC0
FFC0
FF80
FF80
FF80
FF80
FF80
FF00
FF00
FF00
FF00
FF00
FE00
FE00
FE00
FE00
FE00
FE00
ENDCHAR
STARTCHAR less
ENCODING 60
SWIDTH 690 0
DWIDTH 54 0
BBX 44 42 5 8
BITMAP
000000000030
0000000000F0
0000000003F0
000000001FF0
000000007FF0
00000001FFF0
0000000FFFF0
0000003FFFE0
000001FFFF00
000007FFFC00
00001FFFE000
0000FFFF8000
0003FFFC0000
000FFFE00000
007FFF800000
01FFFC000000
0FFFF0000000
3FFF80000000
7FFE00000000
FFF000000000
FFC000000000
FFC000000000
FFF000000000
7FFE00000000
3FFF80000000
0FFFF0000000
01FFFC000000
007FFF800000
000FFFE00000
0003FFFC0000
0000FFFF0000
00001FFFE000
000007FFF800
000001FFFF00
0000003FFFC0
0000000FFFF0
00000003FFF0
000000007FF0
000000001FF0
0000000003F0
0000000000F0
000000000030
ENDCHAR
STARTCHAR equal
ENCODING 61
SWIDTH 690 0
DWIDTH 54 0
BBX 44 28 5 15
BITMAP
FFFFFFFFFFF0
FFFFFFFFFFF0
FFFFFFFFFFF0
FFFFFFFFFFF0
FFFFFFFFFFF0
FFFFFFFFFFF0
FFFFFFFFFFF0
000000000000
000000000000
000000000000
000000000000
000000000000
000000000000
000000000000
000000000000
000000000000
000000000000
000000000000
000000000000
000000000000
000000000000
FFFFFFFFFFF0
FFFFFFFFFFF0
FFFFFFFFFFF0
FFFFFFFFFFF0
FFFFFFFFFFF0
FFFFFFFFFFF0
FFFFFFFFFFF0
ENDCHAR
STARTCHAR greater
ENCODING 62
SWIDTH 690 0
DWIDTH 54 0
BBX 44 42 5 8
BITMAP
800000000000
F00000000000
FC0000000000
FF0000000000
FFE000000000
FFF800000000
FFFF00000000
7FFFC0000000
0FFFF0000000
03FFFE000000
007FFF800000
001FFFE00000
0003FFFC0000
0000FFFF0000
00001FFFE000
000007FFF800
000000FFFE00
0000001FFFC0
00000007FFE0
00000000FFF0
000000003FF0
000000003FF0
00000000FFF0
00000007FFE0
0000001FFFC0
000000FFFE00
000003FFF800
00001FFFE000
00007FFF0000
0003FFFC0000
000FFFF00000
007FFF800000
03FFFE000000
0FFFF0000000
7FFFC0000000
FFFF00000000
FFF800000000
FFE000000000
FF8000000000
FC0000000000
F00000000000
C00000000000
ENDCHAR
STARTCHAR question
ENCODING 63
SWIDTH 776 0
DWIDTH 61 0
BBX 55 57 3 0
BITMAP
FFFFFFFFFFE000
FFFFFFFFFFFC00
FFFFFFFFFFFF00
FFFFFFFFFFFFC0
FFFFFFFFFFFFE0
FFFFFFFFFFFFF0
FFFFFFFFFFFFF8
FFFFFFFFFFFFF8
FFFFFFFFFFFFFC
FFFFFFFFFFFFFC
00000000007FFC
00000000001FFE
00000000000FFE
00000000000FFE
000000000007FE
000000000007FE
000000000007FE
000000000007FE
000000000007FE
00000000000FFE
00000000000FFC
00000000001FFC
00000000007FFC
0003FFFFFFFFF8
001FFFFFFFFFF0
003FFFFFFFFFF0
00FFFFFFFFFFE0
00FFFFFFFFFFC0
01FFFFFFFFFF00
01FFFFFFFFFC00
03FFFFFFFFE000
03FF8000000000
03FE0000000000
03FE0000000000
03FE0000000000
03FE0000000000
03FE0000000000
03FE0000000000
00000000000000
00000000000000
00000000000000
00000000000000
00000000000000
00000000000000
00000000000000
00000000000000
00F80000000000
01FC0000000000
03FE0000000000
03FF0000000000
07FF0000000000
07FF0000000000
07FF0000000000
03FF0000000000
03FE0000000000
01FC0000000000
00F80000000000
ENDCHAR
STARTCHAR at
ENCODING 64
SWIDTH 833 0
DWIDTH 65 0
BBX 57 57 3 0
BITMAP
000001FFFFFFFF80
00001FFFFFFFFF80
00007FFFFFFFFF80
0001FFFFFFFFFF80
0007FFFFFFFFFF80
000FFFFFFFFFFF80
003FFFFFFFFFFF80
007FFF0000003F80
00FFF00000003F80
01FFC00000003F80
01FF000000003F80
03FE000000003F80
07FC000000003F80
0FF8000000003F80
0FF0000000003F80
1FE0000000003F80
1FE000FFFFE03F80
3FC003FFFFE03F80
3FC007FFFFE03F80
3F800FFFFFE03F80
7F801FFFFFE03F80
7F803FFFFFE03F80
7F003FE00FE03F80
7F007F800FE03F80
7F007F000FE03F80
FF007F000FE03F80
FF007E000FE03F80
FF00FE000FE03F80
FF00FE000FE03F80
FF00FE000FE03F80
FF00FE000FE03F80
FF007E000FE03F80
FF007F000FE03F80
7F007F000FE03F80
7F007F800FE03F80
7F803FE00FE03F80
7F803FFFFFFFFF80
7F801FFFFFFFFF80
3FC00FFFFFFFFF80
3FC007FFFFFFFF80
3FE003FFFFFFFF80
1FE000FFFFFFFF80
1FF0000000000000
0FF8000000000000
0FFC000000000000
07FE000000000000
03FF000000000000
01FFC00000000000
01FFF00000000000
00FFFF0000000000
003FFFFFFFFFFF80
001FFFFFFFFFFF80
000FFFFFFFFFFF80
0003FFFFFFFFFF80
0000FFFFFFFFFF80
00001FFFFFFFFF80
000001FFFFFFFF80
ENDCHAR
STARTCHAR A
ENCODING 65
SWIDTH 989 0
DWIDTH 77 0
BBX 75 58 1 0
BITMAP
000000001F0000000000
000000003F8000000000
000000007FC000000000
000000007FC000000000
00000000FFE000000000
00000001FFF000000000
00000001FFF000000000
00000003FFF800000000
00000003FFF800000000
00000007FFFC00000000
0000000FFFFE00000000
0000000FFFFE00000000
0000001FFFFF00000000
0000001FFFFF00000000
0000003FFFFF80000000
0000007FF3FFC0000000
0000007FF3FFC0000000
000000FFE1FFE0000000
000000FFE0FFE0000000
000001FFC0FFF0000000
000003FFC07FF8000000
000003FF807FF8000000
000007FF003FFC000000
000007FF003FFC000000
00000FFE001FFE000000
00001FFE000FFF000000
00001FFC000FFF000000
00003FF80007FF800000
00003FF80007FF800000
00007FF00003FFC00000
0000FFF00001FFE00000
0000FFE00001FFE00000
0001FFC00000FFF00000
0001FFC00000FFF00000
0003FF8000007FF80000
0007FF8000007FFC0000
0007FF00FFFFFFFC0000
000FFF00FFFFFFFE0000
000FFE01FFFFFFFE0000
001FFC03FFFFFFFF0000
003FFC03FFFFFFFF8000
003FF807FFFFFFFF8000
007FF807FFFFFFFFC000
007FF00FFFFFFFFFC000
00FFE000000001FFE000
00FFE000000001FFF000
01FFC000000000FFF000
03FFC0000000007FF800
03FF80000000007FF800
07FF00000000003FFC00
07FF00000000003FFE00
0FFE00000000001FFE00
1FFE00000000000FFF00
1FFC00000000000FFF00
3FF8000000000007FF80
3FF8000000000003FF80
7FF0000000000003FFC0
FFF0000000000001FFE0
ENDCHAR
STARTCHAR B
ENCODING 66
SWIDTH 891 0
DWIDTH 70 0
BBX 61 57 5 0
BITMAP
FFFFFFFFFFFE0000
FFFFFFFFFFFFE000
FFFFFFFFFFFFF800
FFFFFFFFFFFFFC00
FFFFFFFFFFFFFF00
FFFFFFFFFFFFFF80
FFFFFFFFFFFFFF80
FFFFFFFFFFFFFFC0
FFFFFFFFFFFFFFC0
FFFFFFFFFFFFFFE0
FFC00000000FFFE0
FFC000000001FFE0
FFC000000000FFF0
FFC0000000007FF0
FFC0000000007FF0
FFC0000000003FF0
FFC0000000003FF0
FFC0000000003FF0
FFC0000000003FE0
FFC0000000007FE0
FFC0000000007FE0
FFC0000000007FC0
FFC000000000FFC0
FFC000000007FF80
FFC07FFFFFFFFF00
FFC07FFFFFFFFE00
FFC07FFFFFFFF800
FFC07FFFFFFFF800
FFC07FFFFFFFFE00
FFC07FFFFFFFFF00
FFC07FFFFFFFFF80
FFC07FFFFFFFFFC0
FFC000000003FFE0
FFC000000000FFE0
FFC0000000007FF0
FFC0000000003FF0
FFC0000000003FF0
FFC0000000003FF8
FFC0000000001FF8
FFC0000000001FF8
FFC0000000001FF8
FFC0000000003FF8
FFC0000000003FF8
FFC0000000007FF0
FFC000000000FFF0
FFC000000001FFF0
FFC00000000FFFF0
FFFFFFFFFFFFFFE0
FFFFFFFFFFFFFFE0
FFFFFFFFFFFFFFC0
FFFFFFFFFFFFFF80
FFFFFFFFFFFFFF80
FFFFFFFFFFFFFF00
FFFFFFFFFFFFFC00
FFFFFFFFFFFFF800
FFFFFFFFFFFFE000
FFFFFFFFFFFE0000
ENDCHAR
STARTCHAR C
ENCODING 67
SWIDTH 829 0
DWIDTH 65 0
BBX 59 57 3 0
BITMAP
000003FFFFFFFFE0
00003FFFFFFFFFE0
0000FFFFFFFFFFE0
0003FFFFFFFFFFE0
000FFFFFFFFFFFE0
001FFFFFFFFFFFE0
007FFFFFFFFFFFE0
00FFFFFFFFFFFFE0
01FFFFFFFFFFFFE0
03FFFFFFFFFFFFE0
03FFFE0000000000
07FFF00000000000
0FFFC00000000000
0FFF800000000000
1FFF000000000000
1FFE000000000000
3FFC000000000000
3FF8000000000000
3FF8000000000000
7FF0000000000000
7FF0000000000000
7FE0000000000000
7FE0000000000000
7FE0000000000000
FFE0000000000000
FFC0000000000000
FFC0000000000000
FFC0000000000000
FFC0000000000000
FFC0000000000000
FFC0000000000000
FFC0000000000000
7FE0000000000000
7FE0000000000000
7FE0000000000000
7FE0000000000000
7FF0000000000000
3FF0000000000000
3FF8000000000000
3FF8000000000000
1FFC000000000000
1FFE000000000000
0FFF000000000000
0FFF800000000000
07FFE00000000000
03FFF00000000000
03FFFE0000000000
01FFFFFFFFFFFFE0
00FFFFFFFFFFFFE0
007FFFFFFFFFFFE0
003FFFFFFFFFFFE0
001FFFFFFFFFFFE0
0007FFFFFFFFFFE0
0003FFFFFFFFFFE0
0000FFFFFFFFFFE0
00001FFFFFFFFFE0
000003FFFFFFFFE0
ENDCHAR
STARTCHAR D
ENCODING 68
SWIDTH 879 0
DWIDTH 69 0
BBX 60 57 5 0
BITMAP
FFFFFFFFFE000000
FFFFFFFFFFC00000
FFFFFFFFFFF80000
FFFFFFFFFFFE0000
FFFFFFFFFFFF8000
FFFFFFFFFFFFC000
FFFFFFFFFFFFE000
FFFFFFFFFFFFF000
FFFFFFFFFFFFF800
FFFFFFFFFFFFFC00
FFC0000007FFFE00
FFC0000000FFFF00
FFC00000003FFF00
FFC00000000FFF80
FFC000000007FF80
FFC000000003FFC0
FFC000000001FFC0
FFC000000001FFE0
FFC000000000FFE0
FFC000000000FFE0
FFC0000000007FF0
FFC0000000007FF0
FFC0000000003FF0
FFC0000000003FF0
FFC0000000003FF0
FFC0000000003FF0
FFC0000000003FF0
FFC0000000003FF0
FFC0000000003FF0
FFC0000000003FF0
FFC0000000003FF0
FFC0000000003FF0
FFC0000000003FF0
FFC0000000003FF0
FFC0000000003FF0
FFC0000000007FF0
FFC0000000007FE0
FFC000000000FFE0
FFC000000000FFE0
FFC000000001FFC0
FFC000000003FFC0
FFC000000003FF80
FFC000000007FF80
FFC00000001FFF00
FFC00000003FFF00
FFC0000000FFFE00
FFC0000007FFFC00
FFFFFFFFFFFFFC00
FFFFFFFFFFFFF800
FFFFFFFFFFFFF000
FFFFFFFFFFFFE000
FFFFFFFFFFFF8000
FFFFFFFFFFFF0000
FFFFFFFFFFFC0000
FFFFFFFFFFF00000
FFFFFFFFFFC00000
FFFFFFFFFC000000
ENDCHAR
STARTCHAR E
ENCODING 69
SWIDTH 759 0
DWIDTH 59 0
BBX 51 57 5 0
BITMAP
FFFFFFFFFFFFE0
FFFFFFFFFFFFE0
FFFFFFFFFFFFE0
FFFFFFFFFFFFE0
FFFFFFFFFFFFE0
FFFFFFFFFFFFE0
FFFFFFFFFFFFE0
FFFFFFFFFFFFE0
FFFFFFFFFFFFE0
FFFFFFFFFFFFE0
FFC00000000000
FFC00000000000
FFC00000000000
FFC00000000000
FFC00000000000
FFC00000000000
FFC00000000000
FFC00000000000
FFC00000000000
FFC00000000000
FFC00000000000
FFC00000000000
FFC00000000000
FFC00000000000
FFC07FFFFFFF00
FFC07FFFFFFF00
FFC07FFFFFFF00
FFC07FFFFFFF00
FFC07FFFFFFF00
FFC07FFFFFFF00
FFC07FFFFFFF00
FFC07FFFFFFF00
FFC00000000000
FFC00000000000
FFC00000000000
FFC00000000000
FFC00000000000
FFC00000000000
FFC00000000000
FFC00000000000
FFC00000000000
FFC00000000000
FFC00000000000
FFC00000000000
FFC00000000000
FFC00000000000
FFC00000000000
FFFFFFFFFFFFE0
FFFFFFFFFFFFE0
FFFFFFFFFFFFE0
FFFFFFFFFFFFE0
FFFFFFFFFFFFE0
FFFFFFFFFFFFE0
FFFFFFFFFFFFE0
FFFFFFFFFFFFE0
FFFFFFFFFFFFE0
FFFFFFFFFFFFE0
ENDCHAR
STARTCHAR F
ENCODING 70
SWIDTH 705 0
DWIDTH 55 0
BBX 48 57 5 0
BITMAP
FFFFFFFFFFFF
FFFFFFFFFFFF
FFFFFFFFFFFF
FFFFFFFFFFFF
FFFFFFFFFFFF
FFFFFFFFFFFF
FFFFFFFFFFFF
FFFFFFFFFFFF
FFFFFFFFFFFF
FFFFFFFFFFFF
FFC000000000
FFC000000000
FFC000000000
FFC000000000
FFC000000000
FFC000000000
FFC000000000
FFC000000000
FFC000000000
FFC000000000
FFC000000000
FFC000000000
FFC000000000
FFC000000000
FFC000000000
FFC07FFFFFFC
FFC07FFFFFFC
FFC07FFFFFFC
FFC07FFFFFFC
FFC07FFFFFFC
FFC07FFFFFFC
FFC07FFFFFFC
FFC07FFFFFFC
FFC07FFFFFFC
FFC000000000
FFC000000000
FFC000000000
FFC000000000
FFC000000000
FFC000000000
FFC000000000
FFC000000000
FFC000000000
FFC000000000
FFC000000000
FFC000000000
FFC000000000
FFC000000000
FFC000000000
FFC000000000
FFC000000000
FFC000000000
FFC000000000
FFC000000000
FFC000000000
FFC000000000
FFC000000000
ENDCHAR
STARTCHAR G
ENCODING 71
SWIDTH 888 0
DWIDTH 69 0
BBX 62 57 3 0
BITMAP
000003FFFFFFFFE0
00003FFFFFFFFFE0
0000FFFFFFFFFFE0
0003FFFFFFFFFFE0
000FFFFFFFFFFFE0
001FFFFFFFFFFFE0
007FFFFFFFFFFFE0
00FFFFFFFFFFFFE0
01FFFFFFFFFFFFE0
03FFFFFFFFFFFFE0
03FFFE0000000000
07FFF00000000000
0FFFC00000000000
0FFF800000000000
1FFF000000000000
1FFE000000000000
3FFC000000000000
3FF8000000000000
3FF8000000000000
7FF0000000000000
7FF0000000000000
7FE0000000000000
7FE0000000000000
7FE0000000000000
FFE0003FFFFFFFFC
FFC0003FFFFFFFFC
FFC0003FFFFFFFFC
FFC0003FFFFFFFFC
FFC0003FFFFFFFFC
FFC0003FFFFFFFFC
FFC0003FFFFFFFFC
FFC0003FFFFFFFFC
7FE0000000000FFC
7FE0000000000FFC
7FE0000000000FFC
7FE0000000000FFC
7FF0000000000FFC
3FF0000000000FFC
3FF8000000000FFC
3FF8000000000FFC
1FFC000000000FFC
1FFE000000000FFC
0FFF000000000FFC
0FFF800000000FFC
07FFE00000000FFC
03FFF00000000FFC
03FFFE0000000FFC
01FFFFFFFFFFFFFC
00FFFFFFFFFFFFFC
007FFFFFFFFFFFFC
003FFFFFFFFFFFFC
001FFFFFFFFFFFFC
0007FFFFFFFFFFFC
0003FFFFFFFFFFFC
0000FFFFFFFFFFFC
00001FFFFFFFFFFC
000003FFFFFFFFFC
ENDCHAR
STARTCHAR H
ENCODING 72
SWIDTH 838 0
DWIDTH 65 0
BBX 55 57 5 0
BITMAP
FFC000000003FE
FFC000000003FE
FFC000000003FE
FFC000000003FE
FFC000000003FE
FFC000000003FE
FFC000000003FE
FFC000000003FE
FFC000000003FE
FFC000000003FE
FFC000000003FE
FFC000000003FE
FFC000000003FE
FFC000000003FE
FFC000000003FE
FFC000000003FE
FFC000000003FE
FFC000000003FE
FFC000000003FE
FFC000000003FE
FFC000000003FE
FFC000000003FE
FFC000000003FE
FFC07FFFFFFFFE
FFC07FFFFFFFFE
FFC07FFFFFFFFE
FFC07FFFFFFFFE
FFC07FFFFFFFFE
FFC07FFFFFFFFE
FFC07FFFFFFFFE
FFC07FFFFFFFFE
FFC07FFFFFFFFE
FFC000000003FE
FFC000000003FE
FFC000000003FE
FFC000000003FE
FFC000000003FE
FFC000000003FE
FFC000000003FE
FFC000000003FE
FFC000000003FE
FFC000000003FE
FFC000000003FE
FFC000000003FE
FFC000000003FE
FFC000000003FE
FFC000000003FE
FFC000000003FE
FFC000000003FE
FFC000000003FE
FFC000000003FE
FFC000000003FE
FFC000000003FE
FFC000000003FE
FFC000000003FE
FFC000000003FE
FFC000000003FE
ENDCHAR
STARTCHAR I
ENCODING 73
SWIDTH 267 0
DWIDTH 21 0
BBX 10 57 5 0
BITMAP
FFC0
FFC0
FFC0
FFC0
FFC0
FFC0
FFC0
FFC0
FFC0
FFC0
FFC0
FFC0
FFC0
FFC0
FFC0
FFC0
FFC0
FFC0
FFC0
FFC0
FFC0
FFC0
FFC0
FFC0
FFC0
FFC0
FFC0
FFC0
FFC0
FFC0
FFC0
FFC0
FFC0
FFC0
FFC0
FFC0
FFC0
FFC0
FFC0
FFC0
FFC0
FFC0
FFC0
FFC0
FFC0
FFC0
FFC0
FFC0
FFC0
FFC0
FFC0
FFC0
FFC0
FFC0
FFC0
FFC0
FFC0
ENDCHAR
STARTCHAR J
ENCODING 74
SWIDTH 708 0
DWIDTH 55 0
BBX 49 57 2 0
BITMAP
0000000001FF80
0000000001FF80
0000000001FF80
0000000001FF80
0000000001FF80
0000000001FF80
0000000001FF80
0000000001FF80
0000000001FF80
0000000001FF80
0000000001FF80
0000000001FF80
0000000001FF80
0000000001FF80
0000000001FF80
0000000001FF80
0000000001FF80
0000000001FF80
0000000001FF80
0000000001FF80
0000000001FF80
0000000001FF80
0000000001FF80
0000000001FF80
0000000001FF80
0000000001FF80
0000000001FF80
0000000001FF80
0000000001FF80
0000000001FF80
0000000001FF80
0000000001FF80
0000000001FF80
0000000001FF80
0000000001FF80
0000000001FF80
0000000001FF80
0000000003FF80
0000000003FF80
0000000003FF00
0000000007FF00
000000000FFF00
000000000FFE00
000000001FFE00
000000007FFE00
00000001FFFC00
0000001FFFFC00
FFFFFFFFFFF800
FFFFFFFFFFF000
FFFFFFFFFFE000
FFFFFFFFFFC000
FFFFFFFFFF8000
FFFFFFFFFF0000
FFFFFFFFFC0000
FFFFFFFFF00000
FFFFFFFF800000
FFFFFFF0000000
ENDCHAR
STARTCHAR K
ENCODING 75
SWIDTH 875 0
DWIDTH 68 0
BBX 62 57 5 0
BITMAP
FFC000000007FFF8
FFC00000001FFFE0
FFC00000003FFF80
FFC00000007FFF00
FFC0000000FFFE00
FFC0000003FFF800
FFC0000007FFF000
FFC000000FFFE000
FFC000003FFF8000
FFC000007FFF0000
FFC00000FFFE0000
FFC00003FFF80000
FFC00007FFF00000
FFC0000FFFE00000
FFC0001FFF800000
FFC0007FFF000000
FFC000FFFE000000
FFC001FFF8000000
FFC007FFF0000000
FFC00FFFE0000000
FFC01FFF80000000
FFC03FFF00000000
FFC0FFFE00000000
FFC1FFF800000000
FFC3FFF000000000
FFC7FFE000000000
FFC7FF8000000000
FFC7FF0000000000
FFC7FF0000000000
FFC7FFC000000000
FFC7FFE000000000
FFC3FFF000000000
FFC0FFFC00000000
FFC07FFE00000000
FFC03FFF00000000
FFC01FFFC0000000
FFC007FFE0000000
FFC003FFF0000000
FFC001FFF8000000
FFC0007FFE000000
FFC0003FFF000000
FFC0001FFF800000
FFC0000FFFE00000
FFC00003FFF00000
FFC00001FFF80000
FFC00000FFFE0000
FFC000007FFF0000
FFC000001FFF8000
FFC000000FFFE000
FFC0000007FFF000
FFC0000003FFF800
FFC0000000FFFE00
FFC00000007FFF00
FFC00000003FFF80
FFC00000001FFFC0
FFC000000007FFF0
FFC000000003FFFC
ENDCHAR
STARTCHAR L
ENCODING 76
SWIDTH 707 0
DWIDTH 55 0
BBX 48 57 5 0
BITMAP
FFC000000000
FFC000000000
FFC000000000
FFC000000000
FFC000000000
FFC000000000
FFC000000000
FFC000000000
FFC000000000
FFC000000000
FFC000000000
FFC000000000
FFC000000000
FFC000000000
FFC000000000
FFC000000000
FFC000000000
FFC000000000
FFC000000000
FFC000000000
FFC000000000
FFC000000000
FFC000000000
FFC000000000
FFC000000000
FFC000000000
FFC000000000
FFC000000000
FFC000000000
FFC000000000
FFC000000000
FFC000000000
FFC000000000
FFC000000000
FFC000000000
FFC000000000
FFC000000000
FFC000000000
FFC000000000
FFC000000000
FFC000000000
FFC000000000
FFC000000000
FFC000000000
FFC000000000
FFC000000000
FFC000000000
FFFFFFFFFFFF
FFFFFFFFFFFF
FFFFFFFFFFFF
FFFFFFFFFFFF
FFFFFFFFFFFF
FFFFFFFFFFFF
FFFFFFFFFFFF
FFFFFFFFFFFF
FFFFFFFFFFFF
FFFFFFFFFFFF
ENDCHAR
STARTCHAR M
ENCODING 77
SWIDTH 1115 0
DWIDTH 87 0
BBX 83 58 2 -1
BITMAP
00007C0000000003C00000
0000FE000000000FF00000
0001FF000000000FF00000
0001FF000000001FF80000
0003FF800000001FF80000
0003FF800000003FF80000
0003FFC00000003FFC0000
0007FFC00000007FFC0000
0007FFE00000007FFC0000
0007FFE00000007FFC0000
0007FFF0000000FFFE0000
000FFFF0000000FFFE0000
000FFFF0000001FFFE0000
000FFFF8000001FFFE0000
000FFFF8000003FFFF0000
001FFFFC000003FFFF0000
001FFFFC000003FFFF0000
001FFFFE000007FFFF8000
003FF7FE000007FDFF8000
003FF7FE00000FFDFF8000
003FF3FF00000FF9FF8000
003FE3FF00001FF8FFC000
007FE1FF80001FF8FFC000
007FE1FF80003FF0FFC000
007FE1FFC0003FF07FC000
007FC0FFC0003FE07FE000
00FFC0FFE0007FE07FE000
00FFC07FE0007FC07FE000
00FF807FE000FFC03FF000
01FF803FF000FF803FF000
01FF803FF001FF803FF000
01FF801FF801FF803FF000
01FF001FF801FF001FF800
03FF001FFC03FF001FF800
03FF000FFC03FE001FF800
03FF000FFC07FE000FF800
03FE0007FE07FC000FFC00
07FE0007FE0FFC000FFC00
07FE0003FF0FFC000FFC00
07FC0003FF1FF80007FE00
0FFC0003FF9FF80007FE00
0FFC0001FF9FF00007FE00
0FFC0001FFFFF00003FE00
0FF80000FFFFE00003FF00
1FF80000FFFFE00003FF00
1FF800007FFFC00003FF00
1FF800007FFFC00001FF00
3FF000007FFFC00001FF80
3FF000003FFF800001FF80
3FF000003FFF800001FF80
3FE000001FFF000000FFC0
7FE000001FFF000000FFC0
7FE000000FFE000000FFC0
7FE000000FFE0000007FC0
7FC0000007FC0000007FE0
FFC0000007FC0000007FE0
FFC0000003F80000007FE0
0000000001F00000000000
ENDCHAR
STARTCHAR N
ENCODING 78
SWIDTH 873 0
DWIDTH 68 0
BBX 58 57 5 0
BITMAP
3E00000000007FC0
7F00000000007FC0
FF80000000007FC0
FFC0000000007FC0
FFE0000000007FC0
FFF8000000007FC0
FFFC000000007FC0
FFFE000000007FC0
FFFF000000007FC0
FFFF800000007FC0
FFFFC00000007FC0
FFFFE00000007FC0
FFFFF00000007FC0
FFFFF80000007FC0
FFFFFC0000007FC0
FFFFFE0000007FC0
FFBFFF0000007FC0
FF9FFF8000007FC0
FF8FFFC000007FC0
FF87FFE000007FC0
FF83FFF000007FC0
FF81FFF800007FC0
FF80FFFC00007FC0
FF807FFE00007FC0
FF803FFF00007FC0
FF801FFF80007FC0
FF800FFFC0007FC0
FF8007FFE0007FC0
FF8003FFF0007FC0
FF8001FFF8007FC0
FF8000FFFC007FC0
FF80007FFE007FC0
FF80003FFF007FC0
FF80001FFF807FC0
FF80000FFFC07FC0
FF800007FFE07FC0
FF800003FFF07FC0
FF800001FFF87FC0
FF800000FFFC7FC0
FF8000007FFE7FC0
FF8000003FFF7FC0
FF8000001FFFFFC0
FF8000000FFFFFC0
FF80000007FFFFC0
FF80000003FFFFC0
FF80000001FFFFC0
FF80000000FFFFC0
FF800000007FFFC0
FF800000003FFFC0
FF800000001FFFC0
FF800000000FFFC0
FF8000000007FFC0
FF8000000003FFC0
FF8000000001FFC0
FF8000000000FFC0
FF80000000003F80
FF80000000001F00
ENDCHAR
STARTCHAR O
ENCODING 79
SWIDTH 968 0
DWIDTH 76 0
BBX 69 57 3 0
BITMAP
000003FFFFFF000000
00003FFFFFFFE00000
0000FFFFFFFFFC0000
0003FFFFFFFFFF0000
000FFFFFFFFFFFC000
001FFFFFFFFFFFE000
007FFFFFFFFFFFF000
00FFFFFFFFFFFFF800
01FFFFFFFFFFFFFC00
03FFFFFFFFFFFFFE00
03FFFE000003FFFF00
07FFF00000007FFF80
0FFFC00000001FFF80
0FFF8000000007FFC0
1FFF0000000003FFC0
1FFE0000000001FFE0
3FFC0000000000FFE0
3FF80000000000FFF0
3FF800000000007FF0
7FF000000000007FF0
7FF000000000003FF8
7FE000000000003FF8
7FE000000000001FF8
7FE000000000001FF8
FFE000000000001FF8
FFC000000000001FF8
FFC000000000001FF8
FFC000000000001FF8
FFC000000000001FF8
FFC000000000001FF8
FFC000000000001FF8
FFC000000000001FF8
7FE000000000001FF8
7FE000000000001FF8
7FE000000000001FF8
7FE000000000003FF8
7FF000000000003FF0
3FF000000000007FF0
3FF800000000007FF0
3FF80000000000FFE0
1FFC0000000000FFE0
1FFE0000000001FFC0
0FFF0000000003FFC0
0FFF800000000FFF80
07FFE00000001FFF80
03FFF00000007FFF00
03FFFE000003FFFE00
01FFFFFFFFFFFFFE00
00FFFFFFFFFFFFFC00
007FFFFFFFFFFFF800
003FFFFFFFFFFFF000
001FFFFFFFFFFFC000
0007FFFFFFFFFF8000
0003FFFFFFFFFE0000
0000FFFFFFFFF80000
00001FFFFFFFE00000
000003FFFFFE000000
ENDCHAR
STARTCHAR P
ENCODING 80
SWIDTH 867 0
DWIDTH 68 0
BBX 61 57 5 0
BITMAP
FFFFFFFFFFF80000
FFFFFFFFFFFF8000
FFFFFFFFFFFFE000
FFFFFFFFFFFFF800
FFFFFFFFFFFFFC00
FFFFFFFFFFFFFE00
FFFFFFFFFFFFFF00
FFFFFFFFFFFFFF80
FFFFFFFFFFFFFF80
FFFFFFFFFFFFFFC0
FFC00000000FFFE0
FFC000000003FFE0
FFC000000000FFE0
FFC0000000007FF0
FFC0000000007FF0
FFC0000000003FF0
FFC0000000003FF0
FFC0000000001FF0
FFC0000000001FF0
FFC0000000001FF0
FFC0000000001FF8
FFC0000000001FF0
FFC0000000001FF0
FFC0000000003FF0
FFC0000000003FF0
FFC0000000003FF0
FFC0000000007FF0
FFC000000000FFE0
FFC000000000FFE0
FFC000000003FFE0
FFC00000000FFFC0
FFC07FFFFFFFFFC0
FFC07FFFFFFFFF80
FFC07FFFFFFFFF80
FFC07FFFFFFFFF00
FFC07FFFFFFFFE00
FFC07FFFFFFFFC00
FFC07FFFFFFFF000
FFC07FFFFFFFE000
FFC07FFFFFFF8000
FFC07FFFFFF80000
FFC0000000000000
FFC0000000000000
FFC0000000000000
FFC0000000000000
FFC0000000000000
FFC0000000000000
FFC0000000000000
FFC0000000000000
FFC0000000000000
FFC0000000000000
FFC0000000000000
FFC0000000000000
FFC0000000000000
FFC0000000000000
FFC0000000000000
FFC0000000000000
ENDCHAR
STARTCHAR Q
ENCODING 81
SWIDTH 968 0
DWIDTH 76 0
BBX 72 57 3 0
BITMAP
000003FFFFFF000000
00003FFFFFFFE00000
0000FFFFFFFFFC0000
0003FFFFFFFFFF0000
000FFFFFFFFFFFC000
001FFFFFFFFFFFE000
007FFFFFFFFFFFF000
00FFFFFFFFFFFFF800
01FFFFFFFFFFFFFC00
03FFFFFFFFFFFFFE00
03FFFE000003FFFF00
07FFF00000007FFF80
0FFFC00000001FFF80
0FFF8000000007FFC0
1FFF0000000003FFC0
1FFE0000000001FFE0
3FFC0000000000FFE0
3FF80000000000FFF0
3FF800000000007FF0
7FF000000000007FF0
7FF000000000003FF8
7FE000000000003FF8
7FE000000000001FF8
7FE000000000001FF8
FFE000000000001FF8
FFC000000000001FF8
FFC000000000001FF8
FFC000000000001FF8
FFC000000000001FF8
FFC000000000001FF8
FFC000000000001FF8
FFC000000000001FF8
7FE000000000001FF8
7FE00003FFE0001FF8
7FE00001FFF0001FF8
7FE000007FFC003FF8
7FF000003FFE003FF0
3FF000001FFF007FF0
3FF800000FFF807FF0
3FF8000003FFC0FFE0
1FFC000001FFF1FFE0
1FFE000000FFF9FFC0
0FFF0000003FFFFFC0
0FFF8000001FFFFF80
07FFE000000FFFFF80
03FFF0000007FFFF00
03FFFE000003FFFE00
01FFFFFFFFFFFFFE00
00FFFFFFFFFFFFFC00
007FFFFFFFFFFFFE00
003FFFFFFFFFFFFF00
001FFFFFFFFFFFFF80
0007FFFFFFFFFFFFC0
0003FFFFFFFFFFFFF0
0000FFFFFFFFF8FFF8
00001FFFFFFFE07FFC
000003FFFFFE003FFF
ENDCHAR
STARTCHAR R
ENCODING 82
SWIDTH 921 0
DWIDTH 72 0
BBX 67 57 5 0
BITMAP
FFFFFFFFFFFC000000
FFFFFFFFFFFF800000
FFFFFFFFFFFFF00000
FFFFFFFFFFFFF80000
FFFFFFFFFFFFFE0000
FFFFFFFFFFFFFF0000
FFFFFFFFFFFFFF8000
FFFFFFFFFFFFFF8000
FFFFFFFFFFFFFFC000
FFFFFFFFFFFFFFE000
FFC000000007FFE000
FFC000000001FFF000
FFC000000000FFF000
FFC0000000007FF000
FFC0000000003FF800
FFC0000000001FF800
FFC0000000001FF800
FFC0000000001FF800
FFC0000000001FF800
FFC0000000001FF800
FFC0000000001FF800
FFC0000000001FF800
FFC0000000001FF800
FFC0000000001FF800
FFC0000000001FF800
FFC0000000001FF800
FFC0000000003FF800
FFC0000000003FF000
FFC0000000007FF000
FFC000000000FFF000
FFC000000001FFE000
FFC000000007FFE000
FFC07FFFFFFFFFC000
FFC07FFFFFFFFF8000
FFC07FFFFFFFFF8000
FFC07FFFFFFFFF0000
FFC07FFFFFFFFE0000
FFC07FFFFFFFF80000
FFC07FFFFFFFF00000
FFC07FFFFFFFC00000
FFC07FFFFFFFE00000
FFC0000001FFE00000
FFC0000000FFF00000
FFC0000000FFF80000
FFC00000007FFC0000
FFC00000003FFE0000
FFC00000001FFF0000
FFC00000000FFF8000
FFC000000007FFC000
FFC000000003FFE000
FFC000000001FFF000
FFC000000000FFF800
FFC0000000007FFC00
FFC0000000007FFE00
FFC0000000003FFF00
FFC0000000001FFF80
FFC0000000000FFFE0
ENDCHAR
STARTCHAR S
ENCODING 83
SWIDTH 880 0
DWIDTH 69 0
BBX 61 57 4 0
BITMAP
0007FFFFFFFFFFC0
007FFFFFFFFFFFC0
01FFFFFFFFFFFFC0
03FFFFFFFFFFFFC0
07FFFFFFFFFFFFC0
0FFFFFFFFFFFFFC0
1FFFFFFFFFFFFFC0
3FFFFFFFFFFFFFC0
3FFFFFFFFFFFFFC0
7FFFFFFFFFFFFFC0
7FFC000000000000
7FF8000000000000
FFF0000000000000
FFE0000000000000
FFE0000000000000
FFC0000000000000
FFC0000000000000
FFC0000000000000
FFC0000000000000
FFE0000000000000
7FE0000000000000
7FF0000000000000
7FF8000000000000
3FFC000000000000
3FFFFFFFFFFF8000
1FFFFFFFFFFFF000
0FFFFFFFFFFFFC00
07FFFFFFFFFFFF00
03FFFFFFFFFFFF80
01FFFFFFFFFFFFC0
007FFFFFFFFFFFE0
0007FFFFFFFFFFE0
000000000001FFF0
0000000000007FF0
0000000000003FF0
0000000000001FF8
0000000000001FF8
0000000000001FF8
0000000000000FF8
0000000000000FF8
0000000000000FF8
0000000000001FF8
0000000000001FF8
0000000000001FF8
0000000000003FF8
0000000000007FF0
000000000001FFF0
7FFFFFFFFFFFFFF0
7FFFFFFFFFFFFFE0
7FFFFFFFFFFFFFE0
7FFFFFFFFFFFFFC0
7FFFFFFFFFFFFF80
7FFFFFFFFFFFFF00
7FFFFFFFFFFFFE00
7FFFFFFFFFFFFC00
7FFFFFFFFFFFF000
7FFFFFFFFFFF0000
ENDCHAR
STARTCHAR T
ENCODING 84
SWIDTH 720 0
DWIDTH 56 0
BBX 53 57 2 0
BITMAP
FFFFFFFFFFFFF8
FFFFFFFFFFFFF8
FFFFFFFFFFFFF8
FFFFFFFFFFFFF8
FFFFFFFFFFFFF8
FFFFFFFFFFFFF8
FFFFFFFFFFFFF8
FFFFFFFFFFFFF8
FFFFFFFFFFFFF8
FFFFFFFFFFFFF8
000007FE000000
000007FE000000
000007FE000000
000007FE000000
000007FE000000
000007FE000000
000007FE000000
000007FE000000
000007FE000000
000007FE000000
000007FE000000
000007FE000000
000007FE000000
000007FE000000
000007FE000000
000007FE000000
000007FE000000
000007FE000000
000007FE000000
000007FE000000
000007FE000000
000007FE000000
000007FE000000
000007FE000000
000007FE000000
000007FE000000
000007FE000000
000007FE000000
000007FE000000
000007FE000000
000007FE000000
000007FE000000
000007FE000000
000007FE000000
000007FE000000
000007FE000000
000007FE000000
000007FE000000
000007FE000000
000007FE000000
000007FE000000
000007FE000000
000007FE000000
000007FE000000
000007FE000000
000007FE000000
000007FE000000
ENDCHAR
STARTCHAR U
ENCODING 85
SWIDTH 889 0
DWIDTH 69 0
BBX 61 58 4 -1
BITMAP
FFC0000000000FF8
FFC0000000000FF8
FFC0000000000FF8
FFC0000000000FF8
FFC0000000000FF8
FFC0000000000FF8
FFC0000000000FF8
FFC0000000000FF8
FFC0000000000FF8
FFC0000000000FF8
FFC0000000000FF8
FFC0000000000FF8
FFC0000000000FF8
FFC0000000000FF8
FFC0000000000FF8
FFC0000000000FF8
FFC0000000000FF8
FFC0000000000FF8
FFC0000000000FF8
FFC0000000000FF8
FFC0000000000FF8
FFC0000000000FF8
FFC0000000000FF8
FFC0000000000FF8
FFC0000000000FF8
FFC0000000000FF8
FFC0000000000FF8
FFC0000000000FF8
FFC0000000000FF8
FFC0000000000FF8
FFC0000000000FF8
FFC0000000000FF8
FFC0000000000FF8
FFC0000000001FF8
FFC0000000001FF8
FFC0000000001FF8
FFE0000000001FF8
FFE0000000001FF8
7FE0000000001FF8
7FE0000000003FF8
7FF0000000003FF0
7FF0000000007FF0
7FF8000000007FF0
3FFC00000000FFF0
3FFE00000001FFE0
1FFF80000007FFE0
1FFFE000001FFFC0
0FFFFE0001FFFFC0
0FFFFFFFFFFFFF80
07FFFFFFFFFFFF00
03FFFFFFFFFFFE00
01FFFFFFFFFFFC00
00FFFFFFFFFFF800
003FFFFFFFFFF000
000FFFFFFFFFC000
0003FFFFFFFF0000
00007FFFFFF00000
000001FFFE000000
ENDCHAR
STARTCHAR V
ENCODING 86
SWIDTH 989 0
DWIDTH 77 0
BBX 75 58 1 -1
BITMAP
FFF0000000000001FFE0
7FF8000000000001FFC0
3FFC000000000003FF80
3FFC000000000003FF80
1FFE000000000007FF00
1FFE00000000000FFF00
0FFF00000000000FFE00
07FF80000000001FFE00
07FF80000000001FFC00
03FFC0000000003FF800
03FFC0000000007FF800
01FFE0000000007FF000
00FFE000000000FFF000
00FFF000000000FFE000
007FF800000001FFC000
007FF800000001FFC000
003FFC00000003FF8000
001FFC00000007FF8000
001FFE00000007FF0000
000FFF0000000FFE0000
000FFF0000000FFE0000
0007FF8000001FFC0000
0007FF8000003FFC0000
0003FFC000003FF80000
0001FFC000007FF00000
0001FFE000007FF00000
0000FFF00000FFE00000
0000FFF00000FFE00000
00007FF80001FFC00000
00003FF80003FF800000
00003FFC0003FF800000
00001FFE0007FF000000
00001FFE0007FF000000
00000FFF000FFE000000
000007FF001FFC000000
000007FF801FFC000000
000003FF803FF8000000
000003FFC03FF8000000
000001FFE07FF0000000
000000FFE07FE0000000
000000FFF0FFE0000000
0000007FF1FFC0000000
0000007FF9FFC0000000
0000003FFFFF80000000
0000001FFFFF00000000
0000001FFFFF00000000
0000000FFFFE00000000
0000000FFFFE00000000
00000007FFFC00000000
00000003FFF800000000
00000003FFF800000000
00000001FFF000000000
00000001FFF000000000
00000000FFE000000000
000000007FC000000000
000000007FC000000000
000000003F8000000000
000000001F0000000000
ENDCHAR
STARTCHAR W
ENCODING 87
SWIDTH 1268 0
DWIDTH 99 0
BBX 97 58 1 -1
BITMAP
FFF00007FF800000000007FF80
7FF80007FF800000000007FF00
7FF80003FFC0000000000FFE00
3FFC0001FFC0000000000FFE00
1FFC0001FFE0000000001FFC00
1FFE0000FFE0000000001FFC00
0FFE0000FFF0000000003FF800
0FFF00007FF0000000003FF800
07FF00007FF8000000007FF000
07FF80003FF8000000007FF000
03FF80003FFC00000000FFE000
03FFC0001FFC00000000FFE000
01FFC0001FFE00000001FFC000
01FFE0000FFE00000001FFC000
00FFF0000FFF00000003FF8000
00FFF00007FF00000003FF0000
007FF80007FF80000007FF0000
007FF80003FF8000000FFE0000
003FFC0003FFC000000FFE0000
001FFC0001FFC000001FFC0000
001FFE0001FFE000001FFC0000
000FFE0000FFE000003FF80000
000FFF0000FFF000003FF80000
0007FF00007FF000007FF00000
0007FF80007FF800007FF00000
0003FF80003FF80000FFE00000
0003FFC0003FFC0000FFE00000
0001FFC0001FFC0001FFC00000
0001FFE0001FFE0001FFC00000
0000FFE0001FFE0003FF800000
0000FFF0003FFF0003FF000000
00007FF0003FFF0007FF000000
00007FF8007FFF8007FE000000
00003FF8007FFF800FFE000000
00001FFC00FFFFC00FFC000000
00001FFC00FFFFC01FFC000000
00000FFE01FFFFE03FF8000000
00000FFE03FFFFE03FF8000000
000007FF03FF7FF07FF0000000
000007FF87FF7FF07FF0000000
000003FF87FE3FF8FFE0000000
000003FFCFFE3FF8FFE0000000
000001FFCFFC1FFDFFC0000000
000001FFFFFC1FFDFF80000000
000000FFFFF80FFFFF80000000
000000FFFFF80FFFFF00000000
0000007FFFF007FFFF00000000
0000007FFFF007FFFE00000000
0000003FFFE003FFFE00000000
0000001FFFC003FFFC00000000
0000001FFFC001FFFC00000000
0000000FFF8001FFF800000000
0000000FFF8000FFF800000000
00000007FF0000FFF000000000
00000007FF00007FF000000000
00000003FE00003FE000000000
00000001FC00003FC000000000
00000000F800000F8000000000
ENDCHAR
STARTCHAR X
ENCODING 88
SWIDTH 1000 0
DWIDTH 78 0
BBX 74 57 2 0
BITMAP
3FFF00000000003FFE00
1FFF80000000007FFC00
0FFFC000000000FFF800
03FFE000000001FFF000
01FFF000000003FFE000
00FFF800000007FFC000
007FFC0000000FFF8000
003FFE0000001FFF0000
001FFF0000003FFE0000
000FFF8000007FFC0000
0007FFC00000FFF00000
0003FFE00001FFE00000
0001FFF00003FFC00000
0000FFF80007FF800000
00007FFC000FFF000000
00003FFE001FFE000000
00001FFF003FFC000000
00000FFF807FF8000000
000007FFC0FFF0000000
000003FFF1FFE0000000
000001FFFBFFC0000000
000000FFFFFF80000000
0000007FFFFF00000000
0000003FFFFE00000000
0000001FFFFC00000000
0000000FFFF800000000
00000007FFF000000000
00000003FFE000000000
00000007FFF000000000
0000000FFFF800000000
0000001FFFFC00000000
0000003FFFFE00000000
0000007FFFFF00000000
000000FFFFFF80000000
000001FFE7FFC0000000
000003FFC3FFF0000000
000007FF81FFF8000000
00000FFF00FFFC000000
00001FFE007FFE000000
00003FFC003FFF000000
00007FF8001FFF800000
0000FFF0000FFFC00000
0001FFE00007FFE00000
0003FFC00003FFF00000
0007FF800001FFF80000
000FFF000000FFFC0000
003FFE0000007FFE0000
007FFC0000003FFF0000
00FFF80000001FFF8000
01FFF00000000FFFC000
03FFE000000007FFE000
07FFC000000003FFF000
0FFF8000000001FFF800
1FFF0000000000FFFC00
3FFE00000000007FFE00
7FFC00000000003FFF00
FFF800000000001FFFC0
ENDCHAR
STARTCHAR Y
ENCODING 89
SWIDTH 926 0
DWIDTH 72 0
BBX 70 57 1 0
BITMAP
FFFC00000000007FFC
7FFE0000000000FFF8
3FFE0000000001FFF0
1FFF0000000001FFE0
0FFF8000000003FFC0
07FFC000000007FFC0
03FFE00000000FFF80
03FFF00000001FFF00
01FFF80000003FFE00
00FFF80000003FFC00
007FFC0000007FF800
003FFE000000FFF000
001FFF000001FFF000
001FFF800003FFE000
000FFFC00007FFC000
0007FFC0000FFF8000
0003FFE0000FFF0000
0001FFF0001FFE0000
0000FFF8003FFC0000
00007FFC007FFC0000
00007FFE00FFF80000
00003FFE01FFF00000
00001FFF01FFE00000
00000FFF83FFC00000
000007FFC7FF800000
000003FFEFFF000000
000001FFFFFF000000
000001FFFFFE000000
000000FFFFFC000000
0000007FFFF8000000
0000003FFFF0000000
0000001FFFE0000000
0000000FFFC0000000
00000007FFC0000000
00000007FF80000000
00000003FF00000000
00000003FF00000000
00000003FF00000000
00000003FF00000000
00000003FF00000000
00000003FF00000000
00000003FF00000000
00000003FF00000000
00000003FF00000000
00000003FF00000000
00000003FF00000000
00000003FF00000000
00000003FF00000000
00000003FF00000000
00000003FF00000000
00000003FF00000000
00000003FF00000000
00000003FF00000000
00000003FF00000000
00000003FF00000000
00000003FF00000000
00000003FF00000000
ENDCHAR
STARTCHAR Z
ENCODING 90
SWIDTH 802 0
DWIDTH 63 0
BBX 56 57 3 0
BITMAP
7FFFFFFFFFFFF8
7FFFFFFFFFFFFE
7FFFFFFFFFFFFE
7FFFFFFFFFFFFF
7FFFFFFFFFFFFF
7FFFFFFFFFFFFF
7FFFFFFFFFFFFF
7FFFFFFFFFFFFE
7FFFFFFFFFFFFE
7FFFFFFFFFFFFC
0000000001FFF8
0000000003FFF0
0000000007FFE0
000000000FFFC0
000000001FFF80
000000003FFF00
000000007FFE00
00000000FFFC00
00000001FFF800
00000003FFF000
00000007FFE000
0000000FFFC000
0000001FFF8000
0000003FFF0000
0000007FFE0000
000000FFFC0000
000001FFF80000
000003FFF00000
000007FFE00000
00000FFFC00000
00001FFF800000
00003FFF000000
00007FFE000000
0000FFFC000000
0001FFF8000000
0003FFF0000000
0007FFE0000000
000FFFC0000000
001FFF80000000
003FFF00000000
007FFE00000000
00FFFC00000000
01FFF800000000
03FFF000000000
07FFE000000000
0FFFC000000000
1FFF8000000000
3FFFFFFFFFFFFF
7FFFFFFFFFFFFF
7FFFFFFFFFFFFF
FFFFFFFFFFFFFF
FFFFFFFFFFFFFF
FFFFFFFFFFFFFF
FFFFFFFFFFFFFF
7FFFFFFFFFFFFF
3FFFFFFFFFFFFF
1FFFFFFFFFFFFF
ENDCHAR
STARTCHAR bracketleft
ENCODING 91
SWIDTH 333 0
DWIDTH 26 0
BBX 13 72 8 -7
BITMAP
FFF8
FFF8
FFF8
FFF8
FFF8
FFF8
FFF8
FC00
FC00
FC00
FC00
FC00
FC00
FC00
FC00
FC00
FC00
FC00
FC00
FC00
FC00
FC00
FC00
FC00
FC00
FC00
FC00
FC00
FC00
FC00
FC00
FC00
FC00
FC00
FC00
FC00
FC00
FC00
FC00
FC00
FC00
FC00
FC00
FC00
FC00
FC00
FC00
FC00
FC00
FC00
FC00
FC00
FC00
FC00
FC00
FC00
FC00
FC00
FC00
FC00
FC00
FC00
FC00
FC00
FC00
FC00
FFF8
FFF8
FFF8
FFF8
FFF8
FFF8
ENDCHAR
STARTCHAR backslash
ENCODING 92
SWIDTH 445 0
DWIDTH 35 0
BBX 33 57 1 0
BITMAP
FE00000000
FE00000000
7E00000000
7F00000000
3F00000000
3F80000000
1F80000000
1FC0000000
0FC0000000
0FE0000000
07E0000000
07F0000000
03F0000000
03F8000000
03F8000000
01FC000000
01FC000000
00FE000000
00FE000000
007E000000
007F000000
003F000000
003F800000
001F800000
001FC00000
000FC00000
000FE00000
000FE00000
0007F00000
0007F00000
0003F80000
0003F80000
0001FC0000
0001FC0000
0000FC0000
0000FE0000
00007E0000
00007F0000
00003F0000
00003F8000
00003F8000
00001FC000
00001FC000
00000FE000
00000FE000
000007F000
000007F000
000003F800
000003F800
000001F800
000001FC00
000000FC00
000000FE00
000000FE00
0000007F00
0000007F00
0000003F80
ENDCHAR
STARTCHAR bracketright
ENCODING 93
SWIDTH 333 0
DWIDTH 26 0
BBX 13 72 5 -7
BITMAP
FFF8
FFF8
FFF8
FFF8
FFF8
FFF8
FFF8
01F8
01F8
01F8
01F8
01F8
01F8
01F8
01F8
01F8
01F8
01F8
01F8
01F8
01F8
01F8
01F8
01F8
01F8
01F8
01F8
01F8
01F8
01F8
01F8
01F8
01F8
01F8
01F8
01F8
01F8
01F8
01F8
01F8
01F8
01F8
01F8
01F8
01F8
01F8
01F8
01F8
01F8
01F8
01F8
01F8
01F8
01F8
01F8
01F8
01F8
01F8
01F8
01F8
01F8
01F8
01F8
01F8
01F8
01F8
FFF8
FFF8
FFF8
FFF8
FFF8
FFF8
ENDCHAR
STARTCHAR asciicircum
ENCODING 94
SWIDTH 559 0
DWIDTH 44 0
BBX 34 34 5 23
BITMAP
0001E00000
0003F00000
0007F80000
0007F80000
000FF80000
000FFC0000
000FFC0000
001FFE0000
001FFE0000
003F7E0000
003F3F0000
007F3F0000
007E3F8000
007E1F8000
00FC1FC000
00FC0FC000
01FC0FC000
01F80FE000
03F807E000
03F007F000
03F003F000
07F003F000
07E003F800
0FE001F800
0FC001FC00
0FC000FC00
1FC000FE00
1F8000FE00
3F80007E00
3F00007F00
7F00003F00
7F00003F80
7E00003F80
FE00001FC0
ENDCHAR
STARTCHAR underscore
ENCODING 95
SWIDTH 668 0
DWIDTH 52 0
BBX 53 5 0 -13
BITMAP
FFFFFFFFFFFFF8
FFFFFFFFFFFFF8
FFFFFFFFFFFFF8
FFFFFFFFFFFFF8
FFFFFFFFFFFFF8
ENDCHAR
STARTCHAR grave
ENCODING 96
SWIDTH 362 0
DWIDTH 28 0
BBX 20 10 4 61
BITMAP
C00000
F80000
FF8000
FFF000
FFFE00
FFFFE0
3FFFF0
03FFF0
001FF0
0000F0
ENDCHAR
STARTCHAR a
ENCODING 97
SWIDTH 989 0
DWIDTH 77 0
BBX 75 58 1 0
BITMAP
000000001F0000000000
000000003F8000000000
000000007FC000000000
000000007FC000000000
00000000FFE000000000
00000001FFF000000000
00000001FFF000000000
00000003FFF800000000
00000003FFF800000000
00000007FFFC00000000
0000000FFFFE00000000
0000000FFFFE00000000
0000001FFFFF00000000
0000001FFFFF00000000
0000003FFFFF80000000
0000007FF3FFC0000000
0000007FF3FFC0000000
000000FFE1FFE0000000
000000FFE0FFE0000000
000001FFC0FFF0000000
000003FFC07FF8000000
000003FF807FF8000000
000007FF003FFC000000
000007FF003FFC000000
00000FFE001FFE000000
00001FFE000FFF000000
00001FFC000FFF000000
00003FF80007FF800000
00003FF80007FF800000
00007FF00003FFC00000
0000FFF00001FFE00000
0000FFE00001FFE00000
0001FFC00000FFF00000
0001FFC00000FFF00000
0003FF8000007FF80000
0007FF8000007FFC0000
0007FF00FFFFFFFC0000
000FFF00FFFFFFFE0000
000FFE01FFFFFFFE0000
001FFC03FFFFFFFF0000
003FFC03FFFFFFFF8000
003FF807FFFFFFFF8000
007FF807FFFFFFFFC000
007FF00FFFFFFFFFC000
00FFE000000001FFE000
00FFE000000001FFF000
01FFC000000000FFF000
03FFC0000000007FF800
03FF80000000007FF800
07FF00000000003FFC00
07FF00000000003FFE00
0FFE00000000001FFE00
1FFE00000000000FFF00
1FFC00000000000FFF00
3FF8000000000007FF80
3FF8000000000003FF80
7FF0000000000003FFC0
FFF0000000000001FFE0
ENDCHAR
STARTCHAR b
ENCODING 98
SWIDTH 891 0
DWIDTH 70 0
BBX 61 57 5 0
BITMAP
FFFFFFFFFFFE0000
FFFFFFFFFFFFE000
FFFFFFFFFFFFF800
FFFFFFFFFFFFFC00
FFFFFFFFFFFFFF00
FFFFFFFFFFFFFF80
FFFFFFFFFFFFFF80
FFFFFFFFFFFFFFC0
FFFFFFFFFFFFFFC0
FFFFFFFFFFFFFFE0
FFC00000000FFFE0
FFC000000001FFE0
FFC000000000FFF0
FFC0000000007FF0
FFC0000000007FF0
FFC0000000003FF0
FFC0000000003FF0
FFC0000000003FF0
FFC0000000003FE0
FFC0000000007FE0
FFC0000000007FE0
FFC0000000007FC0
FFC000000000FFC0
FFC000000007FF80
FFC07FFFFFFFFF00
FFC07FFFFFFFFE00
FFC07FFFFFFFF800
FFC07FFFFFFFF800
FFC07FFFFFFFFE00
FFC07FFFFFFFFF00
FFC07FFFFFFFFF80
FFC07FFFFFFFFFC0
FFC000000003FFE0
FFC000000000FFE0
FFC0000000007FF0
FFC0000000003FF0
FFC0000000003FF0
FFC0000000003FF8
FFC0000000001FF8
FFC0000000001FF8
FFC0000000001FF8
FFC0000000003FF8
FFC0000000003FF8
FFC0000000007FF0
FFC000000000FFF0
FFC000000001FFF0
FFC00000000FFFF0
FFFFFFFFFFFFFFE0
FFFFFFFFFFFFFFE0
FFFFFFFFFFFFFFC0
FFFFFFFFFFFFFF80
FFFFFFFFFFFFFF80
FFFFFFFFFFFFFF00
FFFFFFFFFFFFFC00
FFFFFFFFFFFFF800
FFFFFFFFFFFFE000
FFFFFFFFFFFE0000
ENDCHAR
STARTCHAR c
ENCODING 99
SWIDTH 829 0
DWIDTH 65 0
BBX 59 57 3 0
BITMAP
000003FFFFFFFFE0
00003FFFFFFFFFE0
0000FFFFFFFFFFE0
0003FFFFFFFFFFE0
000FFFFFFFFFFFE0
001FFFFFFFFFFFE0
007FFFFFFFFFFFE0
00FFFFFFFFFFFFE0
01FFFFFFFFFFFFE0
03FFFFFFFFFFFFE0
03FFFE0000000000
07FFF00000000000
0FFFC00000000000
0FFF800000000000
1FFF000000000000
1FFE000000000000
3FFC000000000000
3FF8000000000000
3FF8000000000000
7FF0000000000000
7FF0000000000000
7FE0000000000000
7FE0000000000000
7FE0000000000000
FFE0000000000000
FFC0000000000000
FFC0000000000000
FFC0000000000000
FFC0000000000000
FFC0000000000000
FFC0000000000000
FFC0000000000000
7FE0000000000000
7FE0000000000000
7FE0000000000000
7FE0000000000000
7FF0000000000000
3FF0000000000000
3FF8000000000000
3FF8000000000000
1FFC000000000000
1FFE000000000000
0FFF000000000000
0FFF800000000000
07FFE00000000000
03FFF00000000000
03FFFE0000000000
01FFFFFFFFFFFFE0
00FFFFFFFFFFFFE0
007FFFFFFFFFFFE0
003FFFFFFFFFFFE0
001FFFFFFFFFFFE0
0007FFFFFFFFFFE0
0003FFFFFFFFFFE0
0000FFFFFFFFFFE0
00001FFFFFFFFFE0
000003FFFFFFFFE0
ENDCHAR
STARTCHAR d
ENCODING 100
SWIDTH 879 0
DWIDTH 69 0
BBX 60 57 5 0
BITMAP
FFFFFFFFFE000000
FFFFFFFFFFC00000
FFFFFFFFFFF80000
FFFFFFFFFFFE0000
FFFFFFFFFFFF8000
FFFFFFFFFFFFC000
FFFFFFFFFFFFE000
FFFFFFFFFFFFF000
FFFFFFFFFFFFF800
FFFFFFFFFFFFFC00
FFC0000007FFFE00
FFC0000000FFFF00
FFC00000003FFF00
FFC00000000FFF80
FFC000000007FF80
FFC000000003FFC0
FFC000000001FFC0
FFC000000001FFE0
FFC000000000FFE0
FFC000000000FFE0
FFC0000000007FF0
FFC0000000007FF0
FFC0000000003FF0
FFC0000000003FF0
FFC0000000003FF0
FFC0000000003FF0
FFC0000000003FF0
FFC0000000003FF0
FFC0000000003FF0
FFC0000000003FF0
FFC0000000003FF0
FFC0000000003FF0
FFC0000000003FF0
FFC0000000003FF0
FFC0000000003FF0
FFC0000000007FF0
FFC0000000007FE0
FFC000000000FFE0
FFC000000000FFE0
FFC000000001FFC0
FFC000000003FFC0
FFC000000003FF80
FFC000000007FF80
FFC00000001FFF00
FFC00000003FFF00
FFC0000000FFFE00
FFC0000007FFFC00
FFFFFFFFFFFFFC00
FFFFFFFFFFFFF800
FFFFFFFFFFFFF000
FFFFFFFFFFFFE000
FFFFFFFFFFFF8000
FFFFFFFFFFFF0000
FFFFFFFFFFFC0000
FFFFFFFFFFF00000
FFFFFFFFFFC00000
FFFFFFFFFC000000
ENDCHAR
STARTCHAR e
ENCODING 101
SWIDTH 759 0
DWIDTH 59 0
BBX 51 57 5 0
BITMAP
FFFFFFFFFFFFE0
FFFFFFFFFFFFE0
FFFFFFFFFFFFE0
FFFFFFFFFFFFE0
FFFFFFFFFFFFE0
FFFFFFFFFFFFE0
FFFFFFFFFFFFE0
FFFFFFFFFFFFE0
FFFFFFFFFFFFE0
FFFFFFFFFFFFE0
FFC00000000000
FFC00000000000
FFC00000000000
FFC00000000000
FFC00000000000
FFC00000000000
FFC00000000000
FFC00000000000
FFC00000000000
FFC00000000000
FFC00000000000
FFC00000000000
FFC00000000000
FFC00000000000
FFC07FFFFFFF00
FFC07FFFFFFF00
FFC07FFFFFFF00
FFC07FFFFFFF00
FFC07FFFFFFF00
FFC07FFFFFFF00
FFC07FFFFFFF00
FFC07FFFFFFF00
FFC00000000000
FFC00000000000
FFC00000000000
FFC00000000000
FFC00000000000
FFC00000000000
FFC00000000000
FFC00000000000
FFC00000000000
FFC00000000000
FFC00000000000
FFC00000000000
FFC00000000000
FFC00000000000
FFC00000000000
FFFFFFFFFFFFE0
FFFFFFFFFFFFE0
FFFFFFFFFFFFE0
FFFFFFFFFFFFE0
FFFFFFFFFFFFE0
FFFFFFFFFFFFE0
FFFFFFFFFFFFE0
FFFFFFFFFFFFE0
FFFFFFFFFFFFE0
FFFFFFFFFFFFE0
ENDCHAR
STARTCHAR f
ENCODING 102
SWIDTH 705 0
DWIDTH 55 0
BBX 48 57 5 0
BITMAP
FFFFFFFFFFFF
FFFFFFFFFFFF
FFFFFFFFFFFF
FFFFFFFFFFFF
FFFFFFFFFFFF
FFFFFFFFFFFF
FFFFFFFFFFFF
FFFFFFFFFFFF
FFFFFFFFFFFF
FFFFFFFFFFFF
FFC000000000
FFC000000000
FFC000000000
FFC000000000
FFC000000000
FFC000000000
FFC000000000
FFC000000000
FFC000000000
FFC000000000
FFC000000000
FFC000000000
FFC000000000
FFC000000000
FFC000000000
FFC07FFFFFFC
FFC07FFFFFFC
FFC07FFFFFFC
FFC07FFFFFFC
FFC07FFFFFFC
FFC07FFFFFFC
FFC07FFFFFFC
FFC07FFFFFFC
FFC07FFFFFFC
FFC000000000
FFC000000000
FFC000000000
FFC000000000
FFC000000000
FFC000000000
FFC000000000
FFC000000000
FFC000000000
FFC000000000
FFC000000000
FFC000000000
FFC000000000
FFC000000000
FFC000000000
FFC000000000
FFC000000000
FFC000000000
FFC000000000
FFC000000000
FFC000000000
FFC000000000
FFC000000000
ENDCHAR
STARTCHAR g
ENCODING 103
SWIDTH 888 0
DWIDTH 69 0
BBX 62 57 3 0
BITMAP
000003FFFFFFFFE0
00003FFFFFFFFFE0
0000FFFFFFFFFFE0
0003FFFFFFFFFFE0
000FFFFFFFFFFFE0
001FFFFFFFFFFFE0
007FFFFFFFFFFFE0
00FFFFFFFFFFFFE0
01FFFFFFFFFFFFE0
03FFFFFFFFFFFFE0
03FFFE0000000000
07FFF00000000000
0FFFC00000000000
0FFF800000000000
1FFF000000000000
1FFE000000000000
3FFC000000000000
3FF8000000000000
3FF8000000000000
7FF0000000000000
7FF0000000000000
7FE0000000000000
7FE0000000000000
7FE0000000000000
FFE0003FFFFFFFFC
FFC0003FFFFFFFFC
FFC0003FFFFFFFFC
FFC0003FFFFFFFFC
FFC0003FFFFFFFFC
FFC0003FFFFFFFFC
FFC0003FFFFFFFFC
FFC0003FFFFFFFFC
7FE0000000000FFC
7FE0000000000FFC
7FE0000000000FFC
7FE0000000000FFC
7FF0000000000FFC
3FF0000000000FFC
3FF8000000000FFC
3FF8000000000FFC
1FFC000000000FFC
1FFE000000000FFC
0FFF000000000FFC
0FFF800000000FFC
07FFE00000000FFC
03FFF00000000FFC
03FFFE0000000FFC
01FFFFFFFFFFFFFC
00FFFFFFFFFFFFFC
007FFFFFFFFFFFFC
003FFFFFFFFFFFFC
001FFFFFFFFFFFFC
0007FFFFFFFFFFFC
0003FFFFFFFFFFFC
0000FFFFFFFFFFFC
00001FFFFFFFFFFC
000003FFFFFFFFFC
ENDCHAR
STARTCHAR h
ENCODING 104
SWIDTH 838 0
DWIDTH 65 0
BBX 55 57 5 0
BITMAP
FFC000000003FE
FFC000000003FE
FFC000000003FE
FFC000000003FE
FFC000000003FE
FFC000000003FE
FFC000000003FE
FFC000000003FE
FFC000000003FE
FFC000000003FE
FFC000000003FE
FFC000000003FE
FFC000000003FE
FFC000000003FE
FFC000000003FE
FFC000000003FE
FFC000000003FE
FFC000000003FE
FFC000000003FE
FFC000000003FE
FFC000000003FE
FFC000000003FE
FFC000000003FE
FFC07FFFFFFFFE
FFC07FFFFFFFFE
FFC07FFFFFFFFE
FFC07FFFFFFFFE
FFC07FFFFFFFFE
FFC07FFFFFFFFE
FFC07FFFFFFFFE
FFC07FFFFFFFFE
FFC07FFFFFFFFE
FFC000000003FE
FFC000000003FE
FFC000000003FE
FFC000000003FE
FFC000000003FE
FFC000000003FE
FFC000000003FE
FFC000000003FE
FFC000000003FE
FFC000000003FE
FFC000000003FE
FFC000000003FE
FFC000000003FE
FFC000000003FE
FFC000000003FE
FFC000000003FE
FFC000000003FE
FFC000000003FE
FFC000000003FE
FFC000000003FE
FFC000000003FE
FFC000000003FE
FFC000000003FE
FFC000000003FE
FFC000000003FE
ENDCHAR
STARTCHAR i
ENCODING 105
SWIDTH 267 0
DWIDTH 21 0
BBX 10 57 5 0
BITMAP
FFC0
FFC0
FFC0
FFC0
FFC0
FFC0
FFC0
FFC0
FFC0
FFC0
FFC0
FFC0
FFC0
FFC0
FFC0
FFC0
FFC0
FFC0
FFC0
FFC0
FFC0
FFC0
FFC0
FFC0
FFC0
FFC0
FFC0
FFC0
FFC0
FFC0
FFC0
FFC0
FFC0
FFC0
FFC0
FFC0
FFC0
FFC0
FFC0
FFC0
FFC0
FFC0
FFC0
FFC0
FFC0
FFC0
FFC0
FFC0
FFC0
FFC0
FFC0
FFC0
FFC0
FFC0
FFC0
FFC0
FFC0
ENDCHAR
STARTCHAR j
ENCODING 106
SWIDTH 708 0
DWIDTH 55 0
BBX 49 57 2 0
BITMAP
0000000001FF80
0000000001FF80
0000000001FF80
0000000001FF80
0000000001FF80
0000000001FF80
0000000001FF80
0000000001FF80
0000000001FF80
0000000001FF80
0000000001FF80
0000000001FF80
0000000001FF80
0000000001FF80
0000000001FF80
0000000001FF80
0000000001FF80
0000000001FF80
0000000001FF80
0000000001FF80
0000000001FF80
0000000001FF80
0000000001FF80
0000000001FF80
0000000001FF80
0000000001FF80
0000000001FF80
0000000001FF80
0000000001FF80
0000000001FF80
0000000001FF80
0000000001FF80
0000000001FF80
0000000001FF80
0000000001FF80
0000000001FF80
0000000001FF80
0000000003FF80
0000000003FF80
0000000003FF00
0000000007FF00
000000000FFF00
000000000FFE00
000000001FFE00
000000007FFE00
00000001FFFC00
0000001FFFFC00
FFFFFFFFFFF800
FFFFFFFFFFF000
FFFFFFFFFFE000
FFFFFFFFFFC000
FFFFFFFFFF8000
FFFFFFFFFF0000
FFFFFFFFFC0000
FFFFFFFFF00000
FFFFFFFF800000
FFFFFFF0000000
ENDCHAR
STARTCHAR k
ENCODING 107
SWIDTH 875 0
DWIDTH 68 0
BBX 62 57 5 0
BITMAP
FFC000000007FFF8
FFC00000001FFFE0
FFC00000003FFF80
FFC00000007FFF00
FFC0000000FFFE00
FFC0000003FFF800
FFC0000007FFF000
FFC000000FFFE000
FFC000003FFF8000
FFC000007FFF0000
FFC00000FFFE0000
FFC00003FFF80000
FFC00007FFF00000
FFC0000FFFE00000
FFC0001FFF800000
FFC0007FFF000000
FFC000FFFE000000
FFC001FFF8000000
FFC007FFF0000000
FFC00FFFE0000000
FFC01FFF80000000
FFC03FFF00000000
FFC0FFFE00000000
FFC1FFF800000000
FFC3FFF000000000
FFC7FFE000000000
FFC7FF8000000000
FFC7FF0000000000
FFC7FF0000000000
FFC7FFC000000000
FFC7FFE000000000
FFC3FFF000000000
FFC0FFFC00000000
FFC07FFE00000000
FFC03FFF00000000
FFC01FFFC0000000
FFC007FFE0000000
FFC003FFF0000000
FFC001FFF8000000
FFC0007FFE000000
FFC0003FFF000000
FFC0001FFF800000
FFC0000FFFE00000
FFC00003FFF00000
FFC00001FFF80000
FFC00000FFFE0000
FFC000007FFF0000
FFC000001FFF8000
FFC000000FFFE000
FFC0000007FFF000
FFC0000003FFF800
FFC0000000FFFE00
FFC00000007FFF00
FFC00000003FFF80
FFC00000001FFFC0
FFC000000007FFF0
FFC000000003FFFC
ENDCHAR
STARTCHAR l
ENCODING 108
SWIDTH 707 0
DWIDTH 55 0
BBX 48 57 5 0
BITMAP
FFC000000000
FFC000000000
FFC000000000
FFC000000000
FFC000000000
FFC000000000
FFC000000000
FFC000000000
FFC000000000
FFC000000000
FFC000000000
FFC000000000
FFC000000000
FFC000000000
FFC000000000
FFC000000000
FFC000000000
FFC000000000
FFC000000000
FFC000000000
FFC000000000
FFC000000000
FFC000000000
FFC000000000
FFC000000000
FFC000000000
FFC000000000
FFC000000000
FFC000000000
FFC000000000
FFC000000000
FFC000000000
FFC000000000
FFC000000000
FFC000000000
FFC000000000
FFC000000000
FFC000000000
FFC000000000
FFC000000000
FFC000000000
FFC000000000
FFC000000000
FFC000000000
FFC000000000
FFC000000000
FFC000000000
FFFFFFFFFFFF
FFFFFFFFFFFF
FFFFFFFFFFFF
FFFFFFFFFFFF
FFFFFFFFFFFF
FFFFFFFFFFFF
FFFFFFFFFFFF
FFFFFFFFFFFF
FFFFFFFFFFFF
FFFFFFFFFFFF
ENDCHAR
STARTCHAR m
ENCODING 109
SWIDTH 1115 0
DWIDTH 87 0
BBX 83 58 2 -1
BITMAP
00007C0000000003C00000
0000FE000000000FF00000
0001FF000000000FF00000
0001FF000000001FF80000
0003FF800000001FF80000
0003FF800000003FF80000
0003FFC00000003FFC0000
0007FFC00000007FFC0000
0007FFE00000007FFC0000
0007FFE00000007FFC0000
0007FFF0000000FFFE0000
000FFFF0000000FFFE0000
000FFFF0000001FFFE0000
000FFFF8000001FFFE0000
000FFFF8000003FFFF0000
001FFFFC000003FFFF0000
001FFFFC000003FFFF0000
001FFFFE000007FFFF8000
003FF7FE000007FDFF8000
003FF7FE00000FFDFF8000
003FF3FF00000FF9FF8000
003FE3FF00001FF8FFC000
007FE1FF80001FF8FFC000
007FE1FF80003FF0FFC000
007FE1FFC0003FF07FC000
007FC0FFC0003FE07FE000
00FFC0FFE0007FE07FE000
00FFC07FE0007FC07FE000
00FF807FE000FFC03FF000
01FF803FF000FF803FF000
01FF803FF001FF803FF000
01FF801FF801FF803FF000
01FF001FF801FF001FF800
03FF001FFC03FF001FF800
03FF000FFC03FE001FF800
03FF000FFC07FE000FF800
03FE0007FE07FC000FFC00
07FE0007FE0FFC000FFC00
07FE0003FF0FFC000FFC00
07FC0003FF1FF80007FE00
0FFC0003FF9FF80007FE00
0FFC0001FF9FF00007FE00
0FFC0001FFFFF00003FE00
0FF80000FFFFE00003FF00
1FF80000FFFFE00003FF00
1FF800007FFFC00003FF00
1FF800007FFFC00001FF00
3FF000007FFFC00001FF80
3FF000003FFF800001FF80
3FF000003FFF800001FF80
3FE000001FFF000000FFC0
7FE000001FFF000000FFC0
7FE000000FFE000000FFC0
7FE000000FFE0000007FC0
7FC0000007FC0000007FE0
FFC0000007FC0000007FE0
FFC0000003F80000007FE0
0000000001F00000000000
ENDCHAR
STARTCHAR n
ENCODING 110
SWIDTH 873 0
DWIDTH 68 0
BBX 58 57 5 0
BITMAP
3E00000000007FC0
7F00000000007FC0
FF80000000007FC0
FFC0000000007FC0
FFE0000000007FC0
FFF8000000007FC0
FFFC000000007FC0
FFFE000000007FC0
FFFF000000007FC0
FFFF800000007FC0
FFFFC00000007FC0
FFFFE00000007FC0
FFFFF00000007FC0
FFFFF80000007FC0
FFFFFC0000007FC0
FFFFFE0000007FC0
FFBFFF0000007FC0
FF9FFF8000007FC0
FF8FFFC000007FC0
FF87FFE000007FC0
FF83FFF000007FC0
FF81FFF800007FC0
FF80FFFC00007FC0
FF807FFE00007FC0
FF803FFF00007FC0
FF801FFF80007FC0
FF800FFFC0007FC0
FF8007FFE0007FC0
FF8003FFF0007FC0
FF8001FFF8007FC0
FF8000FFFC007FC0
FF80007FFE007FC0
FF80003FFF007FC0
FF80001FFF807FC0
FF80000FFFC07FC0
FF800007FFE07FC0
FF800003FFF07FC0
FF800001FFF87FC0
FF800000FFFC7FC0
FF8000007FFE7FC0
FF8000003FFF7FC0
FF8000001FFFFFC0
FF8000000FFFFFC0
FF80000007FFFFC0
FF80000003FFFFC0
FF80000001FFFFC0
FF80000000FFFFC0
FF800000007FFFC0
FF800000003FFFC0
FF800000001FFFC0
FF800000000FFFC0
FF8000000007FFC0
FF8000000003FFC0
FF8000000001FFC0
FF8000000000FFC0
FF80000000003F80
FF80000000001F00
ENDCHAR
STARTCHAR o
ENCODING 111
SWIDTH 968 0
DWIDTH 76 0
BBX 69 57 3 0
BITMAP
000003FFFFFF000000
00003FFFFFFFE00000
0000FFFFFFFFFC0000
0003FFFFFFFFFF0000
000FFFFFFFFFFFC000
001FFFFFFFFFFFE000
007FFFFFFFFFFFF000
00FFFFFFFFFFFFF800
01FFFFFFFFFFFFFC00
03FFFFFFFFFFFFFE00
03FFFE000003FFFF00
07FFF00000007FFF80
0FFFC00000001FFF80
0FFF8000000007FFC0
1FFF0000000003FFC0
1FFE0000000001FFE0
3FFC0000000000FFE0
3FF80000000000FFF0
3FF800000000007FF0
7FF000000000007FF0
7FF000000000003FF8
7FE000000000003FF8
7FE000000000001FF8
7FE000000000001FF8
FFE000000000001FF8
FFC000000000001FF8
FFC000000000001FF8
FFC000000000001FF8
FFC000000000001FF8
FFC000000000001FF8
FFC000000000001FF8
FFC000000000001FF8
7FE000000000001FF8
7FE000000000001FF8
7FE000000000001FF8
7FE000000000003FF8
7FF000000000003FF0
3FF000000000007FF0
3FF800000000007FF0
3FF80000000000FFE0
1FFC0000000000FFE0
1FFE0000000001FFC0
0FFF0000000003FFC0
0FFF800000000FFF80
07FFE00000001FFF80
03FFF00000007FFF00
03FFFE000003FFFE00
01FFFFFFFFFFFFFE00
00FFFFFFFFFFFFFC00
007FFFFFFFFFFFF800
003FFFFFFFFFFFF000
001FFFFFFFFFFFC000
0007FFFFFFFFFF8000
0003FFFFFFFFFE0000
0000FFFFFFFFF80000
00001FFFFFFFE00000
000003FFFFFE000000
ENDCHAR
STARTCHAR p
ENCODING 112
SWIDTH 867 0
DWIDTH 68 0
BBX 61 57 5 0
BITMAP
FFFFFFFFFFF80000
FFFFFFFFFFFF8000
FFFFFFFFFFFFE000
FFFFFFFFFFFFF800
FFFFFFFFFFFFFC00
FFFFFFFFFFFFFE00
FFFFFFFFFFFFFF00
FFFFFFFFFFFFFF80
FFFFFFFFFFFFFF80
FFFFFFFFFFFFFFC0
FFC00000000FFFE0
FFC000000003FFE0
FFC000000000FFE0
FFC0000000007FF0
FFC0000000007FF0
FFC0000000003FF0
FFC0000000003FF0
FFC0000000001FF0
FFC0000000001FF0
FFC0000000001FF0
FFC0000000001FF8
FFC0000000001FF0
FFC0000000001FF0
FFC0000000003FF0
FFC0000000003FF0
FFC0000000003FF0
FFC0000000007FF0
FFC000000000FFE0
FFC000000000FFE0
FFC000000003FFE0
FFC00000000FFFC0
FFC07FFFFFFFFFC0
FFC07FFFFFFFFF80
FFC07FFFFFFFFF80
FFC07FFFFFFFFF00
FFC07FFFFFFFFE00
FFC07FFFFFFFFC00
FFC07FFFFFFFF000
FFC07FFFFFFFE000
FFC07FFFFFFF8000
FFC07FFFFFF80000
FFC0000000000000
FFC0000000000000
FFC0000000000000
FFC0000000000000
FFC0000000000000
FFC0000000000000
FFC0000000000000
FFC0000000000000
FFC0000000000000
FFC0000000000000
FFC0000000000000
FFC0000000000000
FFC0000000000000
FFC0000000000000
FFC0000000000000
FFC0000000000000
ENDCHAR
STARTCHAR q
ENCODING 113
SWIDTH 968 0
DWIDTH 76 0
BBX 72 57 3 0
BITMAP
000003FFFFFF000000
00003FFFFFFFE00000
0000FFFFFFFFFC0000
0003FFFFFFFFFF0000
000FFFFFFFFFFFC000
001FFFFFFFFFFFE000
007FFFFFFFFFFFF000
00FFFFFFFFFFFFF800
01FFFFFFFFFFFFFC00
03FFFFFFFFFFFFFE00
03FFFE000003FFFF00
07FFF00000007FFF80
0FFFC00000001FFF80
0FFF8000000007FFC0
1FFF0000000003FFC0
1FFE0000000001FFE0
3FFC0000000000FFE0
3FF80000000000FFF0
3FF800000000007FF0
7FF000000000007FF0
7FF000000000003FF8
7FE000000000003FF8
7FE000000000001FF8
7FE000000000001FF8
FFE000000000001FF8
FFC000000000001FF8
FFC000000000001FF8
FFC000000000001FF8
FFC000000000001FF8
FFC000000000001FF8
FFC000000000001FF8
FFC000000000001FF8
7FE000000000001FF8
7FE00003FFE0001FF8
7FE00001FFF0001FF8
7FE000007FFC003FF8
7FF000003FFE003FF0
3FF000001FFF007FF0
3FF800000FFF807FF0
3FF8000003FFC0FFE0
1FFC000001FFF1FFE0
1FFE000000FFF9FFC0
0FFF0000003FFFFFC0
0FFF8000001FFFFF80
07FFE000000FFFFF80
03FFF0000007FFFF00
03FFFE000003FFFE00
01FFFFFFFFFFFFFE00
00FFFFFFFFFFFFFC00
007FFFFFFFFFFFFE00
003FFFFFFFFFFFFF00
001FFFFFFFFFFFFF80
0007FFFFFFFFFFFFC0
0003FFFFFFFFFFFFF0
0000FFFFFFFFF8FFF8
00001FFFFFFFE07FFC
000003FFFFFE003FFF
ENDCHAR
STARTCHAR r
ENCODING 114
SWIDTH 921 0
DWIDTH 72 0
BBX 67 57 5 0
BITMAP
FFFFFFFFFFFC000000
FFFFFFFFFFFF800000
FFFFFFFFFFFFF00000
FFFFFFFFFFFFF80000
FFFFFFFFFFFFFE0000
FFFFFFFFFFFFFF0000
FFFFFFFFFFFFFF8000
FFFFFFFFFFFFFF8000
FFFFFFFFFFFFFFC000
FFFFFFFFFFFFFFE000
FFC000000007FFE000
FFC000000001FFF000
FFC000000000FFF000
FFC0000000007FF000
FFC0000000003FF800
FFC0000000001FF800
FFC0000000001FF800
FFC0000000001FF800
FFC0000000001FF800
FFC0000000001FF800
FFC0000000001FF800
FFC0000000001FF800
FFC0000000001FF800
FFC0000000001FF800
FFC0000000001FF800
FFC0000000001FF800
FFC0000000003FF800
FFC0000000003FF000
FFC0000000007FF000
FFC000000000FFF000
FFC000000001FFE000
FFC000000007FFE000
FFC07FFFFFFFFFC000
FFC07FFFFFFFFF8000
FFC07FFFFFFFFF8000
FFC07FFFFFFFFF0000
FFC07FFFFFFFFE0000
FFC07FFFFFFFF80000
FFC07FFFFFFFF00000
FFC07FFFFFFFC00000
FFC07FFFFFFFE00000
FFC0000001FFE00000
FFC0000000FFF00000
FFC0000000FFF80000
FFC00000007FFC0000
FFC00000003FFE0000
FFC00000001FFF0000
FFC00000000FFF8000
FFC000000007FFC000
FFC000000003FFE000
FFC000000001FFF000
FFC000000000FFF800
FFC0000000007FFC00
FFC0000000007FFE00
FFC0000000003FFF00
FFC0000000001FFF80
FFC0000000000FFFE0
ENDCHAR
STARTCHAR s
ENCODING 115
SWIDTH 880 0
DWIDTH 69 0
BBX 61 57 4 0
BITMAP
0007FFFFFFFFFFC0
007FFFFFFFFFFFC0
01FFFFFFFFFFFFC0
03FFFFFFFFFFFFC0
07FFFFFFFFFFFFC0
0FFFFFFFFFFFFFC0
1FFFFFFFFFFFFFC0
3FFFFFFFFFFFFFC0
3FFFFFFFFFFFFFC0
7FFFFFFFFFFFFFC0
7FFC000000000000
7FF8000000000000
FFF0000000000000
FFE0000000000000
FFE0000000000000
FFC0000000000000
FFC0000000000000
FFC0000000000000
FFC0000000000000
FFE0000000000000
7FE0000000000000
7FF0000000000000
7FF8000000000000
3FFC000000000000
3FFFFFFFFFFF8000
1FFFFFFFFFFFF000
0FFFFFFFFFFFFC00
07FFFFFFFFFFFF00
03FFFFFFFFFFFF80
01FFFFFFFFFFFFC0
007FFFFFFFFFFFE0
0007FFFFFFFFFFE0
000000000001FFF0
0000000000007FF0
0000000000003FF0
0000000000001FF8
0000000000001FF8
0000000000001FF8
0000000000000FF8
0000000000000FF8
0000000000000FF8
0000000000001FF8
0000000000001FF8
0000000000001FF8
0000000000003FF8
0000000000007FF0
000000000001FFF0
7FFFFFFFFFFFFFF0
7FFFFFFFFFFFFFE0
7FFFFFFFFFFFFFE0
7FFFFFFFFFFFFFC0
7FFFFFFFFFFFFF80
7FFFFFFFFFFFFF00
7FFFFFFFFFFFFE00
7FFFFFFFFFFFFC00
7FFFFFFFFFFFF000
7FFFFFFFFFFF0000
ENDCHAR
STARTCHAR t
ENCODING 116
SWIDTH 720 0
DWIDTH 56 0
BBX 53 57 2 0
BITMAP
FFFFFFFFFFFFF8
FFFFFFFFFFFFF8
FFFFFFFFFFFFF8
FFFFFFFFFFFFF8
FFFFFFFFFFFFF8
FFFFFFFFFFFFF8
FFFFFFFFFFFFF8
FFFFFFFFFFFFF8
FFFFFFFFFFFFF8
FFFFFFFFFFFFF8
000007FE000000
000007FE000000
000007FE000000
000007FE000000
000007FE000000
000007FE000000
000007FE000000
000007FE000000
000007FE000000
000007FE000000
000007FE000000
000007FE000000
000007FE000000
000007FE000000
000007FE000000
000007FE000000
000007FE000000
000007FE000000
000007FE000000
000007FE000000
000007FE000000
000007FE000000
000007FE000000
000007FE000000
000007FE000000
000007FE000000
000007FE000000
000007FE000000
000007FE000000
000007FE000000
000007FE000000
000007FE000000
000007FE000000
000007FE000000
000007FE000000
000007FE000000
000007FE000000
000007FE000000
000007FE000000
000007FE000000
000007FE000000
000007FE000000
000007FE000000
000007FE000000
000007FE000000
000007FE000000
000007FE000000
ENDCHAR
STARTCHAR u
ENCODING 117
SWIDTH 889 0
DWIDTH 69 0
BBX 61 58 4 -1
BITMAP
FFC0000000000FF8
FFC0000000000FF8
FFC0000000000FF8
FFC0000000000FF8
FFC0000000000FF8
FFC0000000000FF8
FFC0000000000FF8
FFC0000000000FF8
FFC0000000000FF8
FFC0000000000FF8
FFC0000000000FF8
FFC0000000000FF8
FFC0000000000FF8
FFC0000000000FF8
FFC0000000000FF8
FFC0000000000FF8
FFC0000000000FF8
FFC0000000000FF8
FFC0000000000FF8
FFC0000000000FF8
FFC0000000000FF8
FFC0000000000FF8
FFC0000000000FF8
FFC0000000000FF8
FFC0000000000FF8
FFC0000000000FF8
FFC0000000000FF8
FFC0000000000FF8
FFC0000000000FF8
FFC0000000000FF8
FFC0000000000FF8
FFC0000000000FF8
FFC0000000000FF8
FFC0000000001FF8
FFC0000000001FF8
FFC0000000001FF8
FFE0000000001FF8
FFE0000000001FF8
7FE0000000001FF8
7FE0000000003FF8
7FF0000000003FF0
7FF0000000007FF0
7FF8000000007FF0
3FFC00000000FFF0
3FFE00000001FFE0
1FFF80000007FFE0
1FFFE000001FFFC0
0FFFFE0001FFFFC0
0FFFFFFFFFFFFF80
07FFFFFFFFFFFF00
03FFFFFFFFFFFE00
01FFFFFFFFFFFC00
00FFFFFFFFFFF800
003FFFFFFFFFF000
000FFFFFFFFFC000
0003FFFFFFFF0000
00007FFFFFF00000
000001FFFE000000
ENDCHAR
STARTCHAR v
ENCODING 118
SWIDTH 989 0
DWIDTH 77 0
BBX 75 58 1 -1
BITMAP
FFF0000000000001FFE0
7FF8000000000001FFC0
3FFC000000000003FF80
3FFC000000000003FF80
1FFE000000000007FF00
1FFE00000000000FFF00
0FFF00000000000FFE00
07FF80000000001FFE00
07FF80000000001FFC00
03FFC0000000003FF800
03FFC0000000007FF800
01FFE0000000007FF000
00FFE000000000FFF000
00FFF000000000FFE000
007FF800000001FFC000
007FF800000001FFC000
003FFC00000003FF8000
001FFC00000007FF8000
001FFE00000007FF0000
000FFF0000000FFE0000
000FFF0000000FFE0000
0007FF8000001FFC0000
0007FF8000003FFC0000
0003FFC000003FF80000
0001FFC000007FF00000
0001FFE000007FF00000
0000FFF00000FFE00000
0000FFF00000FFE00000
00007FF80001FFC00000
00003FF80003FF800000
00003FFC0003FF800000
00001FFE0007FF000000
00001FFE0007FF000000
00000FFF000FFE000000
000007FF001FFC000000
000007FF801FFC000000
000003FF803FF8000000
000003FFC03FF8000000
000001FFE07FF0000000
000000FFE07FE0000000
000000FFF0FFE0000000
0000007FF1FFC0000000
0000007FF9FFC0000000
0000003FFFFF80000000
0000001FFFFF00000000
0000001FFFFF00000000
0000000FFFFE00000000
0000000FFFFE00000000
00000007FFFC00000000
00000003FFF800000000
00000003FFF800000000
00000001FFF000000000
00000001FFF000000000
00000000FFE000000000
000000007FC000000000
000000007FC000000000
000000003F8000000000
000000001F0000000000
ENDCHAR
STARTCHAR w
ENCODING 119
SWIDTH 1268 0
DWIDTH 99 0
BBX 97 58 1 -1
BITMAP
FFF00007FF800000000007FF80
7FF80007FF800000000007FF00
7FF80003FFC0000000000FFE00
3FFC0001FFC0000000000FFE00
1FFC0001FFE0000000001FFC00
1FFE0000FFE0000000001FFC00
0FFE0000FFF0000000003FF800
0FFF00007FF0000000003FF800
07FF00007FF8000000007FF000
07FF80003FF8000000007FF000
03FF80003FFC00000000FFE000
03FFC0001FFC00000000FFE000
01FFC0001FFE00000001FFC000
01FFE0000FFE00000001FFC000
00FFF0000FFF00000003FF8000
00FFF00007FF00000003FF0000
007FF80007FF80000007FF0000
007FF80003FF8000000FFE0000
003FFC0003FFC000000FFE0000
001FFC0001FFC000001FFC0000
001FFE0001FFE000001FFC0000
000FFE0000FFE000003FF80000
000FFF0000FFF000003FF80000
0007FF00007FF000007FF00000
0007FF80007FF800007FF00000
0003FF80003FF80000FFE00000
0003FFC0003FFC0000FFE00000
0001FFC0001FFC0001FFC00000
0001FFE0001FFE0001FFC00000
0000FFE0001FFE0003FF800000
0000FFF0003FFF0003FF000000
00007FF0003FFF0007FF000000
00007FF8007FFF8007FE000000
00003FF8007FFF800FFE000000
00001FFC00FFFFC00FFC000000
00001FFC00FFFFC01FFC000000
00000FFE01FFFFE03FF8000000
00000FFE03FFFFE03FF8000000
000007FF03FF7FF07FF0000000
000007FF87FF7FF07FF0000000
000003FF87FE3FF8FFE0000000
000003FFCFFE3FF8FFE0000000
000001FFCFFC1FFDFFC0000000
000001FFFFFC1FFDFF80000000
000000FFFFF80FFFFF80000000
000000FFFFF80FFFFF00000000
0000007FFFF007FFFF00000000
0000007FFFF007FFFE00000000
0000003FFFE003FFFE00000000
0000001FFFC003FFFC00000000
0000001FFFC001FFFC00000000
0000000FFF8001FFF800000000
0000000FFF8000FFF800000000
00000007FF0000FFF000000000
00000007FF00007FF000000000
00000003FE00003FE000000000
00000001FC00003FC000000000
00000000F800000F8000000000
ENDCHAR
STARTCHAR x
ENCODING 120
SWIDTH 1000 0
DWIDTH 78 0
BBX 74 57 2 0
BITMAP
3FFF00000000003FFE00
1FFF80000000007FFC00
0FFFC000000000FFF800
03FFE000000001FFF000
01FFF000000003FFE000
00FFF800000007FFC000
007FFC0000000FFF8000
003FFE0000001FFF0000
001FFF0000003FFE0000
000FFF8000007FFC0000
0007FFC00000FFF00000
0003FFE00001FFE00000
0001FFF00003FFC00000
0000FFF80007FF800000
00007FFC000FFF000000
00003FFE001FFE000000
00001FFF003FFC000000
00000FFF807FF8000000
000007FFC0FFF0000000
000003FFF1FFE0000000
000001FFFBFFC0000000
000000FFFFFF80000000
0000007FFFFF00000000
0000003FFFFE00000000
0000001FFFFC00000000
0000000FFFF800000000
00000007FFF000000000
00000003FFE000000000
00000007FFF000000000
0000000FFFF800000000
0000001FFFFC00000000
0000003FFFFE00000000
0000007FFFFF00000000
000000FFFFFF80000000
000001FFE7FFC0000000
000003FFC3FFF0000000
000007FF81FFF8000000
00000FFF00FFFC000000
00001FFE007FFE000000
00003FFC003FFF000000
00007FF8001FFF800000
0000FFF0000FFFC00000
0001FFE00007FFE00000
0003FFC00003FFF00000
0007FF800001FFF80000
000FFF000000FFFC0000
003FFE0000007FFE0000
007FFC0000003FFF0000
00FFF80000001FFF8000
01FFF00000000FFFC000
03FFE000000007FFE000
07FFC000000003FFF000
0FFF8000000001FFF800
1FFF0000000000FFFC00
3FFE00000000007FFE00
7FFC00000000003FFF00
FFF800000000001FFFC0
ENDCHAR
STARTCHAR y
ENCODING 121
SWIDTH 926 0
DWIDTH 72 0
BBX 70 57 1 0
BITMAP
FFFC00000000007FFC
7FFE0000000000FFF8
3FFE0000000001FFF0
1FFF0000000001FFE0
0FFF8000000003FFC0
07FFC000000007FFC0
03FFE00000000FFF80
03FFF00000001FFF00
01FFF80000003FFE00
00FFF80000003FFC00
007FFC0000007FF800
003FFE000000FFF000
001FFF000001FFF000
001FFF800003FFE000
000FFFC00007FFC000
0007FFC0000FFF8000
0003FFE0000FFF0000
0001FFF0001FFE0000
0000FFF8003FFC0000
00007FFC007FFC0000
00007FFE00FFF80000
00003FFE01FFF00000
00001FFF01FFE00000
00000FFF83FFC00000
000007FFC7FF800000
000003FFEFFF000000
000001FFFFFF000000
000001FFFFFE000000
000000FFFFFC000000
0000007FFFF8000000
0000003FFFF0000000
0000001FFFE0000000
0000000FFFC0000000
00000007FFC0000000
00000007FF80000000
00000003FF00000000
00000003FF00000000
00000003FF00000000
00000003FF00000000
00000003FF00000000
00000003FF00000000
00000003FF00000000
00000003FF00000000
00000003FF00000000
00000003FF00000000
00000003FF00000000
00000003FF00000000
00000003FF00000000
00000003FF00000000
00000003FF00000000
00000003FF00000000
00000003FF00000000
00000003FF00000000
00000003FF00000000
00000003FF00000000
00000003FF00000000
00000003FF00000000
ENDCHAR
STARTCHAR z
ENCODING 122
SWIDTH 802 0
DWIDTH 63 0
BBX 56 57 3 0
BITMAP
7FFFFFFFFFFFF8
7FFFFFFFFFFFFE
7FFFFFFFFFFFFE
7FFFFFFFFFFFFF
7FFFFFFFFFFFFF
7FFFFFFFFFFFFF
7FFFFFFFFFFFFF
7FFFFFFFFFFFFE
7FFFFFFFFFFFFE
7FFFFFFFFFFFFC
0000000001FFF8
0000000003FFF0
0000000007FFE0
000000000FFFC0
000000001FFF80
000000003FFF00
000000007FFE00
00000000FFFC00
00000001FFF800
00000003FFF000
00000007FFE000
0000000FFFC000
0000001FFF8000
0000003FFF0000
0000007FFE0000
000000FFFC0000
000001FFF80000
000003FFF00000
000007FFE00000
00000FFFC00000
00001FFF800000
00003FFF000000
00007FFE000000
0000FFFC000000
0001FFF8000000
0003FFF0000000
0007FFE0000000
000FFFC0000000
001FFF80000000
003FFF00000000
007FFE00000000
00FFFC00000000
01FFF800000000
03FFF000000000
07FFE000000000
0FFFC000000000
1FFF8000000000
3FFFFFFFFFFFFF
7FFFFFFFFFFFFF
7FFFFFFFFFFFFF
FFFFFFFFFFFFFF
FFFFFFFFFFFFFF
FFFFFFFFFFFFFF
FFFFFFFFFFFFFF
7FFFFFFFFFFFFF
3FFFFFFFFFFFFF
1FFFFFFFFFFFFF
ENDCHAR
STARTCHAR braceleft
ENCODING 123
SWIDTH 337 0
DWIDTH 26 0
BBX 16 71 5 -7
BITMAP
007F
01FF
03FF
07FF
07FF
0FF8
0FF0
0FE0
0FC0
0FC0
0FC0
0FC0
0FC0
0FC0
0FC0
0FC0
0FC0
0FC0
0FC0
0FC0
0FC0
0FC0
0FC0
0FC0
0FC0
0FC0
0FC0
0FC0
0FC0
0FC0
0FC0
1FC0
FFC0
FF80
FF00
FF00
FF80
FFC0
1FC0
0FC0
0FC0
0FC0
0FC0
0FC0
0FC0
0FC0
0FC0
0FC0
0FC0
0FC0
0FC0
0FC0
0FC0
0FC0
0FC0
0FC0
0FC0
0FC0
0FC0
0FC0
0FC0
0FC0
0FC0
0FE0
0FE0
0FF8
07FF
07FF
03FF
01FF
007F
ENDCHAR
STARTCHAR bar
ENCODING 124
SWIDTH 297 0
DWIDTH 23 0
BBX 6 72 9 -7
BITMAP
FC
FC
FC
FC
FC
FC
FC
FC
FC
FC
FC
FC
FC
FC
FC
FC
FC
FC
FC
FC
FC
FC
FC
FC
FC
FC
FC
FC
FC
FC
FC
FC
FC
FC
FC
FC
FC
FC
FC
FC
FC
FC
FC
FC
FC
FC
FC
FC
FC
FC
FC
FC
FC
FC
FC
FC
FC
FC
FC
FC
FC
FC
FC
FC
FC
FC
FC
FC
FC
FC
FC
FC
ENDCHAR
STARTCHAR braceright
ENCODING 125
SWIDTH 337 0
DWIDTH 26 0
BBX 16 71 5 -7
BITMAP
FE00
FF80
FFC0
FFE0
FFE0
1FF0
07F0
07F0
03F0
03F0
03F0
03F0
03F0
03F0
03F0
03F0
03F0
03F0
03F0
03F0
03F0
03F0
03F0
03F0
03F0
03F0
03F0
03F0
03F0
03F0
03F0
03F8
03FF
01FF
00FF
00FF
01FF
03FF
03F8
03F0
03F0
03F0
03F0
03F0
03F0
03F0
03F0
03F0
03F0
03F0
03F0
03F0
03F0
03F0
03F0
03F0
03F0
03F0
03F0
03F0
03F0
03F0
03F0
07F0
07F0
1FF0
FFE0
FFE0
FFC0
FF80
FE00
ENDCHAR
STARTCHAR asciitilde
ENCODING 126
SWIDTH 691 0
DWIDTH 54 0
BBX 44 12 5 23
BITMAP
01FF00000000
0FFFE0000010
3FFFFC000070
FFFFFF8001F0
FFFFFFF007F0
FFFFFFFFFFF0
FFFFFFFFFFF0
FE00FFFFFFF0
F0001FFFFFF0
C00003FFFFC0
8000007FFF00
0000000FF800
ENDCHAR
STARTCHAR nonbreakingspace
ENCODING 160
SWIDTH 294 0
DWIDTH 23 0
BBX 1 1 0 0
BITMAP
00
ENDCHAR
STARTCHAR exclamdown
ENCODING 161
SWIDTH 298 0
DWIDTH 23 0
BBX 11 57 6 0
BITMAP
1F00
3FC0
7FC0
7FE0
7FE0
FFE0
7FE0
7FE0
7FC0
3FC0
1F00
0000
0000
0000
0000
0000
0000
0000
7FE0
7FE0
7FE0
7FE0
7FE0
7FE0
7FE0
7FE0
7FE0
7FE0
7FE0
7FE0
7FE0
7FE0
7FE0
7FE0
7FE0
7FE0
7FE0
7FE0
7FE0
7FE0
7FE0
7FE0
7FE0
7FE0
7FE0
7FE0
7FE0
7FE0
7FE0
7FE0
7FE0
7FE0
7FE0
7FE0
7FE0
7FE0
7FE0
ENDCHAR
STARTCHAR cent
ENCODING 162
SWIDTH 692 0
DWIDTH 54 0
BBX 47 57 3 0
BITMAP
0000000F0000
0000000F0000
0000000F0000
0000000F0000
0000000F0000
0000000F0000
00007FFFFFFE
0003FFFFFFFE
001FFFFFFFFE
003FFFFFFFFE
00FFFFFFFFFE
01FFFFFFFFFE
03FFFFFFFFFE
07FFFFFFFFFE
0FFFE00F0000
0FFF000F0000
1FFC000F0000
1FF8000F0000
3FF0000F0000
3FE0000F0000
7FC0000F0000
7FC0000F0000
7F80000F0000
7F80000F0000
FF80000F0000
FF00000F0000
FF00000F0000
FF00000F0000
FF00000F0000
FF00000F0000
FF00000F0000
FF00000F0000
7F80000F0000
7F80000F0000
7F80000F0000
7FC0000F0000
3FC0000F0000
3FE0000F0000
3FF0000F0000
1FF8000F0000
1FFC000F0000
0FFF000F0000
07FFE00F0000
03FFFFFFFFFE
01FFFFFFFFFE
00FFFFFFFFFE
007FFFFFFFFE
003FFFFFFFFE
000FFFFFFFFE
0003FFFFFFFE
00007FFFFFFE
0000000F0000
0000000F0000
0000000F0000
0000000F0000
0000000F0000
0000000F0000
ENDCHAR
STARTCHAR sterling
ENCODING 163
SWIDTH 709 0
DWIDTH 55 0
BBX 50 57 2 0
BITMAP
00000FFFFFC000
0000FFFFFFC000
0003FFFFFFC000
0007FFFFFFC000
000FFFFFFFC000
001FFFFFFFC000
003FFFFFFFC000
007FFFFFFFC000
007FFFFFFFC000
00FFFFFFFFC000
00FFFC00000000
00FFF000000000
00FFC000000000
01FFC000000000
01FF8000000000
01FF8000000000
01FF8000000000
01FF8000000000
01FF8000000000
01FF8000000000
01FF8000000000
01FF8000000000
01FF8000000000
01FF8000000000
1FFFFFFF000000
1FFFFFFF000000
1FFFFFFF000000
1FFFFFFF000000
1FFFFFFF000000
1FFFFFFF000000
1FFFFFFF000000
01FF8000000000
01FF8000000000
01FF8000000000
01FF8000000000
01FF8000000000
01FF8000000000
01FF8000000000
01FF8000000000
01FF8000000000
01FF8000000000
01FF8000000000
01FF8000000000
01FF8000000000
01FF8000000000
01FF8000000000
01FF8000000000
FFFFFFFFFFFFC0
FFFFFFFFFFFFC0
FFFFFFFFFFFFC0
FFFFFFFFFFFFC0
FFFFFFFFFFFFC0
FFFFFFFFFFFFC0
FFFFFFFFFFFFC0
FFFFFFFFFFFFC0
FFFFFFFFFFFFC0
FFFFFFFFFFFFC0
ENDCHAR
STARTCHAR yen
ENCODING 165
SWIDTH 787 0
DWIDTH 61 0
BBX 58 57 1 0
BITMAP
FFF800000003FFC0
7FF800000003FF80
3FFC00000007FF80
1FFE00000007FF00
1FFE0000000FFE00
0FFF0000001FFE00
07FF0000001FFC00
07FF8000003FFC00
03FFC000007FF800
01FFC000007FF000
01FFE00000FFF000
00FFF00000FFE000
007FF00001FFC000
007FF80003FFC000
003FFC0003FF8000
001FFC0007FF0000
001FFE0007FF0000
000FFE000FFE0000
0007FF001FFC0000
0007FF801FFC0000
0003FF803FF80000
0001FFC03FF00000
0001FFE07FF00000
0000FFE0FFE00000
00007FF0FFC00000
00007FF9FFC00000
00003FFBFF800000
00001FFFFF800000
00001FFFFF000000
00000FFFFE000000
000007FFFE000000
007FFFFFFFFFE000
007FFFFFFFFFE000
007FFFFFFFFFE000
007FFFFFFFFFE000
007FFFFFFFFFE000
007FFFFFFFFFE000
007FFFFFFFFFE000
0000007FC0000000
0000007FC0000000
0000007FC0000000
0000007FC0000000
0000007FC0000000
0000007FC0000000
007FFFFFFFFFE000
007FFFFFFFFFE000
007FFFFFFFFFE000
007FFFFFFFFFE000
007FFFFFFFFFE000
007FFFFFFFFFE000
007FFFFFFFFFE000
0000007FC0000000
0000007FC0000000
0000007FC0000000
0000007FC0000000
0000007FC0000000
0000007FC0000000
ENDCHAR
STARTCHAR brokenbar
ENCODING 166
SWIDTH 297 0
DWIDTH 23 0
BBX 6 72 9 -7
BITMAP
FC
FC
FC
FC
FC
FC
FC
FC
FC
FC
FC
FC
FC
FC
FC
FC
FC
FC
FC
FC
FC
FC
FC
FC
FC
FC
FC
FC
FC
FC
FC
FC
00
00
00
00
00
00
00
00
00
FC
FC
FC
FC
FC
FC
FC
FC
FC
FC
FC
FC
FC
FC
FC
FC
FC
FC
FC
FC
FC
FC
FC
FC
FC
FC
FC
FC
FC
FC
FC
ENDCHAR
STARTCHAR section
ENCODING 167
SWIDTH 773 0
DWIDTH 60 0
BBX 52 73 4 -16
BITMAP
001FFFFFFFF800
00FFFFFFFFF800
01FFFFFFFFF800
07FFFFFFFFF800
0FFFFFFFFFF800
1FFFFFFFFFF800
3FFFFFFFFFF800
3FFFFFFFFFF800
7FFFFFFFFFF800
7FFFFFFFFFF800
FFFC0000000000
FFF00000000000
FFE00000000000
FFC00000000000
FFC00000000000
FF800000000000
FF800000000000
FF800000000000
FF800000000000
FFC00000000000
7FC00000000000
7FE00000000000
7FE00000000000
3FF80000000000
3FFFFFFFFF0000
1FFFFFFFFFE000
0FFFFFFFFFF800
07FFFFFFFFFC00
01FFFFFFFFFE00
03FFFFFFFFFE00
07FFFFFFFFFF00
0FFE000007FF00
0FF8000003FF80
1FF0000001FF80
1FF0000000FF80
1FE0000000FF80
1FE0000000FF80
1FE0000000FF80
1FE0000000FF80
1FF0000000FF80
1FF0000001FF00
1FF8000001FF00
1FFE000007FE00
0FFFFFFFFFFC00
0FFFFFFFFFFC00
07FFFFFFFFF000
03FFFFFFFFFC00
01FFFFFFFFFE00
00FFFFFFFFFF00
001FFFFFFFFF80
0000000003FFC0
0000000000FFC0
00000000007FE0
00000000003FE0
00000000003FE0
00000000003FF0
00000000003FF0
00000000003FF0
00000000003FF0
00000000003FF0
00000000007FF0
0000000000FFE0
0000000003FFE0
03FFFFFFFFFFE0
03FFFFFFFFFFC0
03FFFFFFFFFFC0
03FFFFFFFFFF80
03FFFFFFFFFF80
03FFFFFFFFFF00
03FFFFFFFFFE00
03FFFFFFFFF800
03FFFFFFFFE000
03FFFFFFFF0000
ENDCHAR
STARTCHAR dieresis
ENCODING 168
SWIDTH 393 0
DWIDTH 31 0
BBX 23 7 4 63
BITMAP
3C00F8
7E01FC
FF01FC
FF01FE
FF01FC
7E01FC
3C00F8
ENDCHAR
STARTCHAR copyright
ENCODING 169
SWIDTH 829 0
DWIDTH 65 0
BBX 58 59 3 -2
BITMAP
000000FFE0000000
00000FFFFE000000
00003FFFFF800000
0000FF001FE00000
0003F00001F80000
000FC000007C0000
001F0000001F0000
003C0000000F8000
007800000003C000
00F000000001E000
01E000000000F000
03C0000000007000
0380000000003800
0700000000003C00
0F00000000001C00
0E00000000000E00
1C00007FFE000E00
1C0003FFFE000700
38000FFFFE000700
38001FFFFE000380
38003FC000000380
70007E0000000180
7000FC00000001C0
7000F800000001C0
7001F000000001C0
E001F000000000C0
E001E000000000C0
E001E000000000C0
E001E000000000C0
E001E000000000C0
E001E000000000C0
E001E000000000C0
E001E000000000C0
6001F000000001C0
7000F000000001C0
7000F800000001C0
70007C00000001C0
70007E0000000180
38003FC000000380
38001FFFFE000380
38000FFFFE000700
1C0003FFFE000700
1C00007FFE000E00
0E00000000000E00
0F00000000001C00
0700000000003C00
0380000000003800
03C0000000007000
01E000000000E000
00F000000001E000
007800000003C000
003E0000000F8000
001F0000001E0000
0007C000007C0000
0003F80003F00000
0000FF001FE00000
00003FFFFF800000
000007FFFC000000
0000007FC0000000
ENDCHAR
STARTCHAR ordfeminine
ENCODING 170
SWIDTH 604 0
DWIDTH 47 0
BBX 41 32 3 23
BITMAP
00001C000000
00003E000000
00007F000000
00007F000000
0000FF800000
0000FF800000
0001FFC00000
0003FFE00000
0003F7E00000
0007E7F00000
0007E3F00000
000FC3F80000
000FC1FC0000
001F81FC0000
003F80FE0000
003F007E0000
007E007F0000
007E003F8000
00FC003F8000
01FC001FC000
01F87FFFC000
03F07FFFE000
03F0FFFFE000
07E1FFFFF000
0FE00003F800
0FC00001F800
1F800001FC00
1F800000FC00
3F0000007E00
7F0000007F00
7E0000003F00
FC0000003F80
ENDCHAR
STARTCHAR guillemotleft
ENCODING 171
SWIDTH 629 0
DWIDTH 49 0
BBX 43 30 3 14
BITMAP
000002000020
00000C000060
00001C0001E0
00007C0007E0
0001FC000FE0
0003FC003FC0
000FF000FF80
003FC001FE00
007F8007F800
01FE001FE000
07F8003FC000
0FE000FF0000
3FC003FC0000
7F0007F00000
FC0007E00000
FC0007E00000
7F0007F00000
1FC001FC0000
0FE0007F0000
03F8003FC000
00FE000FE000
007F8003F800
001FC001FE00
0007F0007F80
0003FC001FC0
0000FC000FE0
00007C0003E0
00001C0000E0
000004000060
000002000020
ENDCHAR
STARTCHAR registered
ENCODING 174
SWIDTH 585 0
DWIDTH 46 0
BBX 36 36 5 21
BITMAP
0003FC0000
001FFF8000
007FFFE000
01F803F000
03E000FC00
0780003E00
0F00001F00
1E00000700
1C00000780
38000003C0
383FFE01C0
703FFF81E0
703FFFC0E0
E03001C0E0
E03001C0E0
E03000C070
E03001C070
E03001C070
E030FF8070
E030FF8070
E030FE0070
E0300F00E0
E0300780E0
703001C0E0
703000F1E0
78000001C0
38000003C0
1C00000780
1E00000700
0F00000F00
0780003E00
03E0007C00
01FC03F000
007FFFE000
001FFF8000
0003FC0000
ENDCHAR
STARTCHAR macron
ENCODING 175
SWIDTH 362 0
DWIDTH 28 0
BBX 20 5 4 64
BITMAP
FFFFF0
FFFFF0
FFFFF0
FFFFF0
FFFFF0
ENDCHAR
STARTCHAR degree
ENCODING 176
SWIDTH 361 0
DWIDTH 28 0
BBX 22 21 3 36
BITMAP
01FE00
0FFFC0
1FFFE0
3FFFF0
3F03F8
7C00F8
7800F8
78007C
F8007C
F8007C
F8007C
F8007C
F8007C
78007C
780078
7C00F8
3F03F8
3FFFF0
1FFFE0
0FFFC0
01FE00
ENDCHAR
STARTCHAR plusminus
ENCODING 177
SWIDTH 690 0
DWIDTH 54 0
BBX 44 55 5 -4
BITMAP
00001F800000
00001F800000
00001F800000
00001F800000
00001F800000
00001F800000
00001F800000
00001F800000
00001F800000
00001F800000
00001F800000
00001F800000
00001F800000
00001F800000
00001F800000
00001F800000
00001F800000
00001F800000
FFFFFFFFFFF0
FFFFFFFFFFF0
FFFFFFFFFFF0
FFFFFFFFFFF0
FFFFFFFFFFF0
FFFFFFFFFFF0
FFFFFFFFFFF0
00001F800000
00001F800000
00001F800000
00001F800000
00001F800000
00001F800000
00001F800000
00001F800000
00001F800000
00001F800000
00001F800000
00001F800000
00001F800000
00001F800000
00001F800000
00001F800000
00001F800000
00001F800000
00001F800000
000000000000
000000000000
000000000000
000000000000
FFFFFFFFFFF0
FFFFFFFFFFF0
FFFFFFFFFFF0
FFFFFFFFFFF0
FFFFFFFFFFF0
FFFFFFFFFFF0
FFFFFFFFFFF0
ENDCHAR
STARTCHAR twosuperior
ENCODING 178
SWIDTH 442 0
DWIDTH 34 0
BBX 27 28 4 29
BITMAP
FFFFFC00
FFFFFF00
FFFFFF80
FFFFFFC0
FFFFFFE0
000007E0
000003E0
000003E0
000003E0
000003E0
000003E0
000007E0
0FFFFFC0
3FFFFF80
7FFFFF00
7FFFFC00
FC000000
F8000000
F0000000
F0000000
F0000000
F0000000
F0000000
FFFFFFE0
FFFFFFE0
FFFFFFE0
FFFFFFE0
FFFFFFE0
ENDCHAR
STARTCHAR threesuperior
ENCODING 179
SWIDTH 443 0
DWIDTH 35 0
BBX 29 28 3 29
BITMAP
FFFFFE00
FFFFFF80
FFFFFFC0
FFFFFFE0
FFFFFFE0
000007F0
000003F0
000001F0
000001F0
000001F0
000003E0
000007E0
01FFFFC0
01FFFF00
01FFFFC0
01FFFFE0
000003F0
000001F0
000001F0
000001F8
000001F0
000001F0
000007F0
FFFFFFF0
FFFFFFE0
FFFFFFC0
FFFFFF80
FFFFFE00
ENDCHAR
STARTCHAR acute
ENCODING 180
SWIDTH 362 0
DWIDTH 28 0
BBX 20 10 4 61
BITMAP
000030
0001F0
000FF0
00FFF0
07FFF0
3FFFF0
FFFFE0
FFFC00
FF8000
F80000
ENDCHAR
STARTCHAR paragraph
ENCODING 182
SWIDTH 629 0
DWIDTH 49 0
BBX 40 65 4 -8
BITMAP
00FFFFFFFF
03FFFFFFFF
0FFFFFFFFF
1FFFFFFFFF
3FFFFFFFFF
7FFFFFFFFF
7FFFFF003F
FFFFFF003F
FFFFFF003F
FFFFFF003F
FFFFFF003F
FFFFFF003F
FFFFFF003F
FFFFFF003F
FFFFFF003F
FFFFFF003F
FFFFFF003F
FFFFFF003F
7FFFFF003F
7FFFFF003F
3FFFFF003F
3FFFFF003F
1FFFFF003F
07FFFF003F
03FFFF003F
001FFF003F
00003F003F
00003F003F
00003F003F
00003F003F
00003F003F
00003F003F
00003F003F
00003F003F
00003F003F
00003F003F
00003F003F
00003F003F
00003F003F
00003F003F
00003F003F
00003F003F
00003F003F
00003F003F
00003F003F
00003F003F
00003F003F
00003F003F
00003F003F
00003F003F
00003F003F
00003F003F
00003F003F
00003F003F
00003F003F
00003F003F
00003F003F
00003F003F
00003F003F
00003F003F
00003F003F
00003F003F
00003F003F
00003F003F
00003F003F
ENDCHAR
STARTCHAR periodcentered
ENCODING 183
SWIDTH 262 0
DWIDTH 20 0
BBX 11 11 5 23
BITMAP
1E00
7F80
7FC0
FFC0
FFC0
FFE0
FFC0
FFC0
7FC0
7F80
1E00
ENDCHAR
STARTCHAR cedilla
ENCODING 184
SWIDTH 219 0
DWIDTH 17 0
BBX 11 12 3 -16
BITMAP
FFE0
7FC0
7FC0
3F80
3F80
1F00
1F00
0E00
0E00
0E00
0400
0400
ENDCHAR
STARTCHAR onesuperior
ENCODING 185
SWIDTH 222 0
DWIDTH 17 0
BBX 12 29 2 29
BITMAP
FC00
FF00
FF80
FFC0
FFE0
07E0
03E0
01F0
01F0
01F0
01F0
01F0
01F0
01F0
01F0
01F0
01F0
01F0
01F0
01F0
01F0
01F0
01F0
01F0
01F0
01F0
01F0
01F0
01F0
ENDCHAR
STARTCHAR ordmasculine
ENCODING 186
SWIDTH 592 0
DWIDTH 46 0
BBX 38 31 4 24
BITMAP
001FFFE000
00FFFFFC00
03FFFFFF00
07FFFFFF80
0FFFFFFFC0
1FF0003FE0
3FC0000FF0
3F800007F0
7F000003F8
7E000001F8
7E000000F8
FC000000FC
FC000000FC
FC0000007C
FC0000007C
FC0000007C
FC0000007C
FC0000007C
FC000000FC
7C000000FC
7E000000F8
7E000001F8
3F000003F8
3F800007F0
1FC0000FE0
0FF0003FE0
0FFFFFFFC0
07FFFFFF80
01FFFFFE00
007FFFFC00
001FFFE000
ENDCHAR
STARTCHAR guillemotright
ENCODING 187
SWIDTH 629 0
DWIDTH 49 0
BBX 43 30 3 14
BITMAP
800008000000
C00006000000
F00007000000
FC0007C00000
FE0007F00000
7F8007F80000
1FE001FE0000
0FF0007F8000
03FC003FC000
00FF000FF000
007F8003FC00
001FE000FE00
0007F8007F80
0001FC001FC0
0000FE0007E0
0000FC0007E0
0001FC001FC0
0007F0007F00
001FE000FE00
003F8003F800
00FE000FE000
03FC003FC000
0FF0007F0000
1FC001FE0000
7F8007F80000
FE0007E00000
F80007C00000
F00007000000
C00004000000
800008000000
ENDCHAR
STARTCHAR onequarter
ENCODING 188
SWIDTH 972 0
DWIDTH 76 0
BBX 70 66 3 -5
BITMAP
0000000000001FC000
0000000000001F8000
0000000000003F8000
01F8000000007F0000
01FE00000000FE0000
01FF00000000FC0000
01FF80000001F80000
01FF80000003F80000
000FC0000007F00000
0007C000000FE00000
0007C000000FC00000
0007C000001FC00000
0007C000003F800000
0007C000007F000000
0007C000007E000000
0007C00000FC000000
0007C00001FC000000
0007C00003F8000000
0007C00007F0000000
0007C00007E0000000
0007C0000FE0000000
0007C0001FC0000000
0007C0003F80000000
0007C0003F00000000
0007C0007E00000000
0007C000FE00000000
0007C001FC00000000
0007C003F800000000
0007C003F000000000
0007C007F000000000
0007C00FE000000000
0007C01FC000000000
0000003F8000000000
0000003F0000000000
0000007F01F0000F80
000000FE01F0000F80
000001FC01F0000F80
000001F801F0000F80
000003F801F0000F80
000007F001F0000F80
00000FE001F0000F80
00001FC001F0000F80
00001F8001F0000F80
00003F8001F0000F80
00007F0001F0000F80
0000FE0001F0000F80
0000FC0001F0000F80
0001FC0001F8000F80
0003F80000F8000F80
0007F00000FC000F80
000FE00000FFFFFFFC
000FC000007FFFFFFC
001FC000003FFFFFFC
003F8000001FFFFFFC
007F00000007FFFFFC
00FE00000000000F80
00FC00000000000F80
01FC00000000000F80
03F800000000000F80
07F000000000000F80
07E000000000000F80
0FE000000000000F80
1FC000000000000000
3F8000000000000000
7F0000000000000000
FE0000000000000000
ENDCHAR
STARTCHAR onehalf
ENCODING 189
SWIDTH 948 0
DWIDTH 74 0
BBX 68 66 3 -5
BITMAP
0000000000001FC000
0000000000001F8000
0000000000003F8000
01F8000000007F0000
01FE00000000FE0000
01FF00000000FC0000
01FF80000001F80000
01FF80000003F80000
000FC0000007F00000
0007C000000FE00000
0007C000000FC00000
0007C000001FC00000
0007C000003F800000
0007C000007F000000
0007C000007E000000
0007C00000FC000000
0007C00001FC000000
0007C00003F8000000
0007C00007F0000000
0007C00007E0000000
0007C0000FE0000000
0007C0001FC0000000
0007C0003F80000000
0007C0003F00000000
0007C0007E00000000
0007C000FE00000000
0007C001FC00000000
0007C003F800000000
0007C003F000000000
0007C007F000000000
0007C00FE000000000
0007C01FC000000000
0000003F8000000000
0000003F0000000000
0000007F00FFFFFE00
000000FE00FFFFFF80
000001FC00FFFFFFC0
000001F800FFFFFFC0
000003F800FFFFFFE0
000007F000000007E0
00000FE000000003F0
00001FC000000003F0
00001F8000000001F0
00003F8000000003F0
00007F0000000003E0
0000FE0000000007E0
0000FC000007FFFFC0
0001FC00001FFFFFC0
0003F800003FFFFF00
0007F000007FFFFC00
000FE00000FC000000
000FC00000F8000000
001FC00000F8000000
003F800000F8000000
007F000000F8000000
00FE000000F8000000
00FC000000F8000000
01FC000000FFFFFFE0
03F8000000FFFFFFE0
07F0000000FFFFFFE0
07E0000000FFFFFFE0
0FE0000000FFFFFFE0
1FC000000000000000
3F8000000000000000
7F0000000000000000
FE0000000000000000
ENDCHAR
STARTCHAR threequarters
ENCODING 190
SWIDTH 1029 0
DWIDTH 80 0
BBX 74 66 3 -5
BITMAP
00000000000000FE0000
00000000000001FC0000
00000000000003F80000
00000000000003F00000
FFFFFE00000007E00000
FFFFFF8000000FE00000
FFFFFFE000001FC00000
FFFFFFE000003F800000
FFFFFFF000003F000000
000007F000007F000000
000001F00000FE000000
000001F00001FC000000
000001F00001F8000000
000001F00003F0000000
000001F00007F0000000
000003E0000FE0000000
01FFFFC0001FC0000000
01FFFF00001F80000000
01FFFFC0003F80000000
01FFFFE0007F00000000
000003F000FE00000000
000001F800FC00000000
000000F801F800000000
000000F803F800000000
000000F807F000000000
000001F80FE000000000
000007F00FC000000000
FFFFFFF01FC000000000
FFFFFFE03F8000000000
FFFFFFE07F0000000000
FFFFFF80FE0000000000
FFFFFE00FC0000000000
00000001FC0000000000
00000003F80000000000
00000007F00F80007C00
00000007E00F80007C00
0000000FE00F80007C00
0000001FC00F80007C00
0000003F800F80007C00
0000007F000F80007C00
0000007E000F80007C00
000000FE000F80007C00
000001FC000F80007C00
000003F8000F80007C00
000003F0000F80007C00
000007F0000F80007C00
00000FE0000F80007C00
00001FC0000F80007C00
00003F80000F80007C00
00003F00000FE0007C00
00007F000007FFFFFFC0
0000FE000007FFFFFFC0
0001FC000003FFFFFFC0
0003F8000001FFFFFFC0
0003F00000007FFFFFC0
0007F000000000007C00
000FE000000000007C00
001FC000000000007C00
001F8000000000007C00
003F8000000000007C00
007F0000000000007C00
00FE0000000000007C00
01FC0000000000000000
01F80000000000000000
03F80000000000000000
07F00000000000000000
ENDCHAR
STARTCHAR questiondown
ENCODING 191
SWIDTH 776 0
DWIDTH 61 0
BBX 55 57 2 0
BITMAP
00000000003E00
00000000007F80
0000000000FF80
0000000000FFC0
0000000000FFC0
0000000001FFC0
0000000000FFC0
0000000000FFC0
0000000000FF80
00000000007F80
00000000003E00
00000000000000
00000000000000
00000000000000
00000000000000
00000000000000
00000000000000
00000000000000
00000000000000
0000000000FFC0
0000000000FFC0
0000000000FFC0
0000000000FFC0
0000000000FFC0
0000000000FFC0
0000000001FF80
0007FFFFFFFF80
007FFFFFFFFF80
01FFFFFFFFFF00
03FFFFFFFFFF00
07FFFFFFFFFE00
0FFFFFFFFFFC00
1FFFFFFFFFF000
3FFFFFFFFFC000
3FFC0000000000
7FF80000000000
7FF00000000000
7FE00000000000
FFE00000000000
FFC00000000000
FFC00000000000
FFC00000000000
FFE00000000000
FFE00000000000
FFF00000000000
7FF00000000000
7FFC0000000000
7FFFFFFFFFFFFE
3FFFFFFFFFFFFE
3FFFFFFFFFFFFE
1FFFFFFFFFFFFE
0FFFFFFFFFFFFE
0FFFFFFFFFFFFE
03FFFFFFFFFFFE
01FFFFFFFFFFFE
007FFFFFFFFFFE
000FFFFFFFFFFE
ENDCHAR
STARTCHAR Agrave
ENCODING 192
SWIDTH 989 0
DWIDTH 77 0
BBX 75 71 1 0
BITMAP
00000060000000000000
0000007C000000000000
0000007FC00000000000
0000007FF80000000000
0000007FFF0000000000
0000007FFFF000000000
0000001FFFF800000000
00000001FFF800000000
000000000FF800000000
00000000007800000000
00000000000000000000
00000000000000000000
00000000000000000000
000000001F0000000000
000000003F8000000000
000000007FC000000000
000000007FC000000000
00000000FFE000000000
00000001FFF000000000
00000001FFF000000000
00000003FFF800000000
00000003FFF800000000
00000007FFFC00000000
0000000FFFFE00000000
0000000FFFFE00000000
0000001FFFFF00000000
0000001FFFFF00000000
0000003FFFFF80000000
0000007FF3FFC0000000
0000007FF3FFC0000000
000000FFE1FFE0000000
000000FFE0FFE0000000
000001FFC0FFF0000000
000003FFC07FF8000000
000003FF807FF8000000
000007FF003FFC000000
000007FF003FFC000000
00000FFE001FFE000000
00001FFE000FFF000000
00001FFC000FFF000000
00003FF80007FF800000
00003FF80007FF800000
00007FF00003FFC00000
0000FFF00001FFE00000
0000FFE00001FFE00000
0001FFC00000FFF00000
0001FFC00000FFF00000
0003FF8000007FF80000
0007FF8000007FFC0000
0007FF00FFFFFFFC0000
000FFF00FFFFFFFE0000
000FFE01FFFFFFFE0000
001FFC03FFFFFFFF0000
003FFC03FFFFFFFF8000
003FF807FFFFFFFF8000
007FF807FFFFFFFFC000
007FF00FFFFFFFFFC000
00FFE000000001FFE000
00FFE000000001FFF000
01FFC000000000FFF000
03FFC0000000007FF800
03FF80000000007FF800
07FF00000000003FFC00
07FF00000000003FFE00
0FFE00000000001FFE00
1FFE00000000000FFF00
1FFC00000000000FFF00
3FF8000000000007FF80
3FF8000000000003FF80
7FF0000000000003FFC0
FFF0000000000001FFE0
ENDCHAR
STARTCHAR Aacute
ENCODING 193
SWIDTH 989 0
DWIDTH 77 0
BBX 75 71 1 0
BITMAP
000000000000C0000000
000000000007C0000000
00000000007FC0000000
0000000003FFC0000000
000000001FFFC0000000
00000000FFFFC0000000
00000003FFFF00000000
00000003FFF000000000
00000003FE0000000000
00000003C00000000000
00000000000000000000
00000000000000000000
00000000000000000000
000000001F0000000000
000000003F8000000000
000000007FC000000000
000000007FC000000000
00000000FFE000000000
00000001FFF000000000
00000001FFF000000000
00000003FFF800000000
00000003FFF800000000
00000007FFFC00000000
0000000FFFFE00000000
0000000FFFFE00000000
0000001FFFFF00000000
0000001FFFFF00000000
0000003FFFFF80000000
0000007FF3FFC0000000
0000007FF3FFC0000000
000000FFE1FFE0000000
000000FFE0FFE0000000
000001FFC0FFF0000000
000003FFC07FF8000000
000003FF807FF8000000
000007FF003FFC000000
000007FF003FFC000000
00000FFE001FFE000000
00001FFE000FFF000000
00001FFC000FFF000000
00003FF80007FF800000
00003FF80007FF800000
00007FF00003FFC00000
0000FFF00001FFE00000
0000FFE00001FFE00000
0001FFC00000FFF00000
0001FFC00000FFF00000
0003FF8000007FF80000
0007FF8000007FFC0000
0007FF00FFFFFFFC0000
000FFF00FFFFFFFE0000
000FFE01FFFFFFFE0000
001FFC03FFFFFFFF0000
003FFC03FFFFFFFF8000
003FF807FFFFFFFF8000
007FF807FFFFFFFFC000
007FF00FFFFFFFFFC000
00FFE000000001FFE000
00FFE000000001FFF000
01FFC000000000FFF000
03FFC0000000007FF800
03FF80000000007FF800
07FF00000000003FFC00
07FF00000000003FFE00
0FFE00000000001FFE00
1FFE00000000000FFF00
1FFC00000000000FFF00
3FF8000000000007FF80
3FF8000000000003FF80
7FF0000000000003FFC0
FFF0000000000001FFE0
ENDCHAR
STARTCHAR Acircumflex
ENCODING 194
SWIDTH 989 0
DWIDTH 77 0
BBX 75 71 1 0
BITMAP
000000003F8000000000
000000007FC000000000
00000000FFE000000000
00000000FBE000000000
00000001F1F000000000
00000003F1F800000000
00000003E0FC00000000
00000007C07C00000000
0000000FC07E00000000
0000000F803F00000000
0000001F001F00000000
00000000000000000000
00000000000000000000
000000001F0000000000
000000003F8000000000
000000007FC000000000
000000007FC000000000
00000000FFE000000000
00000001FFF000000000
00000001FFF000000000
00000003FFF800000000
00000003FFF800000000
00000007FFFC00000000
0000000FFFFE00000000
0000000FFFFE00000000
0000001FFFFF00000000
0000001FFFFF00000000
0000003FFFFF80000000
0000007FF3FFC0000000
0000007FF3FFC0000000
000000FFE1FFE0000000
000000FFE0FFE0000000
000001FFC0FFF0000000
000003FFC07FF8000000
000003FF807FF8000000
000007FF003FFC000000
000007FF003FFC000000
00000FFE001FFE000000
00001FFE000FFF000000
00001FFC000FFF000000
00003FF80007FF800000
00003FF80007FF800000
00007FF00003FFC00000
0000FFF00001FFE00000
0000FFE00001FFE00000
0001FFC00000FFF00000
0001FFC00000FFF00000
0003FF8000007FF80000
0007FF8000007FFC0000
0007FF00FFFFFFFC0000
000FFF00FFFFFFFE0000
000FFE01FFFFFFFE0000
001FFC03FFFFFFFF0000
003FFC03FFFFFFFF8000
003FF807FFFFFFFF8000
007FF807FFFFFFFFC000
007FF00FFFFFFFFFC000
00FFE000000001FFE000
00FFE000000001FFF000
01FFC000000000FFF000
03FFC0000000007FF800
03FF80000000007FF800
07FF00000000003FFC00
07FF00000000003FFE00
0FFE00000000001FFE00
1FFE00000000000FFF00
1FFC00000000000FFF00
3FF8000000000007FF80
3FF8000000000003FF80
7FF0000000000003FFC0
FFF0000000000001FFE0
ENDCHAR
STARTCHAR Atilde
ENCODING 195
SWIDTH 989 0
DWIDTH 77 0
BBX 75 69 1 0
BITMAP
00000003E00100000000
0000000FF80300000000
0000000FFF0700000000
0000000FFFFF00000000
0000000C1FFF00000000
0000000807FE00000000
0000001000F800000000
00000000000000000000
00000000000000000000
00000000000000000000
00000000000000000000
000000001F0000000000
000000003F8000000000
000000007FC000000000
000000007FC000000000
00000000FFE000000000
00000001FFF000000000
00000001FFF000000000
00000003FFF800000000
00000003FFF800000000
00000007FFFC00000000
0000000FFFFE00000000
0000000FFFFE00000000
0000001FFFFF00000000
0000001FFFFF00000000
0000003FFFFF80000000
0000007FF3FFC0000000
0000007FF3FFC0000000
000000FFE1FFE0000000
000000FFE0FFE0000000
000001FFC0FFF0000000
000003FFC07FF8000000
000003FF807FF8000000
000007FF003FFC000000
000007FF003FFC000000
00000FFE001FFE000000
00001FFE000FFF000000
00001FFC000FFF000000
00003FF80007FF800000
00003FF80007FF800000
00007FF00003FFC00000
0000FFF00001FFE00000
0000FFE00001FFE00000
0001FFC00000FFF00000
0001FFC00000FFF00000
0003FF8000007FF80000
0007FF8000007FFC0000
0007FF00FFFFFFFC0000
000FFF00FFFFFFFE0000
000FFE01FFFFFFFE0000
001FFC03FFFFFFFF0000
003FFC03FFFFFFFF8000
003FF807FFFFFFFF8000
007FF807FFFFFFFFC000
007FF00FFFFFFFFFC000
00FFE000000001FFE000
00FFE000000001FFF000
01FFC000000000FFF000
03FFC0000000007FF800
03FF80000000007FF800
07FF00000000003FFC00
07FF00000000003FFE00
0FFE00000000001FFE00
1FFE00000000000FFF00
1FFC00000000000FFF00
3FF8000000000007FF80
3FF8000000000003FF80
7FF0000000000003FFC0
FFF0000000000001FFE0
ENDCHAR
STARTCHAR Adieresis
ENCODING 196
SWIDTH 989 0
DWIDTH 77 0
BBX 75 70 1 0
BITMAP
0000000F801E00000000
0000001FC07F00000000
0000001FC07F80000000
0000003FC07F80000000
0000001FC07F80000000
0000001FC07F00000000
0000000F801E00000000
00000000000000000000
00000000000000000000
00000000000000000000
00000000000000000000
00000000000000000000
000000001F0000000000
000000003F8000000000
000000007FC000000000
000000007FC000000000
00000000FFE000000000
00000001FFF000000000
00000001FFF000000000
00000003FFF800000000
00000003FFF800000000
00000007FFFC00000000
0000000FFFFE00000000
0000000FFFFE00000000
0000001FFFFF00000000
0000001FFFFF00000000
0000003FFFFF80000000
0000007FF3FFC0000000
0000007FF3FFC0000000
000000FFE1FFE0000000
000000FFE0FFE0000000
000001FFC0FFF0000000
000003FFC07FF8000000
000003FF807FF8000000
000007FF003FFC000000
000007FF003FFC000000
00000FFE001FFE000000
00001FFE000FFF000000
00001FFC000FFF000000
00003FF80007FF800000
00003FF80007FF800000
00007FF00003FFC00000
0000FFF00001FFE00000
0000FFE00001FFE00000
0001FFC00000FFF00000
0001FFC00000FFF00000
0003FF8000007FF80000
0007FF8000007FFC0000
0007FF00FFFFFFFC0000
000FFF00FFFFFFFE0000
000FFE01FFFFFFFE0000
001FFC03FFFFFFFF0000
003FFC03FFFFFFFF8000
003FF807FFFFFFFF8000
007FF807FFFFFFFFC000
007FF00FFFFFFFFFC000
00FFE000000001FFE000
00FFE000000001FFF000
01FFC000000000FFF000
03FFC0000000007FF800
03FF80000000007FF800
07FF00000000003FFC00
07FF00000000003FFE00
0FFE00000000001FFE00
1FFE00000000000FFF00
1FFC00000000000FFF00
3FF8000000000007FF80
3FF8000000000003FF80
7FF0000000000003FFC0
FFF0000000000001FFE0
ENDCHAR
STARTCHAR Aring
ENCODING 197
SWIDTH 989 0
DWIDTH 77 0
BBX 75 77 1 0
BITMAP
000000007FC000000000
00000001FFF000000000
00000007FFFC00000000
00000007803C00000000
0000000F001E00000000
0000000E000E00000000
0000000E000E00000000
0000000E000700000000
0000000E000700000000
0000000E000E00000000
0000000E000E00000000
0000000F001E00000000
00000007803C00000000
00000003FFF800000000
00000001FFF000000000
00000000FFC000000000
00000000000000000000
00000000000000000000
00000000000000000000
000000001F0000000000
000000003F8000000000
000000007FC000000000
000000007FC000000000
00000000FFE000000000
00000001FFF000000000
00000001FFF000000000
00000003FFF800000000
00000003FFF800000000
00000007FFFC00000000
0000000FFFFE00000000
0000000FFFFE00000000
0000001FFFFF00000000
0000001FFFFF00000000
0000003FFFFF80000000
0000007FF3FFC0000000
0000007FF3FFC0000000
000000FFE1FFE0000000
000000FFE0FFE0000000
000001FFC0FFF0000000
000003FFC07FF8000000
000003FF807FF8000000
000007FF003FFC000000
000007FF003FFC000000
00000FFE001FFE000000
00001FFE000FFF000000
00001FFC000FFF000000
00003FF80007FF800000
00003FF80007FF800000
00007FF00003FFC00000
0000FFF00001FFE00000
0000FFE00001FFE00000
0001FFC00000FFF00000
0001FFC00000FFF00000
0003FF8000007FF80000
0007FF8000007FFC0000
0007FF00FFFFFFFC0000
000FFF00FFFFFFFE0000
000FFE01FFFFFFFE0000
001FFC03FFFFFFFF0000
003FFC03FFFFFFFF8000
003FF807FFFFFFFF8000
007FF807FFFFFFFFC000
007FF00FFFFFFFFFC000
00FFE000000001FFE000
00FFE000000001FFF000
01FFC000000000FFF000
03FFC0000000007FF800
03FF80000000007FF800
07FF00000000003FFC00
07FF00000000003FFE00
0FFE00000000001FFE00
1FFE00000000000FFF00
1FFC00000000000FFF00
3FF8000000000007FF80
3FF8000000000003FF80
7FF0000000000003FFC0
FFF0000000000001FFE0
ENDCHAR
STARTCHAR AE
ENCODING 198
SWIDTH 1345 0
DWIDTH 105 0
BBX 100 57 1 0
BITMAP
000000003FFFFFFFFFFFFFFFF0
000000007FFFFFFFFFFFFFFFF0
00000000FFFFFFFFFFFFFFFFF0
00000001FFFFFFFFFFFFFFFFF0
00000003FFFFFFFFFFFFFFFFF0
00000003FFFFFFFFFFFFFFFFF0
00000007FFFFFFFFFFFFFFFFF0
00000007FFFFFFFFFFFFFFFFF0
0000000FFFFFFFFFFFFFFFFFF0
0000000FFFFFFFFFFFFFFFFFF0
0000001FFC0007FE0000000000
0000003FF80007FE0000000000
0000003FF00007FE0000000000
0000007FF00007FE0000000000
0000007FE00007FE0000000000
000000FFE00007FE0000000000
000000FFC00007FE0000000000
000001FFC00007FE0000000000
000003FF800007FE0000000000
000003FF800007FE0000000000
000007FF000007FE0000000000
000007FE000007FE0000000000
00000FFE000007FE0000000000
00001FFC000007FE0000000000
00001FFC000007FE03FFFFFFC0
00003FF8000007FE03FFFFFFC0
00003FF8000007FE03FFFFFFC0
00007FF0000007FE03FFFFFFC0
00007FE0000007FE03FFFFFFC0
0000FFE0000007FE03FFFFFFC0
0001FFC0000007FE03FFFFFFC0
0001FFC0000007FE03FFFFFFC0
0003FF80000007FE0000000000
0003FF80000007FE0000000000
0007FF00000007FE0000000000
0007FE00FFFFFFFE0000000000
000FFE01FFFFFFFE0000000000
001FFC03FFFFFFFE0000000000
001FFC03FFFFFFFE0000000000
003FF807FFFFFFFE0000000000
003FF807FFFFFFFE0000000000
007FF00FFFFFFFFE0000000000
00FFE01FFFFFFFFE0000000000
00FFE000000007FE0000000000
01FFC000000007FE0000000000
01FFC000000007FE0000000000
03FF8000000007FE0000000000
03FF8000000007FFFFFFFFFFF0
07FF0000000007FFFFFFFFFFF0
0FFF0000000007FFFFFFFFFFF0
0FFE0000000007FFFFFFFFFFF0
1FFC0000000007FFFFFFFFFFF0
1FFC0000000007FFFFFFFFFFF0
3FF80000000007FFFFFFFFFFF0
3FF80000000007FFFFFFFFFFF0
7FF00000000007FFFFFFFFFFF0
FFF00000000007FFFFFFFFFFF0
ENDCHAR
STARTCHAR Ccedilla
ENCODING 199
SWIDTH 829 0
DWIDTH 65 0
BBX 59 73 3 -16
BITMAP
000003FFFFFFFFE0
00003FFFFFFFFFE0
0000FFFFFFFFFFE0
0003FFFFFFFFFFE0
000FFFFFFFFFFFE0
001FFFFFFFFFFFE0
007FFFFFFFFFFFE0
00FFFFFFFFFFFFE0
01FFFFFFFFFFFFE0
03FFFFFFFFFFFFE0
03FFFE0000000000
07FFF00000000000
0FFFC00000000000
0FFF800000000000
1FFF000000000000
1FFE000000000000
3FFC000000000000
3FF8000000000000
3FF8000000000000
7FF0000000000000
7FF0000000000000
7FE0000000000000
7FE0000000000000
7FE0000000000000
FFE0000000000000
FFC0000000000000
FFC0000000000000
FFC0000000000000
FFC0000000000000
FFC0000000000000
FFC0000000000000
FFC0000000000000
7FE0000000000000
7FE0000000000000
7FE0000000000000
7FE0000000000000
7FF0000000000000
3FF0000000000000
3FF8000000000000
3FF8000000000000
1FFC000000000000
1FFE000000000000
0FFF000000000000
0FFF800000000000
07FFE00000000000
03FFF00000000000
03FFFE0000000000
01FFFFFFFFFFFFE0
00FFFFFFFFFFFFE0
007FFFFFFFFFFFE0
003FFFFFFFFFFFE0
001FFFFFFFFFFFE0
0007FFFFFFFFFFE0
0003FFFFFFFFFFE0
0000FFFFFFFFFFE0
00001FFFFFFFFFE0
000003FFFFFFFFE0
0000000000000000
0000000000000000
0000000000000000
0000000000000000
0000003FF0000000
0000003FE0000000
0000001FE0000000
0000001FE0000000
0000000FC0000000
0000000FC0000000
0000000F80000000
0000000780000000
0000000700000000
0000000300000000
0000000300000000
0000000200000000
ENDCHAR
STARTCHAR Egrave
ENCODING 200
SWIDTH 759 0
DWIDTH 59 0
BBX 51 71 5 0
BITMAP
000C0000000000
000F8000000000
000FF800000000
000FFF00000000
000FFFE0000000
000FFFFE000000
0003FFFF000000
00003FFF000000
000001FF000000
0000000F000000
00000000000000
00000000000000
00000000000000
00000000000000
FFFFFFFFFFFFE0
FFFFFFFFFFFFE0
FFFFFFFFFFFFE0
FFFFFFFFFFFFE0
FFFFFFFFFFFFE0
FFFFFFFFFFFFE0
FFFFFFFFFFFFE0
FFFFFFFFFFFFE0
FFFFFFFFFFFFE0
FFFFFFFFFFFFE0
FFC00000000000
FFC00000000000
FFC00000000000
FFC00000000000
FFC00000000000
FFC00000000000
FFC00000000000
FFC00000000000
FFC00000000000
FFC00000000000
FFC00000000000
FFC00000000000
FFC00000000000
FFC00000000000
FFC07FFFFFFF00
FFC07FFFFFFF00
FFC07FFFFFFF00
FFC07FFFFFFF00
FFC07FFFFFFF00
FFC07FFFFFFF00
FFC07FFFFFFF00
FFC07FFFFFFF00
FFC00000000000
FFC00000000000
FFC00000000000
FFC00000000000
FFC00000000000
FFC00000000000
FFC00000000000
FFC00000000000
FFC00000000000
FFC00000000000
FFC00000000000
FFC00000000000
FFC00000000000
FFC00000000000
FFC00000000000
FFFFFFFFFFFFE0
FFFFFFFFFFFFE0
FFFFFFFFFFFFE0
FFFFFFFFFFFFE0
FFFFFFFFFFFFE0
FFFFFFFFFFFFE0
FFFFFFFFFFFFE0
FFFFFFFFFFFFE0
FFFFFFFFFFFFE0
FFFFFFFFFFFFE0
ENDCHAR
STARTCHAR Eacute
ENCODING 201
SWIDTH 759 0
DWIDTH 59 0
BBX 51 71 5 0
BITMAP
00000000180000
00000000F80000
0000000FF80000
0000007FF80000
000003FFF80000
00001FFFF80000
00007FFFE00000
00007FFE000000
00007FC0000000
00007800000000
00000000000000
00000000000000
00000000000000
00000000000000
FFFFFFFFFFFFE0
FFFFFFFFFFFFE0
FFFFFFFFFFFFE0
FFFFFFFFFFFFE0
FFFFFFFFFFFFE0
FFFFFFFFFFFFE0
FFFFFFFFFFFFE0
FFFFFFFFFFFFE0
FFFFFFFFFFFFE0
FFFFFFFFFFFFE0
FFC00000000000
FFC00000000000
FFC00000000000
FFC00000000000
FFC00000000000
FFC00000000000
FFC00000000000
FFC00000000000
FFC00000000000
FFC00000000000
FFC00000000000
FFC00000000000
FFC00000000000
FFC00000000000
FFC07FFFFFFF00
FFC07FFFFFFF00
FFC07FFFFFFF00
FFC07FFFFFFF00
FFC07FFFFFFF00
FFC07FFFFFFF00
FFC07FFFFFFF00
FFC07FFFFFFF00
FFC00000000000
FFC00000000000
FFC00000000000
FFC00000000000
FFC00000000000
FFC00000000000
FFC00000000000
FFC00000000000
FFC00000000000
FFC00000000000
FFC00000000000
FFC00000000000
FFC00000000000
FFC00000000000
FFC00000000000
FFFFFFFFFFFFE0
FFFFFFFFFFFFE0
FFFFFFFFFFFFE0
FFFFFFFFFFFFE0
FFFFFFFFFFFFE0
FFFFFFFFFFFFE0
FFFFFFFFFFFFE0
FFFFFFFFFFFFE0
FFFFFFFFFFFFE0
FFFFFFFFFFFFE0
ENDCHAR
STARTCHAR Ecircumflex
ENCODING 202
SWIDTH 759 0
DWIDTH 59 0
BBX 51 71 5 0
BITMAP
000007F0000000
00000FF8000000
00001FFC000000
00001F7C000000
00003E3E000000
00007E3F000000
00007C1F800000
0000F80F800000
0001F80FC00000
0001F007E00000
0003E003E00000
00000000000000
00000000000000
00000000000000
FFFFFFFFFFFFE0
FFFFFFFFFFFFE0
FFFFFFFFFFFFE0
FFFFFFFFFFFFE0
FFFFFFFFFFFFE0
FFFFFFFFFFFFE0
FFFFFFFFFFFFE0
FFFFFFFFFFFFE0
FFFFFFFFFFFFE0
FFFFFFFFFFFFE0
FFC00000000000
FFC00000000000
FFC00000000000
FFC00000000000
FFC00000000000
FFC00000000000
FFC00000000000
FFC00000000000
FFC00000000000
FFC00000000000
FFC00000000000
FFC00000000000
FFC00000000000
FFC00000000000
FFC07FFFFFFF00
FFC07FFFFFFF00
FFC07FFFFFFF00
FFC07FFFFFFF00
FFC07FFFFFFF00
FFC07FFFFFFF00
FFC07FFFFFFF00
FFC07FFFFFFF00
FFC00000000000
FFC00000000000
FFC00000000000
FFC00000000000
FFC00000000000
FFC00000000000
FFC00000000000
FFC00000000000
FFC00000000000
FFC00000000000
FFC00000000000
FFC00000000000
FFC00000000000
FFC00000000000
FFC00000000000
FFFFFFFFFFFFE0
FFFFFFFFFFFFE0
FFFFFFFFFFFFE0
FFFFFFFFFFFFE0
FFFFFFFFFFFFE0
FFFFFFFFFFFFE0
FFFFFFFFFFFFE0
FFFFFFFFFFFFE0
FFFFFFFFFFFFE0
FFFFFFFFFFFFE0
ENDCHAR
STARTCHAR Edieresis
ENCODING 203
SWIDTH 759 0
DWIDTH 59 0
BBX 51 70 5 0
BITMAP
0001F003C00000
0003F80FE00000
0003F80FF00000
0007F80FF00000
0003F80FF00000
0003F80FE00000
0001F003C00000
00000000000000
00000000000000
00000000000000
00000000000000
00000000000000
00000000000000
FFFFFFFFFFFFE0
FFFFFFFFFFFFE0
FFFFFFFFFFFFE0
FFFFFFFFFFFFE0
FFFFFFFFFFFFE0
FFFFFFFFFFFFE0
FFFFFFFFFFFFE0
FFFFFFFFFFFFE0
FFFFFFFFFFFFE0
FFFFFFFFFFFFE0
FFC00000000000
FFC00000000000
FFC00000000000
FFC00000000000
FFC00000000000
FFC00000000000
FFC00000000000
FFC00000000000
FFC00000000000
FFC00000000000
FFC00000000000
FFC00000000000
FFC00000000000
FFC00000000000
FFC07FFFFFFF00
FFC07FFFFFFF00
FFC07FFFFFFF00
FFC07FFFFFFF00
FFC07FFFFFFF00
FFC07FFFFFFF00
FFC07FFFFFFF00
FFC07FFFFFFF00
FFC00000000000
FFC00000000000
FFC00000000000
FFC00000000000
FFC00000000000
FFC00000000000
FFC00000000000
FFC00000000000
FFC00000000000
FFC00000000000
FFC00000000000
FFC00000000000
FFC00000000000
FFC00000000000
FFC00000000000
FFFFFFFFFFFFE0
FFFFFFFFFFFFE0
FFFFFFFFFFFFE0
FFFFFFFFFFFFE0
FFFFFFFFFFFFE0
FFFFFFFFFFFFE0
FFFFFFFFFFFFE0
FFFFFFFFFFFFE0
FFFFFFFFFFFFE0
FFFFFFFFFFFFE0
ENDCHAR
STARTCHAR Igrave
ENCODING 204
SWIDTH 267 0
DWIDTH 21 0
BBX 20 71 -2 0
BITMAP
C00000
F80000
FF8000
FFF000
FFFE00
FFFFE0
3FFFF0
03FFF0
001FF0
0000F0
000000
000000
000000
000000
01FF80
01FF80
01FF80
01FF80
01FF80
01FF80
01FF80
01FF80
01FF80
01FF80
01FF80
01FF80
01FF80
01FF80
01FF80
01FF80
01FF80
01FF80
01FF80
01FF80
01FF80
01FF80
01FF80
01FF80
01FF80
01FF80
01FF80
01FF80
01FF80
01FF80
01FF80
01FF80
01FF80
01FF80
01FF80
01FF80
01FF80
01FF80
01FF80
01FF80
01FF80
01FF80
01FF80
01FF80
01FF80
01FF80
01FF80
01FF80
01FF80
01FF80
01FF80
01FF80
01FF80
01FF80
01FF80
01FF80
01FF80
ENDCHAR
STARTCHAR Iacute
ENCODING 205
SWIDTH 267 0
DWIDTH 21 0
BBX 20 71 3 0
BITMAP
000030
0001F0
001FF0
00FFF0
07FFF0
3FFFF0
FFFFC0
FFFC00
FF8000
F00000
000000
000000
000000
000000
3FF000
3FF000
3FF000
3FF000
3FF000
3FF000
3FF000
3FF000
3FF000
3FF000
3FF000
3FF000
3FF000
3FF000
3FF000
3FF000
3FF000
3FF000
3FF000
3FF000
3FF000
3FF000
3FF000
3FF000
3FF000
3FF000
3FF000
3FF000
3FF000
3FF000
3FF000
3FF000
3FF000
3FF000
3FF000
3FF000
3FF000
3FF000
3FF000
3FF000
3FF000
3FF000
3FF000
3FF000
3FF000
3FF000
3FF000
3FF000
3FF000
3FF000
3FF000
3FF000
3FF000
3FF000
3FF000
3FF000
3FF000
ENDCHAR
STARTCHAR Icircumflex
ENCODING 206
SWIDTH 267 0
DWIDTH 21 0
BBX 21 71 0 0
BITMAP
01FC00
03FE00
07FF00
07DF00
0F8F80
1F8FC0
1F07C0
3E03E0
7E03F0
7C01F0
F800F8
000000
000000
000000
07FE00
07FE00
07FE00
07FE00
07FE00
07FE00
07FE00
07FE00
07FE00
07FE00
07FE00
07FE00
07FE00
07FE00
07FE00
07FE00
07FE00
07FE00
07FE00
07FE00
07FE00
07FE00
07FE00
07FE00
07FE00
07FE00
07FE00
07FE00
07FE00
07FE00
07FE00
07FE00
07FE00
07FE00
07FE00
07FE00
07FE00
07FE00
07FE00
07FE00
07FE00
07FE00
07FE00
07FE00
07FE00
07FE00
07FE00
07FE00
07FE00
07FE00
07FE00
07FE00
07FE00
07FE00
07FE00
07FE00
07FE00
ENDCHAR
STARTCHAR Idieresis
ENCODING 207
SWIDTH 267 0
DWIDTH 21 0
BBX 23 70 -1 0
BITMAP
3C00F8
7F01FC
FF01FE
FF01FE
FF01FE
7F01FC
3E00F8
000000
000000
000000
000000
000000
000000
03FF00
03FF00
03FF00
03FF00
03FF00
03FF00
03FF00
03FF00
03FF00
03FF00
03FF00
03FF00
03FF00
03FF00
03FF00
03FF00
03FF00
03FF00
03FF00
03FF00
03FF00
03FF00
03FF00
03FF00
03FF00
03FF00
03FF00
03FF00
03FF00
03FF00
03FF00
03FF00
03FF00
03FF00
03FF00
03FF00
03FF00
03FF00
03FF00
03FF00
03FF00
03FF00
03FF00
03FF00
03FF00
03FF00
03FF00
03FF00
03FF00
03FF00
03FF00
03FF00
03FF00
03FF00
03FF00
03FF00
03FF00
ENDCHAR
STARTCHAR Eth
ENCODING 208
SWIDTH 877 0
DWIDTH 68 0
BBX 64 57 1 0
BITMAP
0FFFFFFFFFC00000
0FFFFFFFFFFC0000
0FFFFFFFFFFF8000
0FFFFFFFFFFFE000
0FFFFFFFFFFFF000
0FFFFFFFFFFFFC00
0FFFFFFFFFFFFE00
0FFFFFFFFFFFFF00
0FFFFFFFFFFFFF80
0FFFFFFFFFFFFFC0
0FFC0000007FFFE0
0FFC0000000FFFF0
0FFC00000003FFF0
0FFC00000001FFF8
0FFC000000007FF8
0FFC000000003FFC
0FFC000000003FFC
0FFC000000001FFE
0FFC000000000FFE
0FFC000000000FFE
0FFC0000000007FE
0FFC0000000007FF
0FFC0000000007FF
0FFC0000000003FF
FFFFFFFFF00003FF
FFFFFFFFF00003FF
FFFFFFFFF00003FF
FFFFFFFFF00003FF
FFFFFFFFF00003FF
FFFFFFFFF00003FF
FFFFFFFFF00003FF
FFFFFFFFF00003FF
0FFC0000000003FF
0FFC0000000003FF
0FFC0000000007FF
0FFC0000000007FE
0FFC0000000007FE
0FFC000000000FFE
0FFC000000000FFE
0FFC000000001FFC
0FFC000000003FFC
0FFC000000007FF8
0FFC00000000FFF8
0FFC00000001FFF0
0FFC00000003FFF0
0FFC0000000FFFE0
0FFC0000007FFFC0
0FFFFFFFFFFFFFC0
0FFFFFFFFFFFFF80
0FFFFFFFFFFFFF00
0FFFFFFFFFFFFE00
0FFFFFFFFFFFF800
0FFFFFFFFFFFF000
0FFFFFFFFFFFC000
0FFFFFFFFFFF0000
0FFFFFFFFFFC0000
0FFFFFFFFFC00000
ENDCHAR
STARTCHAR Ntilde
ENCODING 209
SWIDTH 873 0
DWIDTH 68 0
BBX 58 69 5 0
BITMAP
000007E002000000
00000FF802000000
00001FFE0E000000
00001FFFFE000000
00001C1FFE000000
00001007FC000000
00001001F8000000
0000000000000000
0000000000000000
0000000000000000
0000000000000000
0000000000000000
3E00000000007FC0
7F00000000007FC0
FF80000000007FC0
FFC0000000007FC0
FFE0000000007FC0
FFF8000000007FC0
FFFC000000007FC0
FFFE000000007FC0
FFFF000000007FC0
FFFF800000007FC0
FFFFC00000007FC0
FFFFE00000007FC0
FFFFF00000007FC0
FFFFF80000007FC0
FFFFFC0000007FC0
FFFFFE0000007FC0
FFBFFF0000007FC0
FF9FFF8000007FC0
FF8FFFC000007FC0
FF87FFE000007FC0
FF83FFF000007FC0
FF81FFF800007FC0
FF80FFFC00007FC0
FF807FFE00007FC0
FF803FFF00007FC0
FF801FFF80007FC0
FF800FFFC0007FC0
FF8007FFE0007FC0
FF8003FFF0007FC0
FF8001FFF8007FC0
FF8000FFFC007FC0
FF80007FFE007FC0
FF80003FFF007FC0
FF80001FFF807FC0
FF80000FFFC07FC0
FF800007FFE07FC0
FF800003FFF07FC0
FF800001FFF87FC0
FF800000FFFC7FC0
FF8000007FFE7FC0
FF8000003FFF7FC0
FF8000001FFFFFC0
FF8000000FFFFFC0
FF80000007FFFFC0
FF80000003FFFFC0
FF80000001FFFFC0
FF80000000FFFFC0
FF800000007FFFC0
FF800000003FFFC0
FF800000001FFFC0
FF800000000FFFC0
FF8000000007FFC0
FF8000000003FFC0
FF8000000001FFC0
FF8000000000FFC0
FF80000000003F80
FF80000000001F00
ENDCHAR
STARTCHAR Ograve
ENCODING 210
SWIDTH 968 0
DWIDTH 76 0
BBX 69 71 3 0
BITMAP
000003000000000000
000003F00000000000
000003FE0000000000
000003FFC000000000
000003FFFC00000000
000003FFFF80000000
000000FFFFC0000000
00000007FFC0000000
000000007FC0000000
0000000003C0000000
000000000000000000
000000000000000000
000000000000000000
000000000000000000
000003FFFFFF000000
00003FFFFFFFE00000
0000FFFFFFFFFC0000
0003FFFFFFFFFF0000
000FFFFFFFFFFFC000
001FFFFFFFFFFFE000
007FFFFFFFFFFFF000
00FFFFFFFFFFFFF800
01FFFFFFFFFFFFFC00
03FFFFFFFFFFFFFE00
03FFFE000003FFFF00
07FFF00000007FFF80
0FFFC00000001FFF80
0FFF8000000007FFC0
1FFF0000000003FFC0
1FFE0000000001FFE0
3FFC0000000000FFE0
3FF80000000000FFF0
3FF800000000007FF0
7FF000000000007FF0
7FF000000000003FF8
7FE000000000003FF8
7FE000000000001FF8
7FE000000000001FF8
FFE000000000001FF8
FFC000000000001FF8
FFC000000000001FF8
FFC000000000001FF8
FFC000000000001FF8
FFC000000000001FF8
FFC000000000001FF8
FFC000000000001FF8
7FE000000000001FF8
7FE000000000001FF8
7FE000000000001FF8
7FE000000000003FF8
7FF000000000003FF0
3FF000000000007FF0
3FF800000000007FF0
3FF80000000000FFE0
1FFC0000000000FFE0
1FFE0000000001FFC0
0FFF0000000003FFC0
0FFF800000000FFF80
07FFE00000001FFF80
03FFF00000007FFF00
03FFFE000003FFFE00
01FFFFFFFFFFFFFE00
00FFFFFFFFFFFFFC00
007FFFFFFFFFFFF800
003FFFFFFFFFFFF000
001FFFFFFFFFFFC000
0007FFFFFFFFFF8000
0003FFFFFFFFFE0000
0000FFFFFFFFF80000
00001FFFFFFFE00000
000003FFFFFE000000
ENDCHAR
STARTCHAR Oacute
ENCODING 211
SWIDTH 968 0
DWIDTH 76 0
BBX 69 71 3 0
BITMAP
000000000006000000
00000000003E000000
0000000001FE000000
000000001FFE000000
00000000FFFE000000
00000007FFFE000000
0000001FFFF8000000
0000001FFF80000000
0000001FF000000000
0000001F0000000000
000000000000000000
000000000000000000
000000000000000000
000000000000000000
000003FFFFFF000000
00003FFFFFFFE00000
0000FFFFFFFFFC0000
0003FFFFFFFFFF0000
000FFFFFFFFFFFC000
001FFFFFFFFFFFE000
007FFFFFFFFFFFF000
00FFFFFFFFFFFFF800
01FFFFFFFFFFFFFC00
03FFFFFFFFFFFFFE00
03FFFE000003FFFF00
07FFF00000007FFF80
0FFFC00000001FFF80
0FFF8000000007FFC0
1FFF0000000003FFC0
1FFE0000000001FFE0
3FFC0000000000FFE0
3FF80000000000FFF0
3FF800000000007FF0
7FF000000000007FF0
7FF000000000003FF8
7FE000000000003FF8
7FE000000000001FF8
7FE000000000001FF8
FFE000000000001FF8
FFC000000000001FF8
FFC000000000001FF8
FFC000000000001FF8
FFC000000000001FF8
FFC000000000001FF8
FFC000000000001FF8
FFC000000000001FF8
7FE000000000001FF8
7FE000000000001FF8
7FE000000000001FF8
7FE000000000003FF8
7FF000000000003FF0
3FF000000000007FF0
3FF800000000007FF0
3FF80000000000FFE0
1FFC0000000000FFE0
1FFE0000000001FFC0
0FFF0000000003FFC0
0FFF800000000FFF80
07FFE00000001FFF80
03FFF00000007FFF00
03FFFE000003FFFE00
01FFFFFFFFFFFFFE00
00FFFFFFFFFFFFFC00
007FFFFFFFFFFFF800
003FFFFFFFFFFFF000
001FFFFFFFFFFFC000
0007FFFFFFFFFF8000
0003FFFFFFFFFE0000
0000FFFFFFFFF80000
00001FFFFFFFE00000
000003FFFFFE000000
ENDCHAR
STARTCHAR Ocircumflex
ENCODING 212
SWIDTH 968 0
DWIDTH 76 0
BBX 69 71 3 0
BITMAP
00000001FE00000000
00000003FE00000000
00000003FF00000000
00000007DF80000000
0000000F8F80000000
0000001F87C0000000
0000001F07E0000000
0000003E03E0000000
0000007E01F0000000
0000007C01F8000000
000000F800F8000000
000000000000000000
000000000000000000
000000000000000000
000003FFFFFF000000
00003FFFFFFFE00000
0000FFFFFFFFFC0000
0003FFFFFFFFFF0000
000FFFFFFFFFFFC000
001FFFFFFFFFFFE000
007FFFFFFFFFFFF000
00FFFFFFFFFFFFF800
01FFFFFFFFFFFFFC00
03FFFFFFFFFFFFFE00
03FFFE000003FFFF00
07FFF00000007FFF80
0FFFC00000001FFF80
0FFF8000000007FFC0
1FFF0000000003FFC0
1FFE0000000001FFE0
3FFC0000000000FFE0
3FF80000000000FFF0
3FF800000000007FF0
7FF000000000007FF0
7FF000000000003FF8
7FE000000000003FF8
7FE000000000001FF8
7FE000000000001FF8
FFE000000000001FF8
FFC000000000001FF8
FFC000000000001FF8
FFC000000000001FF8
FFC000000000001FF8
FFC000000000001FF8
FFC000000000001FF8
FFC000000000001FF8
7FE000000000001FF8
7FE000000000001FF8
7FE000000000001FF8
7FE000000000003FF8
7FF000000000003FF0
3FF000000000007FF0
3FF800000000007FF0
3FF80000000000FFE0
1FFC0000000000FFE0
1FFE0000000001FFC0
0FFF0000000003FFC0
0FFF800000000FFF80
07FFE00000001FFF80
03FFF00000007FFF00
03FFFE000003FFFE00
01FFFFFFFFFFFFFE00
00FFFFFFFFFFFFFC00
007FFFFFFFFFFFF800
003FFFFFFFFFFFF000
001FFFFFFFFFFFC000
0007FFFFFFFFFF8000
0003FFFFFFFFFE0000
0000FFFFFFFFF80000
00001FFFFFFFE00000
000003FFFFFE000000
ENDCHAR
STARTCHAR Otilde
ENCODING 213
SWIDTH 968 0
DWIDTH 76 0
BBX 69 69 3 0
BITMAP
0000001F0008000000
0000003FE008000000
0000007FF838000000
0000007FFFF8000000
00000070FFF8000000
000000401FF0000000
0000008007C0000000
000000000000000000
000000000000000000
000000000000000000
000000000000000000
000000000000000000
000003FFFFFF000000
00003FFFFFFFE00000
0000FFFFFFFFFC0000
0003FFFFFFFFFF0000
000FFFFFFFFFFFC000
001FFFFFFFFFFFE000
007FFFFFFFFFFFF000
00FFFFFFFFFFFFF800
01FFFFFFFFFFFFFC00
03FFFFFFFFFFFFFE00
03FFFE000003FFFF00
07FFF00000007FFF80
0FFFC00000001FFF80
0FFF8000000007FFC0
1FFF0000000003FFC0
1FFE0000000001FFE0
3FFC0000000000FFE0
3FF80000000000FFF0
3FF800000000007FF0
7FF000000000007FF0
7FF000000000003FF8
7FE000000000003FF8
7FE000000000001FF8
7FE000000000001FF8
FFE000000000001FF8
FFC000000000001FF8
FFC000000000001FF8
FFC000000000001FF8
FFC000000000001FF8
FFC000000000001FF8
FFC000000000001FF8
FFC000000000001FF8
7FE000000000001FF8
7FE000000000001FF8
7FE000000000001FF8
7FE000000000003FF8
7FF000000000003FF0
3FF000000000007FF0
3FF800000000007FF0
3FF80000000000FFE0
1FFC0000000000FFE0
1FFE0000000001FFC0
0FFF0000000003FFC0
0FFF800000000FFF80
07FFE00000001FFF80
03FFF00000007FFF00
03FFFE000003FFFE00
01FFFFFFFFFFFFFE00
00FFFFFFFFFFFFFC00
007FFFFFFFFFFFF800
003FFFFFFFFFFFF000
001FFFFFFFFFFFC000
0007FFFFFFFFFF8000
0003FFFFFFFFFE0000
0000FFFFFFFFF80000
00001FFFFFFFE00000
000003FFFFFE000000
ENDCHAR
STARTCHAR Odieresis
ENCODING 214
SWIDTH 968 0
DWIDTH 76 0
BBX 69 70 3 0
BITMAP
0000007C00F0000000
000000FE01F8000000
000000FE03FC000000
000000FE03FC000000
000000FE03FC000000
000000FE01F8000000
0000007C00F0000000
000000000000000000
000000000000000000
000000000000000000
000000000000000000
000000000000000000
000000000000000000
000003FFFFFF000000
00003FFFFFFFE00000
0000FFFFFFFFFC0000
0003FFFFFFFFFF0000
000FFFFFFFFFFFC000
001FFFFFFFFFFFE000
007FFFFFFFFFFFF000
00FFFFFFFFFFFFF800
01FFFFFFFFFFFFFC00
03FFFFFFFFFFFFFE00
03FFFE000003FFFF00
07FFF00000007FFF80
0FFFC00000001FFF80
0FFF8000000007FFC0
1FFF0000000003FFC0
1FFE0000000001FFE0
3FFC0000000000FFE0
3FF80000000000FFF0
3FF800000000007FF0
7FF000000000007FF0
7FF000000000003FF8
7FE000000000003FF8
7FE000000000001FF8
7FE000000000001FF8
FFE000000000001FF8
FFC000000000001FF8
FFC000000000001FF8
FFC000000000001FF8
FFC000000000001FF8
FFC000000000001FF8
FFC000000000001FF8
FFC000000000001FF8
7FE000000000001FF8
7FE000000000001FF8
7FE000000000001FF8
7FE000000000003FF8
7FF000000000003FF0
3FF000000000007FF0
3FF800000000007FF0
3FF80000000000FFE0
1FFC0000000000FFE0
1FFE0000000001FFC0
0FFF0000000003FFC0
0FFF800000000FFF80
07FFE00000001FFF80
03FFF00000007FFF00
03FFFE000003FFFE00
01FFFFFFFFFFFFFE00
00FFFFFFFFFFFFFC00
007FFFFFFFFFFFF800
003FFFFFFFFFFFF000
001FFFFFFFFFFFC000
0007FFFFFFFFFF8000
0003FFFFFFFFFE0000
0000FFFFFFFFF80000
00001FFFFFFFE00000
000003FFFFFE000000
ENDCHAR
STARTCHAR multiply
ENCODING 215
SWIDTH 690 0
DWIDTH 54 0
BBX 36 36 9 11
BITMAP
0800000100
1C00000380
3E00000780
7F00000FC0
FF80001FF0
7FC0003FE0
3FE0007FC0
1FF000FF80
0FF801FF00
07FC03FE00
03FE07FC00
01FF0FF800
00FF9FF000
007FFFE000
003FFFC000
001FFF8000
000FFF0000
0007FE0000
0007FE0000
000FFF0000
001FFF8000
003FFFC000
007FFFE000
00FF9FF000
01FF0FF800
03FE07FC00
07FC03FE00
0FF801FF00
1FF000FF80
3FE0007FC0
7FC0003FE0
FF80001FF0
7F00000FE0
3E000007C0
1C00000380
0800000100
ENDCHAR
STARTCHAR Oslash
ENCODING 216
SWIDTH 968 0
DWIDTH 76 0
BBX 69 65 3 -4
BITMAP
000000000000000800
000000000000001C00
000000000000003E00
000000000000007C00
000003FFFFFE00F800
00003FFFFFFFE0F800
0000FFFFFFFFFDF000
0003FFFFFFFFFFE000
000FFFFFFFFFFFC000
001FFFFFFFFFFFE000
007FFFFFFFFFFFF000
00FFFFFFFFFFFFF800
01FFFFFFFFFFFFFC00
03FFFFFFFFFFFFFE00
03FFFE000003FFFF00
07FFF0000001FFFF80
0FFFC0000003FFFF80
0FFF80000007E7FFC0
1FFF00000007C3FFC0
1FFE0000000F81FFE0
3FFC0000001F00FFE0
3FF80000003E00FFF0
3FF80000007C007FF0
7FF0000000FC003FF0
7FF0000001F8003FF8
7FE0000001F0003FF8
7FE0000003E0001FF8
7FE0000007C0001FF8
FFE000000F80001FF8
FFC000001F00001FF8
FFC000003F00001FF8
FFC000003E00001FF8
FFC000007C00001FF8
FFC00000F800001FF8
FFC00001F000001FF8
FFC00003E000001FF8
7FE00007E000001FF8
7FE0000FC000001FF8
7FE0000F8000001FF8
7FE0001F0000003FF8
7FF0003E0000003FF0
3FF0007C0000007FF0
3FF800FC0000007FF0
3FF801F8000000FFE0
1FFC01F0000000FFE0
1FFE03E0000001FFC0
0FFF07C0000003FFC0
0FFF8F8000000FFF80
07FFFF0000001FFF80
03FFFF0000007FFF00
03FFFE000003FFFE00
01FFFFFFFFFFFFFE00
00FFFFFFFFFFFFFC00
007FFFFFFFFFFFF800
003FFFFFFFFFFFF000
001FFFFFFFFFFFC000
000FFFFFFFFFFF8000
000FFFFFFFFFFE0000
001FFFFFFFFFF80000
003E1FFFFFFFE00000
007C03FFFFFE000000
00F800000000000000
00F800000000000000
007000000000000000
002000000000000000
ENDCHAR
STARTCHAR Ugrave
ENCODING 217
SWIDTH 889 0
DWIDTH 69 0
BBX 61 72 4 -1
BITMAP
0000300000000000
00003E0000000000
00003FE000000000
00003FFC00000000
00003FFF80000000
00003FFFF8000000
00000FFFFC000000
000000FFFC000000
00000007FC000000
000000003C000000
0000000000000000
0000000000000000
0000000000000000
0000000000000000
FFC0000000000FF8
FFC0000000000FF8
FFC0000000000FF8
FFC0000000000FF8
FFC0000000000FF8
FFC0000000000FF8
FFC0000000000FF8
FFC0000000000FF8
FFC0000000000FF8
FFC0000000000FF8
FFC0000000000FF8
FFC0000000000FF8
FFC0000000000FF8
FFC0000000000FF8
FFC0000000000FF8
FFC0000000000FF8
FFC0000000000FF8
FFC0000000000FF8
FFC0000000000FF8
FFC0000000000FF8
FFC0000000000FF8
FFC0000000000FF8
FFC0000000000FF8
FFC0000000000FF8
FFC0000000000FF8
FFC0000000000FF8
FFC0000000000FF8
FFC0000000000FF8
FFC0000000000FF8
FFC0000000000FF8
FFC0000000000FF8
FFC0000000000FF8
FFC0000000000FF8
FFC0000000001FF8
FFC0000000001FF8
FFC0000000001FF8
FFE0000000001FF8
FFE0000000001FF8
7FE0000000001FF8
7FE0000000003FF8
7FF0000000003FF0
7FF0000000007FF0
7FF8000000007FF0
3FFC00000000FFF0
3FFE00000001FFE0
1FFF80000007FFE0
1FFFE000001FFFC0
0FFFFE0001FFFFC0
0FFFFFFFFFFFFF80
07FFFFFFFFFFFF00
03FFFFFFFFFFFE00
01FFFFFFFFFFFC00
00FFFFFFFFFFF800
003FFFFFFFFFF000
000FFFFFFFFFC000
0003FFFFFFFF0000
00007FFFFFF00000
000001FFFE000000
ENDCHAR
STARTCHAR Uacute
ENCODING 218
SWIDTH 889 0
DWIDTH 69 0
BBX 61 72 4 -1
BITMAP
0000000000600000
0000000003E00000
000000001FE00000
00000001FFE00000
0000000FFFE00000
0000007FFFE00000
000001FFFF800000
000001FFF8000000
000001FF00000000
000001E000000000
0000000000000000
0000000000000000
0000000000000000
0000000000000000
FFC0000000000FF8
FFC0000000000FF8
FFC0000000000FF8
FFC0000000000FF8
FFC0000000000FF8
FFC0000000000FF8
FFC0000000000FF8
FFC0000000000FF8
FFC0000000000FF8
FFC0000000000FF8
FFC0000000000FF8
FFC0000000000FF8
FFC0000000000FF8
FFC0000000000FF8
FFC0000000000FF8
FFC0000000000FF8
FFC0000000000FF8
FFC0000000000FF8
FFC0000000000FF8
FFC0000000000FF8
FFC0000000000FF8
FFC0000000000FF8
FFC0000000000FF8
FFC0000000000FF8
FFC0000000000FF8
FFC0000000000FF8
FFC0000000000FF8
FFC0000000000FF8
FFC0000000000FF8
FFC0000000000FF8
FFC0000000000FF8
FFC0000000000FF8
FFC0000000000FF8
FFC0000000001FF8
FFC0000000001FF8
FFC0000000001FF8
FFE0000000001FF8
FFE0000000001FF8
7FE0000000001FF8
7FE0000000003FF8
7FF0000000003FF0
7FF0000000007FF0
7FF8000000007FF0
3FFC00000000FFF0
3FFE00000001FFE0
1FFF80000007FFE0
1FFFE000001FFFC0
0FFFFE0001FFFFC0
0FFFFFFFFFFFFF80
07FFFFFFFFFFFF00
03FFFFFFFFFFFE00
01FFFFFFFFFFFC00
00FFFFFFFFFFF800
003FFFFFFFFFF000
000FFFFFFFFFC000
0003FFFFFFFF0000
00007FFFFFF00000
000001FFFE000000
ENDCHAR
STARTCHAR Ucircumflex
ENCODING 219
SWIDTH 889 0
DWIDTH 69 0
BBX 61 72 4 -1
BITMAP
0000001FE0000000
0000003FE0000000
0000007FF0000000
0000007DF8000000
000000F8F8000000
000001F87C000000
000001F07E000000
000003E03E000000
000007E01F000000
000007C01F800000
00000F800F800000
0000000000000000
0000000000000000
0000000000000000
FFC0000000000FF8
FFC0000000000FF8
FFC0000000000FF8
FFC0000000000FF8
FFC0000000000FF8
FFC0000000000FF8
FFC0000000000FF8
FFC0000000000FF8
FFC0000000000FF8
FFC0000000000FF8
FFC0000000000FF8
FFC0000000000FF8
FFC0000000000FF8
FFC0000000000FF8
FFC0000000000FF8
FFC0000000000FF8
FFC0000000000FF8
FFC0000000000FF8
FFC0000000000FF8
FFC0000000000FF8
FFC0000000000FF8
FFC0000000000FF8
FFC0000000000FF8
FFC0000000000FF8
FFC0000000000FF8
FFC0000000000FF8
FFC0000000000FF8
FFC0000000000FF8
FFC0000000000FF8
FFC0000000000FF8
FFC0000000000FF8
FFC0000000000FF8
FFC0000000000FF8
FFC0000000001FF8
FFC0000000001FF8
FFC0000000001FF8
FFE0000000001FF8
FFE0000000001FF8
7FE0000000001FF8
7FE0000000003FF8
7FF0000000003FF0
7FF0000000007FF0
7FF8000000007FF0
3FFC00000000FFF0
3FFE00000001FFE0
1FFF80000007FFE0
1FFFE000001FFFC0
0FFFFE0001FFFFC0
0FFFFFFFFFFFFF80
07FFFFFFFFFFFF00
03FFFFFFFFFFFE00
01FFFFFFFFFFFC00
00FFFFFFFFFFF800
003FFFFFFFFFF000
000FFFFFFFFFC000
0003FFFFFFFF0000
00007FFFFFF00000
000001FFFE000000
ENDCHAR
STARTCHAR Udieresis
ENCODING 220
SWIDTH 889 0
DWIDTH 69 0
BBX 61 71 4 -1
BITMAP
000007C00F000000
00000FE03F800000
00000FE03FC00000
00001FE03FC00000
00000FE03FC00000
00000FE03F800000
000007C00F000000
0000000000000000
0000000000000000
0000000000000000
0000000000000000
0000000000000000
0000000000000000
FFC0000000000FF8
FFC0000000000FF8
FFC0000000000FF8
FFC0000000000FF8
FFC0000000000FF8
FFC0000000000FF8
FFC0000000000FF8
FFC0000000000FF8
FFC0000000000FF8
FFC0000000000FF8
FFC0000000000FF8
FFC0000000000FF8
FFC0000000000FF8
FFC0000000000FF8
FFC0000000000FF8
FFC0000000000FF8
FFC0000000000FF8
FFC0000000000FF8
FFC0000000000FF8
FFC0000000000FF8
FFC0000000000FF8
FFC0000000000FF8
FFC0000000000FF8
FFC0000000000FF8
FFC0000000000FF8
FFC0000000000FF8
FFC0000000000FF8
FFC0000000000FF8
FFC0000000000FF8
FFC0000000000FF8
FFC0000000000FF8
FFC0000000000FF8
FFC0000000000FF8
FFC0000000001FF8
FFC0000000001FF8
FFC0000000001FF8
FFE0000000001FF8
FFE0000000001FF8
7FE0000000001FF8
7FE0000000003FF8
7FF0000000003FF0
7FF0000000007FF0
7FF8000000007FF0
3FFC00000000FFF0
3FFE00000001FFE0
1FFF80000007FFE0
1FFFE000001FFFC0
0FFFFE0001FFFFC0
0FFFFFFFFFFFFF80
07FFFFFFFFFFFF00
03FFFFFFFFFFFE00
01FFFFFFFFFFFC00
00FFFFFFFFFFF800
003FFFFFFFFFF000
000FFFFFFFFFC000
0003FFFFFFFF0000
00007FFFFFF00000
000001FFFE000000
ENDCHAR
STARTCHAR Yacute
ENCODING 221
SWIDTH 926 0
DWIDTH 72 0
BBX 70 71 1 0
BITMAP
000000000003000000
00000000001F000000
0000000001FF000000
000000000FFF000000
000000007FFF000000
00000007FFFF000000
0000000FFFFC000000
0000000FFFC0000000
0000000FF800000000
0000000F0000000000
000000000000000000
000000000000000000
000000000000000000
000000000000000000
FFFC00000000007FFC
7FFE0000000000FFF8
3FFE0000000001FFF0
1FFF0000000001FFE0
0FFF8000000003FFC0
07FFC000000007FFC0
03FFE00000000FFF80
03FFF00000001FFF00
01FFF80000003FFE00
00FFF80000003FFC00
007FFC0000007FF800
003FFE000000FFF000
001FFF000001FFF000
001FFF800003FFE000
000FFFC00007FFC000
0007FFC0000FFF8000
0003FFE0000FFF0000
0001FFF0001FFE0000
0000FFF8003FFC0000
00007FFC007FFC0000
00007FFE00FFF80000
00003FFE01FFF00000
00001FFF01FFE00000
00000FFF83FFC00000
000007FFC7FF800000
000003FFEFFF000000
000001FFFFFF000000
000001FFFFFE000000
000000FFFFFC000000
0000007FFFF8000000
0000003FFFF0000000
0000001FFFE0000000
0000000FFFC0000000
00000007FFC0000000
00000007FF80000000
00000003FF00000000
00000003FF00000000
00000003FF00000000
00000003FF00000000
00000003FF00000000
00000003FF00000000
00000003FF00000000
00000003FF00000000
00000003FF00000000
00000003FF00000000
00000003FF00000000
00000003FF00000000
00000003FF00000000
00000003FF00000000
00000003FF00000000
00000003FF00000000
00000003FF00000000
00000003FF00000000
00000003FF00000000
00000003FF00000000
00000003FF00000000
00000003FF00000000
ENDCHAR
STARTCHAR Thorn
ENCODING 222
SWIDTH 843 0
DWIDTH 66 0
BBX 58 57 5 0
BITMAP
FFC0000000000000
FFC0000000000000
FFC0000000000000
FFC0000000000000
FFC0000000000000
FFC0000000000000
FFC0000000000000
FFC0000000000000
FFFFFFFFFFE00000
FFFFFFFFFFFC0000
FFFFFFFFFFFF8000
FFFFFFFFFFFFC000
FFFFFFFFFFFFF000
FFFFFFFFFFFFF800
FFFFFFFFFFFFFC00
FFFFFFFFFFFFFE00
FFFFFFFFFFFFFE00
FFFFFFFFFFFFFF00
FFC00000003FFF00
FFC00000000FFF80
FFC000000007FF80
FFC000000003FF80
FFC000000001FFC0
FFC000000000FFC0
FFC000000000FFC0
FFC000000000FFC0
FFC0000000007FC0
FFC0000000007FC0
FFC0000000007FC0
FFC0000000007FC0
FFC0000000007FC0
FFC000000000FFC0
FFC000000000FFC0
FFC000000000FFC0
FFC000000000FFC0
FFC000000001FFC0
FFC000000003FF80
FFC000000007FF80
FFC00000000FFF80
FFC00000003FFF00
FFC07FFFFFFFFF00
FFC07FFFFFFFFE00
FFC07FFFFFFFFC00
FFC07FFFFFFFF800
FFC07FFFFFFFF800
FFC07FFFFFFFE000
FFC07FFFFFFFC000
FFC07FFFFFFF0000
FFC07FFFFFFC0000
FFC07FFFFFE00000
FFC0000000000000
FFC0000000000000
FFC0000000000000
FFC0000000000000
FFC0000000000000
FFC0000000000000
FFC0000000000000
ENDCHAR
STARTCHAR germandbls
ENCODING 223
SWIDTH 1760 0
DWIDTH 137 0
BBX 130 57 4 0
BITMAP
0007FFFFFFFFFFC000007FFFFFFFFFFE00
007FFFFFFFFFFFC00003FFFFFFFFFFFE00
01FFFFFFFFFFFFC0000FFFFFFFFFFFFE00
03FFFFFFFFFFFFC0003FFFFFFFFFFFFE00
07FFFFFFFFFFFFC0007FFFFFFFFFFFFE00
0FFFFFFFFFFFFFC000FFFFFFFFFFFFFE00
1FFFFFFFFFFFFFC001FFFFFFFFFFFFFE00
3FFFFFFFFFFFFFC001FFFFFFFFFFFFFE00
3FFFFFFFFFFFFFC003FFFFFFFFFFFFFE00
7FFFFFFFFFFFFFC003FFFFFFFFFFFFFE00
7FFC00000000000007FFE0000000000000
7FF800000000000007FF80000000000000
FFF000000000000007FF00000000000000
FFE000000000000007FF00000000000000
FFE000000000000007FE00000000000000
FFC000000000000007FE00000000000000
FFC000000000000007FE00000000000000
FFC000000000000007FE00000000000000
FFC000000000000007FE00000000000000
FFE000000000000007FE00000000000000
7FE000000000000007FF00000000000000
7FF000000000000003FF00000000000000
7FF800000000000003FF80000000000000
3FFC00000000000003FFE0000000000000
3FFFFFFFFFFF800001FFFFFFFFFFFC0000
1FFFFFFFFFFFF00000FFFFFFFFFFFF8000
0FFFFFFFFFFFFC0000FFFFFFFFFFFFE000
07FFFFFFFFFFFF00007FFFFFFFFFFFF800
03FFFFFFFFFFFF80001FFFFFFFFFFFFC00
01FFFFFFFFFFFFC0000FFFFFFFFFFFFE00
007FFFFFFFFFFFE00003FFFFFFFFFFFE00
0007FFFFFFFFFFE000007FFFFFFFFFFF00
000000000001FFF00000000000000FFF00
0000000000007FF000000000000003FF80
0000000000003FF000000000000001FF80
0000000000001FF800000000000001FF80
0000000000001FF800000000000000FF80
0000000000001FF800000000000000FFC0
0000000000000FF800000000000000FFC0
0000000000000FF800000000000000FFC0
0000000000000FF800000000000000FFC0
0000000000001FF800000000000000FFC0
0000000000001FF800000000000000FFC0
0000000000001FF800000000000001FF80
0000000000003FF800000000000001FF80
0000000000007FF000000000000003FF80
000000000001FFF00000000000000FFF80
7FFFFFFFFFFFFFF003FFFFFFFFFFFFFF00
7FFFFFFFFFFFFFE003FFFFFFFFFFFFFF00
7FFFFFFFFFFFFFE003FFFFFFFFFFFFFE00
7FFFFFFFFFFFFFC003FFFFFFFFFFFFFE00
7FFFFFFFFFFFFF8003FFFFFFFFFFFFFC00
7FFFFFFFFFFFFF0003FFFFFFFFFFFFF800
7FFFFFFFFFFFFE0003FFFFFFFFFFFFF000
7FFFFFFFFFFFFC0003FFFFFFFFFFFFC000
7FFFFFFFFFFFF00003FFFFFFFFFFFF0000
7FFFFFFFFFFF000003FFFFFFFFFFF80000
ENDCHAR
STARTCHAR agrave
ENCODING 224
SWIDTH 989 0
DWIDTH 77 0
BBX 75 71 1 0
BITMAP
00000060000000000000
0000007C000000000000
0000007FC00000000000
0000007FF80000000000
0000007FFF0000000000
0000007FFFF000000000
0000001FFFF800000000
00000001FFF800000000
000000000FF800000000
00000000007800000000
00000000000000000000
00000000000000000000
00000000000000000000
000000001F0000000000
000000003F8000000000
000000007FC000000000
000000007FC000000000
00000000FFE000000000
00000001FFF000000000
00000001FFF000000000
00000003FFF800000000
00000003FFF800000000
00000007FFFC00000000
0000000FFFFE00000000
0000000FFFFE00000000
0000001FFFFF00000000
0000001FFFFF00000000
0000003FFFFF80000000
0000007FF3FFC0000000
0000007FF3FFC0000000
000000FFE1FFE0000000
000000FFE0FFE0000000
000001FFC0FFF0000000
000003FFC07FF8000000
000003FF807FF8000000
000007FF003FFC000000
000007FF003FFC000000
00000FFE001FFE000000
00001FFE000FFF000000
00001FFC000FFF000000
00003FF80007FF800000
00003FF80007FF800000
00007FF00003FFC00000
0000FFF00001FFE00000
0000FFE00001FFE00000
0001FFC00000FFF00000
0001FFC00000FFF00000
0003FF8000007FF80000
0007FF8000007FFC0000
0007FF00FFFFFFFC0000
000FFF00FFFFFFFE0000
000FFE01FFFFFFFE0000
001FFC03FFFFFFFF0000
003FFC03FFFFFFFF8000
003FF807FFFFFFFF8000
007FF807FFFFFFFFC000
007FF00FFFFFFFFFC000
00FFE000000001FFE000
00FFE000000001FFF000
01FFC000000000FFF000
03FFC0000000007FF800
03FF80000000007FF800
07FF00000000003FFC00
07FF00000000003FFE00
0FFE00000000001FFE00
1FFE00000000000FFF00
1FFC00000000000FFF00
3FF8000000000007FF80
3FF8000000000003FF80
7FF0000000000003FFC0
FFF0000000000001FFE0
ENDCHAR
STARTCHAR aacute
ENCODING 225
SWIDTH 989 0
DWIDTH 77 0
BBX 75 71 1 0
BITMAP
000000000000C0000000
000000000007C0000000
00000000007FC0000000
0000000003FFC0000000
000000001FFFC0000000
00000000FFFFC0000000
00000003FFFF00000000
00000003FFF000000000
00000003FE0000000000
00000003C00000000000
00000000000000000000
00000000000000000000
00000000000000000000
000000001F0000000000
000000003F8000000000
000000007FC000000000
000000007FC000000000
00000000FFE000000000
00000001FFF000000000
00000001FFF000000000
00000003FFF800000000
00000003FFF800000000
00000007FFFC00000000
0000000FFFFE00000000
0000000FFFFE00000000
0000001FFFFF00000000
0000001FFFFF00000000
0000003FFFFF80000000
0000007FF3FFC0000000
0000007FF3FFC0000000
000000FFE1FFE0000000
000000FFE0FFE0000000
000001FFC0FFF0000000
000003FFC07FF8000000
000003FF807FF8000000
000007FF003FFC000000
000007FF003FFC000000
00000FFE001FFE000000
00001FFE000FFF000000
00001FFC000FFF000000
00003FF80007FF800000
00003FF80007FF800000
00007FF00003FFC00000
0000FFF00001FFE00000
0000FFE00001FFE00000
0001FFC00000FFF00000
0001FFC00000FFF00000
0003FF8000007FF80000
0007FF8000007FFC0000
0007FF00FFFFFFFC0000
000FFF00FFFFFFFE0000
000FFE01FFFFFFFE0000
001FFC03FFFFFFFF0000
003FFC03FFFFFFFF8000
003FF807FFFFFFFF8000
007FF807FFFFFFFFC000
007FF00FFFFFFFFFC000
00FFE000000001FFE000
00FFE000000001FFF000
01FFC000000000FFF000
03FFC0000000007FF800
03FF80000000007FF800
07FF00000000003FFC00
07FF00000000003FFE00
0FFE00000000001FFE00
1FFE00000000000FFF00
1FFC00000000000FFF00
3FF8000000000007FF80
3FF8000000000003FF80
7FF0000000000003FFC0
FFF0000000000001FFE0
ENDCHAR
STARTCHAR acircumflex
ENCODING 226
SWIDTH 989 0
DWIDTH 77 0
BBX 75 71 1 0
BITMAP
000000003F8000000000
000000007FC000000000
00000000FFE000000000
00000000FBE000000000
00000001F1F000000000
00000003F1F800000000
00000003E0FC00000000
00000007C07C00000000
0000000FC07E00000000
0000000F803F00000000
0000001F001F00000000
00000000000000000000
00000000000000000000
000000001F0000000000
000000003F8000000000
000000007FC000000000
000000007FC000000000
00000000FFE000000000
00000001FFF000000000
00000001FFF000000000
00000003FFF800000000
00000003FFF800000000
00000007FFFC00000000
0000000FFFFE00000000
0000000FFFFE00000000
0000001FFFFF00000000
0000001FFFFF00000000
0000003FFFFF80000000
0000007FF3FFC0000000
0000007FF3FFC0000000
000000FFE1FFE0000000
000000FFE0FFE0000000
000001FFC0FFF0000000
000003FFC07FF8000000
000003FF807FF8000000
000007FF003FFC000000
000007FF003FFC000000
00000FFE001FFE000000
00001FFE000FFF000000
00001FFC000FFF000000
00003FF80007FF800000
00003FF80007FF800000
00007FF00003FFC00000
0000FFF00001FFE00000
0000FFE00001FFE00000
0001FFC00000FFF00000
0001FFC00000FFF00000
0003FF8000007FF80000
0007FF8000007FFC0000
0007FF00FFFFFFFC0000
000FFF00FFFFFFFE0000
000FFE01FFFFFFFE0000
001FFC03FFFFFFFF0000
003FFC03FFFFFFFF8000
003FF807FFFFFFFF8000
007FF807FFFFFFFFC000
007FF00FFFFFFFFFC000
00FFE000000001FFE000
00FFE000000001FFF000
01FFC000000000FFF000
03FFC0000000007FF800
03FF80000000007FF800
07FF00000000003FFC00
07FF00000000003FFE00
0FFE00000000001FFE00
1FFE00000000000FFF00
1FFC00000000000FFF00
3FF8000000000007FF80
3FF8000000000003FF80
7FF0000000000003FFC0
FFF0000000000001FFE0
ENDCHAR
STARTCHAR atilde
ENCODING 227
SWIDTH 989 0
DWIDTH 77 0
BBX 75 69 1 0
BITMAP
00000003E00100000000
0000000FF80300000000
0000000FFF0700000000
0000000FFFFF00000000
0000000C1FFF00000000
0000000807FE00000000
0000001000F800000000
00000000000000000000
00000000000000000000
00000000000000000000
00000000000000000000
000000001F0000000000
000000003F8000000000
000000007FC000000000
000000007FC000000000
00000000FFE000000000
00000001FFF000000000
00000001FFF000000000
00000003FFF800000000
00000003FFF800000000
00000007FFFC00000000
0000000FFFFE00000000
0000000FFFFE00000000
0000001FFFFF00000000
0000001FFFFF00000000
0000003FFFFF80000000
0000007FF3FFC0000000
0000007FF3FFC0000000
000000FFE1FFE0000000
000000FFE0FFE0000000
000001FFC0FFF0000000
000003FFC07FF8000000
000003FF807FF8000000
000007FF003FFC000000
000007FF003FFC000000
00000FFE001FFE000000
00001FFE000FFF000000
00001FFC000FFF000000
00003FF80007FF800000
00003FF80007FF800000
00007FF00003FFC00000
0000FFF00001FFE00000
0000FFE00001FFE00000
0001FFC00000FFF00000
0001FFC00000FFF00000
0003FF8000007FF80000
0007FF8000007FFC0000
0007FF00FFFFFFFC0000
000FFF00FFFFFFFE0000
000FFE01FFFFFFFE0000
001FFC03FFFFFFFF0000
003FFC03FFFFFFFF8000
003FF807FFFFFFFF8000
007FF807FFFFFFFFC000
007FF00FFFFFFFFFC000
00FFE000000001FFE000
00FFE000000001FFF000
01FFC000000000FFF000
03FFC0000000007FF800
03FF80000000007FF800
07FF00000000003FFC00
07FF00000000003FFE00
0FFE00000000001FFE00
1FFE00000000000FFF00
1FFC00000000000FFF00
3FF8000000000007FF80
3FF8000000000003FF80
7FF0000000000003FFC0
FFF0000000000001FFE0
ENDCHAR
STARTCHAR adieresis
ENCODING 228
SWIDTH 989 0
DWIDTH 77 0
BBX 75 70 1 0
BITMAP
0000000F801E00000000
0000001FC07F00000000
0000001FC07F80000000
0000003FC07F80000000
0000001FC07F80000000
0000001FC07F00000000
0000000F801E00000000
00000000000000000000
00000000000000000000
00000000000000000000
00000000000000000000
00000000000000000000
000000001F0000000000
000000003F8000000000
000000007FC000000000
000000007FC000000000
00000000FFE000000000
00000001FFF000000000
00000001FFF000000000
00000003FFF800000000
00000003FFF800000000
00000007FFFC00000000
0000000FFFFE00000000
0000000FFFFE00000000
0000001FFFFF00000000
0000001FFFFF00000000
0000003FFFFF80000000
0000007FF3FFC0000000
0000007FF3FFC0000000
000000FFE1FFE0000000
000000FFE0FFE0000000
000001FFC0FFF0000000
000003FFC07FF8000000
000003FF807FF8000000
000007FF003FFC000000
000007FF003FFC000000
00000FFE001FFE000000
00001FFE000FFF000000
00001FFC000FFF000000
00003FF80007FF800000
00003FF80007FF800000
00007FF00003FFC00000
0000FFF00001FFE00000
0000FFE00001FFE00000
0001FFC00000FFF00000
0001FFC00000FFF00000
0003FF8000007FF80000
0007FF8000007FFC0000
0007FF00FFFFFFFC0000
000FFF00FFFFFFFE0000
000FFE01FFFFFFFE0000
001FFC03FFFFFFFF0000
003FFC03FFFFFFFF8000
003FF807FFFFFFFF8000
007FF807FFFFFFFFC000
007FF00FFFFFFFFFC000
00FFE000000001FFE000
00FFE000000001FFF000
01FFC000000000FFF000
03FFC0000000007FF800
03FF80000000007FF800
07FF00000000003FFC00
07FF00000000003FFE00
0FFE00000000001FFE00
1FFE00000000000FFF00
1FFC00000000000FFF00
3FF8000000000007FF80
3FF8000000000003FF80
7FF0000000000003FFC0
FFF0000000000001FFE0
ENDCHAR
STARTCHAR aring
ENCODING 229
SWIDTH 989 0
DWIDTH 77 0
BBX 75 77 1 0
BITMAP
000000007FC000000000
00000001FFF000000000
00000007FFFC00000000
00000007803C00000000
0000000F001E00000000
0000000E000E00000000
0000000E000E00000000
0000000E000700000000
0000000E000700000000
0000000E000E00000000
0000000E000E00000000
0000000F001E00000000
00000007803C00000000
00000003FFF800000000
00000001FFF000000000
00000000FFC000000000
00000000000000000000
00000000000000000000
00000000000000000000
000000001F0000000000
000000003F8000000000
000000007FC000000000
000000007FC000000000
00000000FFE000000000
00000001FFF000000000
00000001FFF000000000
00000003FFF800000000
00000003FFF800000000
00000007FFFC00000000
0000000FFFFE00000000
0000000FFFFE00000000
0000001FFFFF00000000
0000001FFFFF00000000
0000003FFFFF80000000
0000007FF3FFC0000000
0000007FF3FFC0000000
000000FFE1FFE0000000
000000FFE0FFE0000000
000001FFC0FFF0000000
000003FFC07FF8000000
000003FF807FF8000000
000007FF003FFC000000
000007FF003FFC000000
00000FFE001FFE000000
00001FFE000FFF000000
00001FFC000FFF000000
00003FF80007FF800000
00003FF80007FF800000
00007FF00003FFC00000
0000FFF00001FFE00000
0000FFE00001FFE00000
0001FFC00000FFF00000
0001FFC00000FFF00000
0003FF8000007FF80000
0007FF8000007FFC0000
0007FF00FFFFFFFC0000
000FFF00FFFFFFFE0000
000FFE01FFFFFFFE0000
001FFC03FFFFFFFF0000
003FFC03FFFFFFFF8000
003FF807FFFFFFFF8000
007FF807FFFFFFFFC000
007FF00FFFFFFFFFC000
00FFE000000001FFE000
00FFE000000001FFF000
01FFC000000000FFF000
03FFC0000000007FF800
03FF80000000007FF800
07FF00000000003FFC00
07FF00000000003FFE00
0FFE00000000001FFE00
1FFE00000000000FFF00
1FFC00000000000FFF00
3FF8000000000007FF80
3FF8000000000003FF80
7FF0000000000003FFC0
FFF0000000000001FFE0
ENDCHAR
STARTCHAR ae
ENCODING 230
SWIDTH 1345 0
DWIDTH 105 0
BBX 100 57 1 0
BITMAP
000000003FFFFFFFFFFFFFFFF0
000000007FFFFFFFFFFFFFFFF0
00000000FFFFFFFFFFFFFFFFF0
00000001FFFFFFFFFFFFFFFFF0
00000003FFFFFFFFFFFFFFFFF0
00000003FFFFFFFFFFFFFFFFF0
00000007FFFFFFFFFFFFFFFFF0
00000007FFFFFFFFFFFFFFFFF0
0000000FFFFFFFFFFFFFFFFFF0
0000000FFFFFFFFFFFFFFFFFF0
0000001FFC0007FE0000000000
0000003FF80007FE0000000000
0000003FF00007FE0000000000
0000007FF00007FE0000000000
0000007FE00007FE0000000000
000000FFE00007FE0000000000
000000FFC00007FE0000000000
000001FFC00007FE0000000000
000003FF800007FE0000000000
000003FF800007FE0000000000
000007FF000007FE0000000000
000007FE000007FE0000000000
00000FFE000007FE0000000000
00001FFC000007FE0000000000
00001FFC000007FE03FFFFFFC0
00003FF8000007FE03FFFFFFC0
00003FF8000007FE03FFFFFFC0
00007FF0000007FE03FFFFFFC0
00007FE0000007FE03FFFFFFC0
0000FFE0000007FE03FFFFFFC0
0001FFC0000007FE03FFFFFFC0
0001FFC0000007FE03FFFFFFC0
0003FF80000007FE0000000000
0003FF80000007FE0000000000
0007FF00000007FE0000000000
0007FE00FFFFFFFE0000000000
000FFE01FFFFFFFE0000000000
001FFC03FFFFFFFE0000000000
001FFC03FFFFFFFE0000000000
003FF807FFFFFFFE0000000000
003FF807FFFFFFFE0000000000
007FF00FFFFFFFFE0000000000
00FFE01FFFFFFFFE0000000000
00FFE000000007FE0000000000
01FFC000000007FE0000000000
01FFC000000007FE0000000000
03FF8000000007FE0000000000
03FF8000000007FFFFFFFFFFF0
07FF0000000007FFFFFFFFFFF0
0FFF0000000007FFFFFFFFFFF0
0FFE0000000007FFFFFFFFFFF0
1FFC0000000007FFFFFFFFFFF0
1FFC0000000007FFFFFFFFFFF0
3FF80000000007FFFFFFFFFFF0
3FF80000000007FFFFFFFFFFF0
7FF00000000007FFFFFFFFFFF0
FFF00000000007FFFFFFFFFFF0
ENDCHAR
STARTCHAR ccedilla
ENCODING 231
SWIDTH 829 0
DWIDTH 65 0
BBX 59 73 3 -16
BITMAP
000003FFFFFFFFE0
00003FFFFFFFFFE0
0000FFFFFFFFFFE0
0003FFFFFFFFFFE0
000FFFFFFFFFFFE0
001FFFFFFFFFFFE0
007FFFFFFFFFFFE0
00FFFFFFFFFFFFE0
01FFFFFFFFFFFFE0
03FFFFFFFFFFFFE0
03FFFE0000000000
07FFF00000000000
0FFFC00000000000
0FFF800000000000
1FFF000000000000
1FFE000000000000
3FFC000000000000
3FF8000000000000
3FF8000000000000
7FF0000000000000
7FF0000000000000
7FE0000000000000
7FE0000000000000
7FE0000000000000
FFE0000000000000
FFC0000000000000
FFC0000000000000
FFC0000000000000
FFC0000000000000
FFC0000000000000
FFC0000000000000
FFC0000000000000
7FE0000000000000
7FE0000000000000
7FE0000000000000
7FE0000000000000
7FF0000000000000
3FF0000000000000
3FF8000000000000
3FF8000000000000
1FFC000000000000
1FFE000000000000
0FFF000000000000
0FFF800000000000
07FFE00000000000
03FFF00000000000
03FFFE0000000000
01FFFFFFFFFFFFE0
00FFFFFFFFFFFFE0
007FFFFFFFFFFFE0
003FFFFFFFFFFFE0
001FFFFFFFFFFFE0
0007FFFFFFFFFFE0
0003FFFFFFFFFFE0
0000FFFFFFFFFFE0
00001FFFFFFFFFE0
000003FFFFFFFFE0
0000000000000000
0000000000000000
0000000000000000
0000000000000000
0000003FF0000000
0000003FE0000000
0000001FE0000000
0000001FE0000000
0000000FC0000000
0000000FC0000000
0000000F80000000
0000000780000000
0000000700000000
0000000300000000
0000000300000000
0000000200000000
ENDCHAR
STARTCHAR egrave
ENCODING 232
SWIDTH 759 0
DWIDTH 59 0
BBX 51 71 5 0
BITMAP
000C0000000000
000F8000000000
000FF800000000
000FFF00000000
000FFFE0000000
000FFFFE000000
0003FFFF000000
00003FFF000000
000001FF000000
0000000F000000
00000000000000
00000000000000
00000000000000
00000000000000
FFFFFFFFFFFFE0
FFFFFFFFFFFFE0
FFFFFFFFFFFFE0
FFFFFFFFFFFFE0
FFFFFFFFFFFFE0
FFFFFFFFFFFFE0
FFFFFFFFFFFFE0
FFFFFFFFFFFFE0
FFFFFFFFFFFFE0
FFFFFFFFFFFFE0
FFC00000000000
FFC00000000000
FFC00000000000
FFC00000000000
FFC00000000000
FFC00000000000
FFC00000000000
FFC00000000000
FFC00000000000
FFC00000000000
FFC00000000000
FFC00000000000
FFC00000000000
FFC00000000000
FFC07FFFFFFF00
FFC07FFFFFFF00
FFC07FFFFFFF00
FFC07FFFFFFF00
FFC07FFFFFFF00
FFC07FFFFFFF00
FFC07FFFFFFF00
FFC07FFFFFFF00
FFC00000000000
FFC00000000000
FFC00000000000
FFC00000000000
FFC00000000000
FFC00000000000
FFC00000000000
FFC00000000000
FFC00000000000
FFC00000000000
FFC00000000000
FFC00000000000
FFC00000000000
FFC00000000000
FFC00000000000
FFFFFFFFFFFFE0
FFFFFFFFFFFFE0
FFFFFFFFFFFFE0
FFFFFFFFFFFFE0
FFFFFFFFFFFFE0
FFFFFFFFFFFFE0
FFFFFFFFFFFFE0
FFFFFFFFFFFFE0
FFFFFFFFFFFFE0
FFFFFFFFFFFFE0
ENDCHAR
STARTCHAR eacute
ENCODING 233
SWIDTH 759 0
DWIDTH 59 0
BBX 51 71 5 0
BITMAP
00000000180000
00000000F80000
0000000FF80000
0000007FF80000
000003FFF80000
00001FFFF80000
00007FFFE00000
00007FFE000000
00007FC0000000
00007800000000
00000000000000
00000000000000
00000000000000
00000000000000
FFFFFFFFFFFFE0
FFFFFFFFFFFFE0
FFFFFFFFFFFFE0
FFFFFFFFFFFFE0
FFFFFFFFFFFFE0
FFFFFFFFFFFFE0
FFFFFFFFFFFFE0
FFFFFFFFFFFFE0
FFFFFFFFFFFFE0
FFFFFFFFFFFFE0
FFC00000000000
FFC00000000000
FFC00000000000
FFC00000000000
FFC00000000000
FFC00000000000
FFC00000000000
FFC00000000000
FFC00000000000
FFC00000000000
FFC00000000000
FFC00000000000
FFC00000000000
FFC00000000000
FFC07FFFFFFF00
FFC07FFFFFFF00
FFC07FFFFFFF00
FFC07FFFFFFF00
FFC07FFFFFFF00
FFC07FFFFFFF00
FFC07FFFFFFF00
FFC07FFFFFFF00
FFC00000000000
FFC00000000000
FFC00000000000
FFC00000000000
FFC00000000000
FFC00000000000
FFC00000000000
FFC00000000000
FFC00000000000
FFC00000000000
FFC00000000000
FFC00000000000
FFC00000000000
FFC00000000000
FFC00000000000
FFFFFFFFFFFFE0
FFFFFFFFFFFFE0
FFFFFFFFFFFFE0
FFFFFFFFFFFFE0
FFFFFFFFFFFFE0
FFFFFFFFFFFFE0
FFFFFFFFFFFFE0
FFFFFFFFFFFFE0
FFFFFFFFFFFFE0
FFFFFFFFFFFFE0
ENDCHAR
STARTCHAR ecircumflex
ENCODING 234
SWIDTH 759 0
DWIDTH 59 0
BBX 51 71 5 0
BITMAP
000007F0000000
00000FF8000000
00001FFC000000
00001F7C000000
00003E3E000000
00007E3F000000
00007C1F800000
0000F80F800000
0001F80FC00000
0001F007E00000
0003E003E00000
00000000000000
00000000000000
00000000000000
FFFFFFFFFFFFE0
FFFFFFFFFFFFE0
FFFFFFFFFFFFE0
FFFFFFFFFFFFE0
FFFFFFFFFFFFE0
FFFFFFFFFFFFE0
FFFFFFFFFFFFE0
FFFFFFFFFFFFE0
FFFFFFFFFFFFE0
FFFFFFFFFFFFE0
FFC00000000000
FFC00000000000
FFC00000000000
FFC00000000000
FFC00000000000
FFC00000000000
FFC00000000000
FFC00000000000
FFC00000000000
FFC00000000000
FFC00000000000
FFC00000000000
FFC00000000000
FFC00000000000
FFC07FFFFFFF00
FFC07FFFFFFF00
FFC07FFFFFFF00
FFC07FFFFFFF00
FFC07FFFFFFF00
FFC07FFFFFFF00
FFC07FFFFFFF00
FFC07FFFFFFF00
FFC00000000000
FFC00000000000
FFC00000000000
FFC00000000000
FFC00000000000
FFC00000000000
FFC00000000000
FFC00000000000
FFC00000000000
FFC00000000000
FFC00000000000
FFC00000000000
FFC00000000000
FFC00000000000
FFC00000000000
FFFFFFFFFFFFE0
FFFFFFFFFFFFE0
FFFFFFFFFFFFE0
FFFFFFFFFFFFE0
FFFFFFFFFFFFE0
FFFFFFFFFFFFE0
FFFFFFFFFFFFE0
FFFFFFFFFFFFE0
FFFFFFFFFFFFE0
FFFFFFFFFFFFE0
ENDCHAR
STARTCHAR edieresis
ENCODING 235
SWIDTH 759 0
DWIDTH 59 0
BBX 51 70 5 0
BITMAP
0001F003C00000
0003F80FE00000
0003F80FF00000
0007F80FF00000
0003F80FF00000
0003F80FE00000
0001F003C00000
00000000000000
00000000000000
00000000000000
00000000000000
00000000000000
00000000000000
FFFFFFFFFFFFE0
FFFFFFFFFFFFE0
FFFFFFFFFFFFE0
FFFFFFFFFFFFE0
FFFFFFFFFFFFE0
FFFFFFFFFFFFE0
FFFFFFFFFFFFE0
FFFFFFFFFFFFE0
FFFFFFFFFFFFE0
FFFFFFFFFFFFE0
FFC00000000000
FFC00000000000
FFC00000000000
FFC00000000000
FFC00000000000
FFC00000000000
FFC00000000000
FFC00000000000
FFC00000000000
FFC00000000000
FFC00000000000
FFC00000000000
FFC00000000000
FFC00000000000
FFC07FFFFFFF00
FFC07FFFFFFF00
FFC07FFFFFFF00
FFC07FFFFFFF00
FFC07FFFFFFF00
FFC07FFFFFFF00
FFC07FFFFFFF00
FFC07FFFFFFF00
FFC00000000000
FFC00000000000
FFC00000000000
FFC00000000000
FFC00000000000
FFC00000000000
FFC00000000000
FFC00000000000
FFC00000000000
FFC00000000000
FFC00000000000
FFC00000000000
FFC00000000000
FFC00000000000
FFC00000000000
FFFFFFFFFFFFE0
FFFFFFFFFFFFE0
FFFFFFFFFFFFE0
FFFFFFFFFFFFE0
FFFFFFFFFFFFE0
FFFFFFFFFFFFE0
FFFFFFFFFFFFE0
FFFFFFFFFFFFE0
FFFFFFFFFFFFE0
FFFFFFFFFFFFE0
ENDCHAR
STARTCHAR igrave
ENCODING 236
SWIDTH 267 0
DWIDTH 21 0
BBX 20 71 -2 0
BITMAP
C00000
F80000
FF8000
FFF000
FFFE00
FFFFE0
3FFFF0
03FFF0
001FF0
0000F0
000000
000000
000000
000000
01FF80
01FF80
01FF80
01FF80
01FF80
01FF80
01FF80
01FF80
01FF80
01FF80
01FF80
01FF80
01FF80
01FF80
01FF80
01FF80
01FF80
01FF80
01FF80
01FF80
01FF80
01FF80
01FF80
01FF80
01FF80
01FF80
01FF80
01FF80
01FF80
01FF80
01FF80
01FF80
01FF80
01FF80
01FF80
01FF80
01FF80
01FF80
01FF80
01FF80
01FF80
01FF80
01FF80
01FF80
01FF80
01FF80
01FF80
01FF80
01FF80
01FF80
01FF80
01FF80
01FF80
01FF80
01FF80
01FF80
01FF80
ENDCHAR
STARTCHAR iacute
ENCODING 237
SWIDTH 267 0
DWIDTH 21 0
BBX 20 71 3 0
BITMAP
000030
0001F0
001FF0
00FFF0
07FFF0
3FFFF0
FFFFC0
FFFC00
FF8000
F00000
000000
000000
000000
000000
3FF000
3FF000
3FF000
3FF000
3FF000
3FF000
3FF000
3FF000
3FF000
3FF000
3FF000
3FF000
3FF000
3FF000
3FF000
3FF000
3FF000
3FF000
3FF000
3FF000
3FF000
3FF000
3FF000
3FF000
3FF000
3FF000
3FF000
3FF000
3FF000
3FF000
3FF000
3FF000
3FF000
3FF000
3FF000
3FF000
3FF000
3FF000
3FF000
3FF000
3FF000
3FF000
3FF000
3FF000
3FF000
3FF000
3FF000
3FF000
3FF000
3FF000
3FF000
3FF000
3FF000
3FF000
3FF000
3FF000
3FF000
ENDCHAR
STARTCHAR icircumflex
ENCODING 238
SWIDTH 267 0
DWIDTH 21 0
BBX 21 71 0 0
BITMAP
01FC00
03FE00
07FF00
07DF00
0F8F80
1F8FC0
1F07C0
3E03E0
7E03F0
7C01F0
F800F8
000000
000000
000000
07FE00
07FE00
07FE00
07FE00
07FE00
07FE00
07FE00
07FE00
07FE00
07FE00
07FE00
07FE00
07FE00
07FE00
07FE00
07FE00
07FE00
07FE00
07FE00
07FE00
07FE00
07FE00
07FE00
07FE00
07FE00
07FE00
07FE00
07FE00
07FE00
07FE00
07FE00
07FE00
07FE00
07FE00
07FE00
07FE00
07FE00
07FE00
07FE00
07FE00
07FE00
07FE00
07FE00
07FE00
07FE00
07FE00
07FE00
07FE00
07FE00
07FE00
07FE00
07FE00
07FE00
07FE00
07FE00
07FE00
07FE00
ENDCHAR
STARTCHAR idieresis
ENCODING 239
SWIDTH 267 0
DWIDTH 21 0
BBX 23 70 -1 0
BITMAP
3C00F8
7F01FC
FF01FE
FF01FE
FF01FE
7F01FC
3E00F8
000000
000000
000000
000000
000000
000000
03FF00
03FF00
03FF00
03FF00
03FF00
03FF00
03FF00
03FF00
03FF00
03FF00
03FF00
03FF00
03FF00
03FF00
03FF00
03FF00
03FF00
03FF00
03FF00
03FF00
03FF00
03FF00
03FF00
03FF00
03FF00
03FF00
03FF00
03FF00
03FF00
03FF00
03FF00
03FF00
03FF00
03FF00
03FF00
03FF00
03FF00
03FF00
03FF00
03FF00
03FF00
03FF00
03FF00
03FF00
03FF00
03FF00
03FF00
03FF00
03FF00
03FF00
03FF00
03FF00
03FF00
03FF00
03FF00
03FF00
03FF00
ENDCHAR
STARTCHAR eth
ENCODING 240
SWIDTH 877 0
DWIDTH 68 0
BBX 64 57 1 0
BITMAP
0FFFFFFFFFC00000
0FFFFFFFFFFC0000
0FFFFFFFFFFF8000
0FFFFFFFFFFFE000
0FFFFFFFFFFFF000
0FFFFFFFFFFFFC00
0FFFFFFFFFFFFE00
0FFFFFFFFFFFFF00
0FFFFFFFFFFFFF80
0FFFFFFFFFFFFFC0
0FFC0000007FFFE0
0FFC0000000FFFF0
0FFC00000003FFF0
0FFC00000001FFF8
0FFC000000007FF8
0FFC000000003FFC
0FFC000000003FFC
0FFC000000001FFE
0FFC000000000FFE
0FFC000000000FFE
0FFC0000000007FE
0FFC0000000007FF
0FFC0000000007FF
0FFC0000000003FF
FFFFFFFFF00003FF
FFFFFFFFF00003FF
FFFFFFFFF00003FF
FFFFFFFFF00003FF
FFFFFFFFF00003FF
FFFFFFFFF00003FF
FFFFFFFFF00003FF
FFFFFFFFF00003FF
0FFC0000000003FF
0FFC0000000003FF
0FFC0000000007FF
0FFC0000000007FE
0FFC0000000007FE
0FFC000000000FFE
0FFC000000000FFE
0FFC000000001FFC
0FFC000000003FFC
0FFC000000007FF8
0FFC00000000FFF8
0FFC00000001FFF0
0FFC00000003FFF0
0FFC0000000FFFE0
0FFC0000007FFFC0
0FFFFFFFFFFFFFC0
0FFFFFFFFFFFFF80
0FFFFFFFFFFFFF00
0FFFFFFFFFFFFE00
0FFFFFFFFFFFF800
0FFFFFFFFFFFF000
0FFFFFFFFFFFC000
0FFFFFFFFFFF0000
0FFFFFFFFFFC0000
0FFFFFFFFFC00000
ENDCHAR
STARTCHAR ntilde
ENCODING 241
SWIDTH 873 0
DWIDTH 68 0
BBX 58 69 5 0
BITMAP
000007E002000000
00000FF802000000
00001FFE0E000000
00001FFFFE000000
00001C1FFE000000
00001007FC000000
00001001F8000000
0000000000000000
0000000000000000
0000000000000000
0000000000000000
0000000000000000
3E00000000007FC0
7F00000000007FC0
FF80000000007FC0
FFC0000000007FC0
FFE0000000007FC0
FFF8000000007FC0
FFFC000000007FC0
FFFE000000007FC0
FFFF000000007FC0
FFFF800000007FC0
FFFFC00000007FC0
FFFFE00000007FC0
FFFFF00000007FC0
FFFFF80000007FC0
FFFFFC0000007FC0
FFFFFE0000007FC0
FFBFFF0000007FC0
FF9FFF8000007FC0
FF8FFFC000007FC0
FF87FFE000007FC0
FF83FFF000007FC0
FF81FFF800007FC0
FF80FFFC00007FC0
FF807FFE00007FC0
FF803FFF00007FC0
FF801FFF80007FC0
FF800FFFC0007FC0
FF8007FFE0007FC0
FF8003FFF0007FC0
FF8001FFF8007FC0
FF8000FFFC007FC0
FF80007FFE007FC0
FF80003FFF007FC0
FF80001FFF807FC0
FF80000FFFC07FC0
FF800007FFE07FC0
FF800003FFF07FC0
FF800001FFF87FC0
FF800000FFFC7FC0
FF8000007FFE7FC0
FF8000003FFF7FC0
FF8000001FFFFFC0
FF8000000FFFFFC0
FF80000007FFFFC0
FF80000003FFFFC0
FF80000001FFFFC0
FF80000000FFFFC0
FF800000007FFFC0
FF800000003FFFC0
FF800000001FFFC0
FF800000000FFFC0
FF8000000007FFC0
FF8000000003FFC0
FF8000000001FFC0
FF8000000000FFC0
FF80000000003F80
FF80000000001F00
ENDCHAR
STARTCHAR ograve
ENCODING 242
SWIDTH 968 0
DWIDTH 76 0
BBX 69 71 3 0
BITMAP
000003000000000000
000003F00000000000
000003FE0000000000
000003FFC000000000
000003FFFC00000000
000003FFFF80000000
000000FFFFC0000000
00000007FFC0000000
000000007FC0000000
0000000003C0000000
000000000000000000
000000000000000000
000000000000000000
000000000000000000
000003FFFFFF000000
00003FFFFFFFE00000
0000FFFFFFFFFC0000
0003FFFFFFFFFF0000
000FFFFFFFFFFFC000
001FFFFFFFFFFFE000
007FFFFFFFFFFFF000
00FFFFFFFFFFFFF800
01FFFFFFFFFFFFFC00
03FFFFFFFFFFFFFE00
03FFFE000003FFFF00
07FFF00000007FFF80
0FFFC00000001FFF80
0FFF8000000007FFC0
1FFF0000000003FFC0
1FFE0000000001FFE0
3FFC0000000000FFE0
3FF80000000000FFF0
3FF800000000007FF0
7FF000000000007FF0
7FF000000000003FF8
7FE000000000003FF8
7FE000000000001FF8
7FE000000000001FF8
FFE000000000001FF8
FFC000000000001FF8
FFC000000000001FF8
FFC000000000001FF8
FFC000000000001FF8
FFC000000000001FF8
FFC000000000001FF8
FFC000000000001FF8
7FE000000000001FF8
7FE000000000001FF8
7FE000000000001FF8
7FE000000000003FF8
7FF000000000003FF0
3FF000000000007FF0
3FF800000000007FF0
3FF80000000000FFE0
1FFC0000000000FFE0
1FFE0000000001FFC0
0FFF0000000003FFC0
0FFF800000000FFF80
07FFE00000001FFF80
03FFF00000007FFF00
03FFFE000003FFFE00
01FFFFFFFFFFFFFE00
00FFFFFFFFFFFFFC00
007FFFFFFFFFFFF800
003FFFFFFFFFFFF000
001FFFFFFFFFFFC000
0007FFFFFFFFFF8000
0003FFFFFFFFFE0000
0000FFFFFFFFF80000
00001FFFFFFFE00000
000003FFFFFE000000
ENDCHAR
STARTCHAR oacute
ENCODING 243
SWIDTH 968 0
DWIDTH 76 0
BBX 69 71 3 0
BITMAP
000000000006000000
00000000003E000000
0000000001FE000000
000000001FFE000000
00000000FFFE000000
00000007FFFE000000
0000001FFFF8000000
0000001FFF80000000
0000001FF000000000
0000001F0000000000
000000000000000000
000000000000000000
000000000000000000
000000000000000000
000003FFFFFF000000
00003FFFFFFFE00000
0000FFFFFFFFFC0000
0003FFFFFFFFFF0000
000FFFFFFFFFFFC000
001FFFFFFFFFFFE000
007FFFFFFFFFFFF000
00FFFFFFFFFFFFF800
01FFFFFFFFFFFFFC00
03FFFFFFFFFFFFFE00
03FFFE000003FFFF00
07FFF00000007FFF80
0FFFC00000001FFF80
0FFF8000000007FFC0
1FFF0000000003FFC0
1FFE0000000001FFE0
3FFC0000000000FFE0
3FF80000000000FFF0
3FF800000000007FF0
7FF000000000007FF0
7FF000000000003FF8
7FE000000000003FF8
7FE000000000001FF8
7FE000000000001FF8
FFE000000000001FF8
FFC000000000001FF8
FFC000000000001FF8
FFC000000000001FF8
FFC000000000001FF8
FFC000000000001FF8
FFC000000000001FF8
FFC000000000001FF8
7FE000000000001FF8
7FE000000000001FF8
7FE000000000001FF8
7FE000000000003FF8
7FF000000000003FF0
3FF000000000007FF0
3FF800000000007FF0
3FF80000000000FFE0
1FFC0000000000FFE0
1FFE0000000001FFC0
0FFF0000000003FFC0
0FFF800000000FFF80
07FFE00000001FFF80
03FFF00000007FFF00
03FFFE000003FFFE00
01FFFFFFFFFFFFFE00
00FFFFFFFFFFFFFC00
007FFFFFFFFFFFF800
003FFFFFFFFFFFF000
001FFFFFFFFFFFC000
0007FFFFFFFFFF8000
0003FFFFFFFFFE0000
0000FFFFFFFFF80000
00001FFFFFFFE00000
000003FFFFFE000000
ENDCHAR
STARTCHAR ocircumflex
ENCODING 244
SWIDTH 968 0
DWIDTH 76 0
BBX 69 71 3 0
BITMAP
00000001FE00000000
00000003FE00000000
00000003FF00000000
00000007DF80000000
0000000F8F80000000
0000001F87C0000000
0000001F07E0000000
0000003E03E0000000
0000007E01F0000000
0000007C01F8000000
000000F800F8000000
000000000000000000
000000000000000000
000000000000000000
000003FFFFFF000000
00003FFFFFFFE00000
0000FFFFFFFFFC0000
0003FFFFFFFFFF0000
000FFFFFFFFFFFC000
001FFFFFFFFFFFE000
007FFFFFFFFFFFF000
00FFFFFFFFFFFFF800
01FFFFFFFFFFFFFC00
03FFFFFFFFFFFFFE00
03FFFE000003FFFF00
07FFF00000007FFF80
0FFFC00000001FFF80
0FFF8000000007FFC0
1FFF0000000003FFC0
1FFE0000000001FFE0
3FFC0000000000FFE0
3FF80000000000FFF0
3FF800000000007FF0
7FF000000000007FF0
7FF000000000003FF8
7FE000000000003FF8
7FE000000000001FF8
7FE000000000001FF8
FFE000000000001FF8
FFC000000000001FF8
FFC000000000001FF8
FFC000000000001FF8
FFC000000000001FF8
FFC000000000001FF8
FFC000000000001FF8
FFC000000000001FF8
7FE000000000001FF8
7FE000000000001FF8
7FE000000000001FF8
7FE000000000003FF8
7FF000000000003FF0
3FF000000000007FF0
3FF800000000007FF0
3FF80000000000FFE0
1FFC0000000000FFE0
1FFE0000000001FFC0
0FFF0000000003FFC0
0FFF800000000FFF80
07FFE00000001FFF80
03FFF00000007FFF00
03FFFE000003FFFE00
01FFFFFFFFFFFFFE00
00FFFFFFFFFFFFFC00
007FFFFFFFFFFFF800
003FFFFFFFFFFFF000
001FFFFFFFFFFFC000
0007FFFFFFFFFF8000
0003FFFFFFFFFE0000
0000FFFFFFFFF80000
00001FFFFFFFE00000
000003FFFFFE000000
ENDCHAR
STARTCHAR otilde
ENCODING 245
SWIDTH 968 0
DWIDTH 76 0
BBX 69 69 3 0
BITMAP
0000001F0008000000
0000003FE008000000
0000007FF838000000
0000007FFFF8000000
00000070FFF8000000
000000401FF0000000
0000008007C0000000
000000000000000000
000000000000000000
000000000000000000
000000000000000000
000000000000000000
000003FFFFFF000000
00003FFFFFFFE00000
0000FFFFFFFFFC0000
0003FFFFFFFFFF0000
000FFFFFFFFFFFC000
001FFFFFFFFFFFE000
007FFFFFFFFFFFF000
00FFFFFFFFFFFFF800
01FFFFFFFFFFFFFC00
03FFFFFFFFFFFFFE00
03FFFE000003FFFF00
07FFF00000007FFF80
0FFFC00000001FFF80
0FFF8000000007FFC0
1FFF0000000003FFC0
1FFE0000000001FFE0
3FFC0000000000FFE0
3FF80000000000FFF0
3FF800000000007FF0
7FF000000000007FF0
7FF000000000003FF8
7FE000000000003FF8
7FE000000000001FF8
7FE000000000001FF8
FFE000000000001FF8
FFC000000000001FF8
FFC000000000001FF8
FFC000000000001FF8
FFC000000000001FF8
FFC000000000001FF8
FFC000000000001FF8
FFC000000000001FF8
7FE000000000001FF8
7FE000000000001FF8
7FE000000000001FF8
7FE000000000003FF8
7FF000000000003FF0
3FF000000000007FF0
3FF800000000007FF0
3FF80000000000FFE0
1FFC0000000000FFE0
1FFE0000000001FFC0
0FFF0000000003FFC0
0FFF800000000FFF80
07FFE00000001FFF80
03FFF00000007FFF00
03FFFE000003FFFE00
01FFFFFFFFFFFFFE00
00FFFFFFFFFFFFFC00
007FFFFFFFFFFFF800
003FFFFFFFFFFFF000
001FFFFFFFFFFFC000
0007FFFFFFFFFF8000
0003FFFFFFFFFE0000
0000FFFFFFFFF80000
00001FFFFFFFE00000
000003FFFFFE000000
ENDCHAR
STARTCHAR odieresis
ENCODING 246
SWIDTH 968 0
DWIDTH 76 0
BBX 69 70 3 0
BITMAP
0000007C00F0000000
000000FE01F8000000
000000FE03FC000000
000000FE03FC000000
000000FE03FC000000
000000FE01F8000000
0000007C00F0000000
000000000000000000
000000000000000000
000000000000000000
000000000000000000
000000000000000000
000000000000000000
000003FFFFFF000000
00003FFFFFFFE00000
0000FFFFFFFFFC0000
0003FFFFFFFFFF0000
000FFFFFFFFFFFC000
001FFFFFFFFFFFE000
007FFFFFFFFFFFF000
00FFFFFFFFFFFFF800
01FFFFFFFFFFFFFC00
03FFFFFFFFFFFFFE00
03FFFE000003FFFF00
07FFF00000007FFF80
0FFFC00000001FFF80
0FFF8000000007FFC0
1FFF0000000003FFC0
1FFE0000000001FFE0
3FFC0000000000FFE0
3FF80000000000FFF0
3FF800000000007FF0
7FF000000000007FF0
7FF000000000003FF8
7FE000000000003FF8
7FE000000000001FF8
7FE000000000001FF8
FFE000000000001FF8
FFC000000000001FF8
FFC000000000001FF8
FFC000000000001FF8
FFC000000000001FF8
FFC000000000001FF8
FFC000000000001FF8
FFC000000000001FF8
7FE000000000001FF8
7FE000000000001FF8
7FE000000000001FF8
7FE000000000003FF8
7FF000000000003FF0
3FF000000000007FF0
3FF800000000007FF0
3FF80000000000FFE0
1FFC0000000000FFE0
1FFE0000000001FFC0
0FFF0000000003FFC0
0FFF800000000FFF80
07FFE00000001FFF80
03FFF00000007FFF00
03FFFE000003FFFE00
01FFFFFFFFFFFFFE00
00FFFFFFFFFFFFFC00
007FFFFFFFFFFFF800
003FFFFFFFFFFFF000
001FFFFFFFFFFFC000
0007FFFFFFFFFF8000
0003FFFFFFFFFE0000
0000FFFFFFFFF80000
00001FFFFFFFE00000
000003FFFFFE000000
ENDCHAR
STARTCHAR divide
ENCODING 247
SWIDTH 690 0
DWIDTH 54 0
BBX 44 52 5 3
BITMAP
00000F000000
00003FC00000
00007FC00000
00007FE00000
00007FE00000
00007FE00000
00007FE00000
00007FE00000
00007FC00000
00003FC00000
00001F000000
000000000000
000000000000
000000000000
000000000000
000000000000
000000000000
000000000000
000000000000
000000000000
000000000000
000000000000
FFFFFFFFFFF0
FFFFFFFFFFF0
FFFFFFFFFFF0
FFFFFFFFFFF0
FFFFFFFFFFF0
FFFFFFFFFFF0
FFFFFFFFFFF0
000000000000
000000000000
000000000000
000000000000
000000000000
000000000000
000000000000
000000000000
000000000000
000000000000
000000000000
000000000000
00000F000000
00003FC00000
00007FC00000
00007FE00000
00007FE00000
00007FE00000
00007FE00000
00007FE00000
00007FC00000
00003FC00000
00001F000000
ENDCHAR
STARTCHAR oslash
ENCODING 248
SWIDTH 968 0
DWIDTH 76 0
BBX 69 65 3 -4
BITMAP
000000000000000800
000000000000001C00
000000000000003E00
000000000000007C00
000003FFFFFE00F800
00003FFFFFFFE0F800
0000FFFFFFFFFDF000
0003FFFFFFFFFFE000
000FFFFFFFFFFFC000
001FFFFFFFFFFFE000
007FFFFFFFFFFFF000
00FFFFFFFFFFFFF800
01FFFFFFFFFFFFFC00
03FFFFFFFFFFFFFE00
03FFFE000003FFFF00
07FFF0000001FFFF80
0FFFC0000003FFFF80
0FFF80000007E7FFC0
1FFF00000007C3FFC0
1FFE0000000F81FFE0
3FFC0000001F00FFE0
3FF80000003E00FFF0
3FF80000007C007FF0
7FF0000000FC003FF0
7FF0000001F8003FF8
7FE0000001F0003FF8
7FE0000003E0001FF8
7FE0000007C0001FF8
FFE000000F80001FF8
FFC000001F00001FF8
FFC000003F00001FF8
FFC000003E00001FF8
FFC000007C00001FF8
FFC00000F800001FF8
FFC00001F000001FF8
FFC00003E000001FF8
7FE00007E000001FF8
7FE0000FC000001FF8
7FE0000F8000001FF8
7FE0001F0000003FF8
7FF0003E0000003FF0
3FF0007C0000007FF0
3FF800FC0000007FF0
3FF801F8000000FFE0
1FFC01F0000000FFE0
1FFE03E0000001FFC0
0FFF07C0000003FFC0
0FFF8F8000000FFF80
07FFFF0000001FFF80
03FFFF0000007FFF00
03FFFE000003FFFE00
01FFFFFFFFFFFFFE00
00FFFFFFFFFFFFFC00
007FFFFFFFFFFFF800
003FFFFFFFFFFFF000
001FFFFFFFFFFFC000
000FFFFFFFFFFF8000
000FFFFFFFFFFE0000
001FFFFFFFFFF80000
003E1FFFFFFFE00000
007C03FFFFFE000000
00F800000000000000
00F800000000000000
007000000000000000
002000000000000000
ENDCHAR
STARTCHAR ugrave
ENCODING 249
SWIDTH 889 0
DWIDTH 69 0
BBX 61 72 4 -1
BITMAP
0000300000000000
00003E0000000000
00003FE000000000
00003FFC00000000
00003FFF80000000
00003FFFF8000000
00000FFFFC000000
000000FFFC000000
00000007FC000000
000000003C000000
0000000000000000
0000000000000000
0000000000000000
0000000000000000
FFC0000000000FF8
FFC0000000000FF8
FFC0000000000FF8
FFC0000000000FF8
FFC0000000000FF8
FFC0000000000FF8
FFC0000000000FF8
FFC0000000000FF8
FFC0000000000FF8
FFC0000000000FF8
FFC0000000000FF8
FFC0000000000FF8
FFC0000000000FF8
FFC0000000000FF8
FFC0000000000FF8
FFC0000000000FF8
FFC0000000000FF8
FFC0000000000FF8
FFC0000000000FF8
FFC0000000000FF8
FFC0000000000FF8
FFC0000000000FF8
FFC0000000000FF8
FFC0000000000FF8
FFC0000000000FF8
FFC0000000000FF8
FFC0000000000FF8
FFC0000000000FF8
FFC0000000000FF8
FFC0000000000FF8
FFC0000000000FF8
FFC0000000000FF8
FFC0000000000FF8
FFC0000000001FF8
FFC0000000001FF8
FFC0000000001FF8
FFE0000000001FF8
FFE0000000001FF8
7FE0000000001FF8
7FE0000000003FF8
7FF0000000003FF0
7FF0000000007FF0
7FF8000000007FF0
3FFC00000000FFF0
3FFE00000001FFE0
1FFF80000007FFE0
1FFFE000001FFFC0
0FFFFE0001FFFFC0
0FFFFFFFFFFFFF80
07FFFFFFFFFFFF00
03FFFFFFFFFFFE00
01FFFFFFFFFFFC00
00FFFFFFFFFFF800
003FFFFFFFFFF000
000FFFFFFFFFC000
0003FFFFFFFF0000
00007FFFFFF00000
000001FFFE000000
ENDCHAR
STARTCHAR uacute
ENCODING 250
SWIDTH 889 0
DWIDTH 69 0
BBX 61 72 4 -1
BITMAP
0000000000600000
0000000003E00000
000000001FE00000
00000001FFE00000
0000000FFFE00000
0000007FFFE00000
000001FFFF800000
000001FFF8000000
000001FF00000000
000001E000000000
0000000000000000
0000000000000000
0000000000000000
0000000000000000
FFC0000000000FF8
FFC0000000000FF8
FFC0000000000FF8
FFC0000000000FF8
FFC0000000000FF8
FFC0000000000FF8
FFC0000000000FF8
FFC0000000000FF8
FFC0000000000FF8
FFC0000000000FF8
FFC0000000000FF8
FFC0000000000FF8
FFC0000000000FF8
FFC0000000000FF8
FFC0000000000FF8
FFC0000000000FF8
FFC0000000000FF8
FFC0000000000FF8
FFC0000000000FF8
FFC0000000000FF8
FFC0000000000FF8
FFC0000000000FF8
FFC0000000000FF8
FFC0000000000FF8
FFC0000000000FF8
FFC0000000000FF8
FFC0000000000FF8
FFC0000000000FF8
FFC0000000000FF8
FFC0000000000FF8
FFC0000000000FF8
FFC0000000000FF8
FFC0000000000FF8
FFC0000000001FF8
FFC0000000001FF8
FFC0000000001FF8
FFE0000000001FF8
FFE0000000001FF8
7FE0000000001FF8
7FE0000000003FF8
7FF0000000003FF0
7FF0000000007FF0
7FF8000000007FF0
3FFC00000000FFF0
3FFE00000001FFE0
1FFF80000007FFE0
1FFFE000001FFFC0
0FFFFE0001FFFFC0
0FFFFFFFFFFFFF80
07FFFFFFFFFFFF00
03FFFFFFFFFFFE00
01FFFFFFFFFFFC00
00FFFFFFFFFFF800
003FFFFFFFFFF000
000FFFFFFFFFC000
0003FFFFFFFF0000
00007FFFFFF00000
000001FFFE000000
ENDCHAR
STARTCHAR ucircumflex
ENCODING 251
SWIDTH 889 0
DWIDTH 69 0
BBX 61 72 4 -1
BITMAP
0000001FE0000000
0000003FE0000000
0000007FF0000000
0000007DF8000000
000000F8F8000000
000001F87C000000
000001F07E000000
000003E03E000000
000007E01F000000
000007C01F800000
00000F800F800000
0000000000000000
0000000000000000
0000000000000000
FFC0000000000FF8
FFC0000000000FF8
FFC0000000000FF8
FFC0000000000FF8
FFC0000000000FF8
FFC0000000000FF8
FFC0000000000FF8
FFC0000000000FF8
FFC0000000000FF8
FFC0000000000FF8
FFC0000000000FF8
FFC0000000000FF8
FFC0000000000FF8
FFC0000000000FF8
FFC0000000000FF8
FFC0000000000FF8
FFC0000000000FF8
FFC0000000000FF8
FFC0000000000FF8
FFC0000000000FF8
FFC0000000000FF8
FFC0000000000FF8
FFC0000000000FF8
FFC0000000000FF8
FFC0000000000FF8
FFC0000000000FF8
FFC0000000000FF8
FFC0000000000FF8
FFC0000000000FF8
FFC0000000000FF8
FFC0000000000FF8
FFC0000000000FF8
FFC0000000000FF8
FFC0000000001FF8
FFC0000000001FF8
FFC0000000001FF8
FFE0000000001FF8
FFE0000000001FF8
7FE0000000001FF8
7FE0000000003FF8
7FF0000000003FF0
7FF0000000007FF0
7FF8000000007FF0
3FFC00000000FFF0
3FFE00000001FFE0
1FFF80000007FFE0
1FFFE000001FFFC0
0FFFFE0001FFFFC0
0FFFFFFFFFFFFF80
07FFFFFFFFFFFF00
03FFFFFFFFFFFE00
01FFFFFFFFFFFC00
00FFFFFFFFFFF800
003FFFFFFFFFF000
000FFFFFFFFFC000
0003FFFFFFFF0000
00007FFFFFF00000
000001FFFE000000
ENDCHAR
STARTCHAR udieresis
ENCODING 252
SWIDTH 889 0
DWIDTH 69 0
BBX 61 71 4 -1
BITMAP
000007C00F000000
00000FE03F800000
00000FE03FC00000
00001FE03FC00000
00000FE03FC00000
00000FE03F800000
000007C00F000000
0000000000000000
0000000000000000
0000000000000000
0000000000000000
0000000000000000
0000000000000000
FFC0000000000FF8
FFC0000000000FF8
FFC0000000000FF8
FFC0000000000FF8
FFC0000000000FF8
FFC0000000000FF8
FFC0000000000FF8
FFC0000000000FF8
FFC0000000000FF8
FFC0000000000FF8
FFC0000000000FF8
FFC0000000000FF8
FFC0000000000FF8
FFC0000000000FF8
FFC0000000000FF8
FFC0000000000FF8
FFC0000000000FF8
FFC0000000000FF8
FFC0000000000FF8
FFC0000000000FF8
FFC0000000000FF8
FFC0000000000FF8
FFC0000000000FF8
FFC0000000000FF8
FFC0000000000FF8
FFC0000000000FF8
FFC0000000000FF8
FFC0000000000FF8
FFC0000000000FF8
FFC0000000000FF8
FFC0000000000FF8
FFC0000000000FF8
FFC0000000000FF8
FFC0000000001FF8
FFC0000000001FF8
FFC0000000001FF8
FFE0000000001FF8
FFE0000000001FF8
7FE0000000001FF8
7FE0000000003FF8
7FF0000000003FF0
7FF0000000007FF0
7FF8000000007FF0
3FFC00000000FFF0
3FFE00000001FFE0
1FFF80000007FFE0
1FFFE000001FFFC0
0FFFFE0001FFFFC0
0FFFFFFFFFFFFF80
07FFFFFFFFFFFF00
03FFFFFFFFFFFE00
01FFFFFFFFFFFC00
00FFFFFFFFFFF800
003FFFFFFFFFF000
000FFFFFFFFFC000
0003FFFFFFFF0000
00007FFFFFF00000
000001FFFE000000
ENDCHAR
STARTCHAR yacute
ENCODING 253
SWIDTH 926 0
DWIDTH 72 0
BBX 70 71 1 0
BITMAP
000000000003000000
00000000001F000000
0000000001FF000000
000000000FFF000000
000000007FFF000000
00000007FFFF000000
0000000FFFFC000000
0000000FFFC0000000
0000000FF800000000
0000000F0000000000
000000000000000000
000000000000000000
000000000000000000
000000000000000000
FFFC00000000007FFC
7FFE0000000000FFF8
3FFE0000000001FFF0
1FFF0000000001FFE0
0FFF8000000003FFC0
07FFC000000007FFC0
03FFE00000000FFF80
03FFF00000001FFF00
01FFF80000003FFE00
00FFF80000003FFC00
007FFC0000007FF800
003FFE000000FFF000
001FFF000001FFF000
001FFF800003FFE000
000FFFC00007FFC000
0007FFC0000FFF8000
0003FFE0000FFF0000
0001FFF0001FFE0000
0000FFF8003FFC0000
00007FFC007FFC0000
00007FFE00FFF80000
00003FFE01FFF00000
00001FFF01FFE00000
00000FFF83FFC00000
000007FFC7FF800000
000003FFEFFF000000
000001FFFFFF000000
000001FFFFFE000000
000000FFFFFC000000
0000007FFFF8000000
0000003FFFF0000000
0000001FFFE0000000
0000000FFFC0000000
00000007FFC0000000
00000007FF80000000
00000003FF00000000
00000003FF00000000
00000003FF00000000
00000003FF00000000
00000003FF00000000
00000003FF00000000
00000003FF00000000
00000003FF00000000
00000003FF00000000
00000003FF00000000
00000003FF00000000
00000003FF00000000
00000003FF00000000
00000003FF00000000
00000003FF00000000
00000003FF00000000
00000003FF00000000
00000003FF00000000
00000003FF00000000
00000003FF00000000
00000003FF00000000
00000003FF00000000
ENDCHAR
STARTCHAR thorn
ENCODING 254
SWIDTH 843 0
DWIDTH 66 0
BBX 58 57 5 0
BITMAP
FFC0000000000000
FFC0000000000000
FFC0000000000000
FFC0000000000000
FFC0000000000000
FFC0000000000000
FFC0000000000000
FFC0000000000000
FFFFFFFFFFE00000
FFFFFFFFFFFC0000
FFFFFFFFFFFF8000
FFFFFFFFFFFFC000
FFFFFFFFFFFFF000
FFFFFFFFFFFFF800
FFFFFFFFFFFFFC00
FFFFFFFFFFFFFE00
FFFFFFFFFFFFFE00
FFFFFFFFFFFFFF00
FFC00000003FFF00
FFC00000000FFF80
FFC000000007FF80
FFC000000003FF80
FFC000000001FFC0
FFC000000000FFC0
FFC000000000FFC0
FFC000000000FFC0
FFC0000000007FC0
FFC0000000007FC0
FFC0000000007FC0
FFC0000000007FC0
FFC0000000007FC0
FFC000000000FFC0
FFC000000000FFC0
FFC000000000FFC0
FFC000000000FFC0
FFC000000001FFC0
FFC000000003FF80
FFC000000007FF80
FFC00000000FFF80
FFC00000003FFF00
FFC07FFFFFFFFF00
FFC07FFFFFFFFE00
FFC07FFFFFFFFC00
FFC07FFFFFFFF800
FFC07FFFFFFFF800
FFC07FFFFFFFE000
FFC07FFFFFFFC000
FFC07FFFFFFF0000
FFC07FFFFFFC0000
FFC07FFFFFE00000
FFC0000000000000
FFC0000000000000
FFC0000000000000
FFC0000000000000
FFC0000000000000
FFC0000000000000
FFC0000000000000
ENDCHAR
STARTCHAR ydieresis
ENCODING 255
SWIDTH 926 0
DWIDTH 72 0
BBX 70 70 1 0
BITMAP
0000003C00F8000000
0000007F01FC000000
000000FF01FC000000
000000FF01FE000000
000000FF01FC000000
0000007F01FC000000
0000003C00F8000000
000000000000000000
000000000000000000
000000000000000000
000000000000000000
000000000000000000
000000000000000000
FFFC00000000007FFC
7FFE0000000000FFF8
3FFE0000000001FFF0
1FFF0000000001FFE0
0FFF8000000003FFC0
07FFC000000007FFC0
03FFE00000000FFF80
03FFF00000001FFF00
01FFF80000003FFE00
00FFF80000003FFC00
007FFC0000007FF800
003FFE000000FFF000
001FFF000001FFF000
001FFF800003FFE000
000FFFC00007FFC000
0007FFC0000FFF8000
0003FFE0000FFF0000
0001FFF0001FFE0000
0000FFF8003FFC0000
00007FFC007FFC0000
00007FFE00FFF80000
00003FFE01FFF00000
00001FFF01FFE00000
00000FFF83FFC00000
000007FFC7FF800000
000003FFEFFF000000
000001FFFFFF000000
000001FFFFFE000000
000000FFFFFC000000
0000007FFFF8000000
0000003FFFF0000000
0000001FFFE0000000
0000000FFFC0000000
00000007FFC0000000
00000007FF80000000
00000003FF00000000
00000003FF00000000
00000003FF00000000
00000003FF00000000
00000003FF00000000
00000003FF00000000
00000003FF00000000
00000003FF00000000
00000003FF00000000
00000003FF00000000
00000003FF00000000
00000003FF00000000
00000003FF00000000
00000003FF00000000
00000003FF00000000
00000003FF00000000
00000003FF00000000
00000003FF00000000
00000003FF00000000
00000003FF00000000
00000003FF00000000
00000003FF00000000
ENDCHAR
STARTCHAR Amacron
ENCODING 256
SWIDTH 989 0
DWIDTH 77 0
BBX 75 69 1 0
BITMAP
0000000FFFFF00000000
0000000FFFFF00000000
0000000FFFFF00000000
0000000FFFFF00000000
0000000FFFFF00000000
00000000000000000000
00000000000000000000
00000000000000000000
00000000000000000000
00000000000000000000
00000000000000000000
000000001F0000000000
000000003F8000000000
000000007FC000000000
000000007FC000000000
00000000FFE000000000
00000001FFF000000000
00000001FFF000000000
00000003FFF800000000
00000003FFF800000000
00000007FFFC00000000
0000000FFFFE00000000
0000000FFFFE00000000
0000001FFFFF00000000
0000001FFFFF00000000
0000003FFFFF80000000
0000007FF3FFC0000000
0000007FF3FFC0000000
000000FFE1FFE0000000
000000FFE0FFE0000000
000001FFC0FFF0000000
000003FFC07FF8000000
000003FF807FF8000000
000007FF003FFC000000
000007FF003FFC000000
00000FFE001FFE000000
00001FFE000FFF000000
00001FFC000FFF000000
00003FF80007FF800000
00003FF80007FF800000
00007FF00003FFC00000
0000FFF00001FFE00000
0000FFE00001FFE00000
0001FFC00000FFF00000
0001FFC00000FFF00000
0003FF8000007FF80000
0007FF8000007FFC0000
0007FF00FFFFFFFC0000
000FFF00FFFFFFFE0000
000FFE01FFFFFFFE0000
001FFC03FFFFFFFF0000
003FFC03FFFFFFFF8000
003FF807FFFFFFFF8000
007FF807FFFFFFFFC000
007FF00FFFFFFFFFC000
00FFE000000001FFE000
00FFE000000001FFF000
01FFC000000000FFF000
03FFC0000000007FF800
03FF80000000007FF800
07FF00000000003FFC00
07FF00000000003FFE00
0FFE00000000001FFE00
1FFE00000000000FFF00
1FFC00000000000FFF00
3FF8000000000007FF80
3FF8000000000003FF80
7FF0000000000003FFC0
FFF0000000000001FFE0
ENDCHAR
STARTCHAR amacron
ENCODING 257
SWIDTH 989 0
DWIDTH 77 0
BBX 75 69 1 0
BITMAP
0000000FFFFF00000000
0000000FFFFF00000000
0000000FFFFF00000000
0000000FFFFF00000000
0000000FFFFF00000000
00000000000000000000
00000000000000000000
00000000000000000000
00000000000000000000
00000000000000000000
00000000000000000000
000000001F0000000000
000000003F8000000000
000000007FC000000000
000000007FC000000000
00000000FFE000000000
00000001FFF000000000
00000001FFF000000000
00000003FFF800000000
00000003FFF800000000
00000007FFFC00000000
0000000FFFFE00000000
0000000FFFFE00000000
0000001FFFFF00000000
0000001FFFFF00000000
0000003FFFFF80000000
0000007FF3FFC0000000
0000007FF3FFC0000000
000000FFE1FFE0000000
000000FFE0FFE0000000
000001FFC0FFF0000000
000003FFC07FF8000000
000003FF807FF8000000
000007FF003FFC000000
000007FF003FFC000000
00000FFE001FFE000000
00001FFE000FFF000000
00001FFC000FFF000000
00003FF80007FF800000
00003FF80007FF800000
00007FF00003FFC00000
0000FFF00001FFE00000
0000FFE00001FFE00000
0001FFC00000FFF00000
0001FFC00000FFF00000
0003FF8000007FF80000
0007FF8000007FFC0000
0007FF00FFFFFFFC0000
000FFF00FFFFFFFE0000
000FFE01FFFFFFFE0000
001FFC03FFFFFFFF0000
003FFC03FFFFFFFF8000
003FF807FFFFFFFF8000
007FF807FFFFFFFFC000
007FF00FFFFFFFFFC000
00FFE000000001FFE000
00FFE000000001FFF000
01FFC000000000FFF000
03FFC0000000007FF800
03FF80000000007FF800
07FF00000000003FFC00
07FF00000000003FFE00
0FFE00000000001FFE00
1FFE00000000000FFF00
1FFC00000000000FFF00
3FF8000000000007FF80
3FF8000000000003FF80
7FF0000000000003FFC0
FFF0000000000001FFE0
ENDCHAR
STARTCHAR Abreve
ENCODING 258
SWIDTH 989 0
DWIDTH 77 0
BBX 75 72 1 0
BITMAP
0000001F001F00000000
0000001F001F00000000
0000001F001F00000000
0000001F801F00000000
0000001F803F00000000
0000000F803E00000000
0000000FC07E00000000
00000007E0FC00000000
00000003FFF800000000
00000001FFF000000000
000000007FE000000000
00000000000000000000
00000000000000000000
00000000000000000000
000000001F0000000000
000000003F8000000000
000000007FC000000000
000000007FC000000000
00000000FFE000000000
00000001FFF000000000
00000001FFF000000000
00000003FFF800000000
00000003FFF800000000
00000007FFFC00000000
0000000FFFFE00000000
0000000FFFFE00000000
0000001FFFFF00000000
0000001FFFFF00000000
0000003FFFFF80000000
0000007FF3FFC0000000
0000007FF3FFC0000000
000000FFE1FFE0000000
000000FFE0FFE0000000
000001FFC0FFF0000000
000003FFC07FF8000000
000003FF807FF8000000
000007FF003FFC000000
000007FF003FFC000000
00000FFE001FFE000000
00001FFE000FFF000000
00001FFC000FFF000000
00003FF80007FF800000
00003FF80007FF800000
00007FF00003FFC00000
0000FFF00001FFE00000
0000FFE00001FFE00000
0001FFC00000FFF00000
0001FFC00000FFF00000
0003FF8000007FF80000
0007FF8000007FFC0000
0007FF00FFFFFFFC0000
000FFF00FFFFFFFE0000
000FFE01FFFFFFFE0000
001FFC03FFFFFFFF0000
003FFC03FFFFFFFF8000
003FF807FFFFFFFF8000
007FF807FFFFFFFFC000
007FF00FFFFFFFFFC000
00FFE000000001FFE000
00FFE000000001FFF000
01FFC000000000FFF000
03FFC0000000007FF800
03FF80000000007FF800
07FF00000000003FFC00
07FF00000000003FFE00
0FFE00000000001FFE00
1FFE00000000000FFF00
1FFC00000000000FFF00
3FF8000000000007FF80
3FF8000000000003FF80
7FF0000000000003FFC0
FFF0000000000001FFE0
ENDCHAR
STARTCHAR abreve
ENCODING 259
SWIDTH 989 0
DWIDTH 77 0
BBX 75 72 1 0
BITMAP
0000001F001F00000000
0000001F001F00000000
0000001F001F00000000
0000001F801F00000000
0000001F803F00000000
0000000F803E00000000
0000000FC07E00000000
00000007E0FC00000000
00000003FFF800000000
00000001FFF000000000
000000007FE000000000
00000000000000000000
00000000000000000000
00000000000000000000
000000001F0000000000
000000003F8000000000
000000007FC000000000
000000007FC000000000
00000000FFE000000000
00000001FFF000000000
00000001FFF000000000
00000003FFF800000000
00000003FFF800000000
00000007FFFC00000000
0000000FFFFE00000000
0000000FFFFE00000000
0000001FFFFF00000000
0000001FFFFF00000000
0000003FFFFF80000000
0000007FF3FFC0000000
0000007FF3FFC0000000
000000FFE1FFE0000000
000000FFE0FFE0000000
000001FFC0FFF0000000
000003FFC07FF8000000
000003FF807FF8000000
000007FF003FFC000000
000007FF003FFC000000
00000FFE001FFE000000
00001FFE000FFF000000
00001FFC000FFF000000
00003FF80007FF800000
00003FF80007FF800000
00007FF00003FFC00000
0000FFF00001FFE00000
0000FFE00001FFE00000
0001FFC00000FFF00000
0001FFC00000FFF00000
0003FF8000007FF80000
0007FF8000007FFC0000
0007FF00FFFFFFFC0000
000FFF00FFFFFFFE0000
000FFE01FFFFFFFE0000
001FFC03FFFFFFFF0000
003FFC03FFFFFFFF8000
003FF807FFFFFFFF8000
007FF807FFFFFFFFC000
007FF00FFFFFFFFFC000
00FFE000000001FFE000
00FFE000000001FFF000
01FFC000000000FFF000
03FFC0000000007FF800
03FF80000000007FF800
07FF00000000003FFC00
07FF00000000003FFE00
0FFE00000000001FFE00
1FFE00000000000FFF00
1FFC00000000000FFF00
3FF8000000000007FF80
3FF8000000000003FF80
7FF0000000000003FFC0
FFF0000000000001FFE0
ENDCHAR
STARTCHAR Aogonek
ENCODING 260
SWIDTH 989 0
DWIDTH 77 0
BBX 75 74 1 -16
BITMAP
000000001F0000000000
000000003F8000000000
000000007FC000000000
000000007FC000000000
00000000FFE000000000
00000001FFF000000000
00000001FFF000000000
00000003FFF800000000
00000003FFF800000000
00000007FFFC00000000
0000000FFFFE00000000
0000000FFFFE00000000
0000001FFFFF00000000
0000001FFFFF00000000
0000003FFFFF80000000
0000007FF3FFC0000000
0000007FF3FFC0000000
000000FFE1FFE0000000
000000FFE0FFE0000000
000001FFC0FFF0000000
000003FFC07FF8000000
000003FF807FF8000000
000007FF003FFC000000
000007FF003FFC000000
00000FFE001FFE000000
00001FFE000FFF000000
00001FFC000FFF000000
00003FF80007FF800000
00003FF80007FF800000
00007FF00003FFC00000
0000FFF00001FFE00000
0000FFE00001FFE00000
0001FFC00000FFF00000
0001FFC00000FFF00000
0003FF8000007FF80000
0007FF8000007FFC0000
0007FF00FFFFFFFC0000
000FFF00FFFFFFFE0000
000FFE01FFFFFFFE0000
001FFC03FFFFFFFF0000
003FFC03FFFFFFFF8000
003FF807FFFFFFFF8000
007FF807FFFFFFFFC000
007FF00FFFFFFFFFC000
00FFE000000001FFE000
00FFE000000001FFF000
01FFC000000000FFF000
03FFC0000000007FF800
03FF80000000007FF800
07FF00000000003FFC00
07FF00000000003FFE00
0FFE00000000001FFE00
1FFE00000000000FFF00
1FFC00000000000FFF00
3FF8000000000007FF80
3FF8000000000003FF80
7FF0000000000003FFC0
FFF0000000000001FFE0
000000000000000003C0
00000000000000000F80
00000000000000001E00
00000000000000007C00
0000000000000000F000
0000000000000003E000
0000000000000007C000
0000000000000007C000
000000000000000FE000
000000000000000FFFE0
000000000000000FFFE0
000000000000000FFFE0
0000000000000007FFE0
0000000000000007FFE0
0000000000000003FFE0
0000000000000000FFE0
ENDCHAR
STARTCHAR aogonek
ENCODING 261
SWIDTH 989 0
DWIDTH 77 0
BBX 75 74 1 -16
BITMAP
000000001F0000000000
000000003F8000000000
000000007FC000000000
000000007FC000000000
00000000FFE000000000
00000001FFF000000000
00000001FFF000000000
00000003FFF800000000
00000003FFF800000000
00000007FFFC00000000
0000000FFFFE00000000
0000000FFFFE00000000
0000001FFFFF00000000
0000001FFFFF00000000
0000003FFFFF80000000
0000007FF3FFC0000000
0000007FF3FFC0000000
000000FFE1FFE0000000
000000FFE0FFE0000000
000001FFC0FFF0000000
000003FFC07FF8000000
000003FF807FF8000000
000007FF003FFC000000
000007FF003FFC000000
00000FFE001FFE000000
00001FFE000FFF000000
00001FFC000FFF000000
00003FF80007FF800000
00003FF80007FF800000
00007FF00003FFC00000
0000FFF00001FFE00000
0000FFE00001FFE00000
0001FFC00000FFF00000
0001FFC00000FFF00000
0003FF8000007FF80000
0007FF8000007FFC0000
0007FF00FFFFFFFC0000
000FFF00FFFFFFFE0000
000FFE01FFFFFFFE0000
001FFC03FFFFFFFF0000
003FFC03FFFFFFFF8000
003FF807FFFFFFFF8000
007FF807FFFFFFFFC000
007FF00FFFFFFFFFC000
00FFE000000001FFE000
00FFE000000001FFF000
01FFC000000000FFF000
03FFC0000000007FF800
03FF80000000007FF800
07FF00000000003FFC00
07FF00000000003FFE00
0FFE00000000001FFE00
1FFE00000000000FFF00
1FFC00000000000FFF00
3FF8000000000007FF80
3FF8000000000003FF80
7FF0000000000003FFC0
FFF0000000000001FFE0
000000000000000003C0
00000000000000000F80
00000000000000001E00
00000000000000007C00
0000000000000000F000
0000000000000003E000
0000000000000007C000
0000000000000007C000
000000000000000FE000
000000000000000FFFE0
000000000000000FFFE0
000000000000000FFFE0
0000000000000007FFE0
0000000000000007FFE0
0000000000000003FFE0
0000000000000000FFE0
ENDCHAR
STARTCHAR Cacute
ENCODING 262
SWIDTH 829 0
DWIDTH 65 0
BBX 59 71 3 0
BITMAP
00000000000C0000
0000000000FC0000
0000000007FC0000
000000003FFC0000
00000003FFFC0000
0000001FFFFC0000
0000003FFFF00000
0000003FFE000000
0000003FE0000000
0000003C00000000
0000000000000000
0000000000000000
0000000000000000
0000000000000000
000003FFFFFFFFE0
00003FFFFFFFFFE0
0000FFFFFFFFFFE0
0003FFFFFFFFFFE0
000FFFFFFFFFFFE0
001FFFFFFFFFFFE0
007FFFFFFFFFFFE0
00FFFFFFFFFFFFE0
01FFFFFFFFFFFFE0
03FFFFFFFFFFFFE0
03FFFE0000000000
07FFF00000000000
0FFFC00000000000
0FFF800000000000
1FFF000000000000
1FFE000000000000
3FFC000000000000
3FF8000000000000
3FF8000000000000
7FF0000000000000
7FF0000000000000
7FE0000000000000
7FE0000000000000
7FE0000000000000
FFE0000000000000
FFC0000000000000
FFC0000000000000
FFC0000000000000
FFC0000000000000
FFC0000000000000
FFC0000000000000
FFC0000000000000
7FE0000000000000
7FE0000000000000
7FE0000000000000
7FE0000000000000
7FF0000000000000
3FF0000000000000
3FF8000000000000
3FF8000000000000
1FFC000000000000
1FFE000000000000
0FFF000000000000
0FFF800000000000
07FFE00000000000
03FFF00000000000
03FFFE0000000000
01FFFFFFFFFFFFE0
00FFFFFFFFFFFFE0
007FFFFFFFFFFFE0
003FFFFFFFFFFFE0
001FFFFFFFFFFFE0
0007FFFFFFFFFFE0
0003FFFFFFFFFFE0
0000FFFFFFFFFFE0
00001FFFFFFFFFE0
000003FFFFFFFFE0
ENDCHAR
STARTCHAR cacute
ENCODING 263
SWIDTH 829 0
DWIDTH 65 0
BBX 59 71 3 0
BITMAP
00000000000C0000
0000000000FC0000
0000000007FC0000
000000003FFC0000
00000003FFFC0000
0000001FFFFC0000
0000003FFFF00000
0000003FFE000000
0000003FE0000000
0000003C00000000
0000000000000000
0000000000000000
0000000000000000
0000000000000000
000003FFFFFFFFE0
00003FFFFFFFFFE0
0000FFFFFFFFFFE0
0003FFFFFFFFFFE0
000FFFFFFFFFFFE0
001FFFFFFFFFFFE0
007FFFFFFFFFFFE0
00FFFFFFFFFFFFE0
01FFFFFFFFFFFFE0
03FFFFFFFFFFFFE0
03FFFE0000000000
07FFF00000000000
0FFFC00000000000
0FFF800000000000
1FFF000000000000
1FFE000000000000
3FFC000000000000
3FF8000000000000
3FF8000000000000
7FF0000000000000
7FF0000000000000
7FE0000000000000
7FE0000000000000
7FE0000000000000
FFE0000000000000
FFC0000000000000
FFC0000000000000
FFC0000000000000
FFC0000000000000
FFC0000000000000
FFC0000000000000
FFC0000000000000
7FE0000000000000
7FE0000000000000
7FE0000000000000
7FE0000000000000
7FF0000000000000
3FF0000000000000
3FF8000000000000
3FF8000000000000
1FFC000000000000
1FFE000000000000
0FFF000000000000
0FFF800000000000
07FFE00000000000
03FFF00000000000
03FFFE0000000000
01FFFFFFFFFFFFE0
00FFFFFFFFFFFFE0
007FFFFFFFFFFFE0
003FFFFFFFFFFFE0
001FFFFFFFFFFFE0
0007FFFFFFFFFFE0
0003FFFFFFFFFFE0
0000FFFFFFFFFFE0
00001FFFFFFFFFE0
000003FFFFFFFFE0
ENDCHAR
STARTCHAR Cdotaccent
ENCODING 266
SWIDTH 829 0
DWIDTH 65 0
BBX 59 70 3 0
BITMAP
00000000F0000000
00000001F8000000
00000003FC000000
00000003FC000000
00000003FC000000
00000001F8000000
00000000F0000000
0000000000000000
0000000000000000
0000000000000000
0000000000000000
0000000000000000
0000000000000000
000003FFFFFFFFE0
00003FFFFFFFFFE0
0000FFFFFFFFFFE0
0003FFFFFFFFFFE0
000FFFFFFFFFFFE0
001FFFFFFFFFFFE0
007FFFFFFFFFFFE0
00FFFFFFFFFFFFE0
01FFFFFFFFFFFFE0
03FFFFFFFFFFFFE0
03FFFE0000000000
07FFF00000000000
0FFFC00000000000
0FFF800000000000
1FFF000000000000
1FFE000000000000
3FFC000000000000
3FF8000000000000
3FF8000000000000
7FF0000000000000
7FF0000000000000
7FE0000000000000
7FE0000000000000
7FE0000000000000
FFE0000000000000
FFC0000000000000
FFC0000000000000
FFC0000000000000
FFC0000000000000
FFC0000000000000
FFC0000000000000
FFC0000000000000
7FE0000000000000
7FE0000000000000
7FE0000000000000
7FE0000000000000
7FF0000000000000
3FF0000000000000
3FF8000000000000
3FF8000000000000
1FFC000000000000
1FFE000000000000
0FFF000000000000
0FFF800000000000
07FFE00000000000
03FFF00000000000
03FFFE0000000000
01FFFFFFFFFFFFE0
00FFFFFFFFFFFFE0
007FFFFFFFFFFFE0
003FFFFFFFFFFFE0
001FFFFFFFFFFFE0
0007FFFFFFFFFFE0
0003FFFFFFFFFFE0
0000FFFFFFFFFFE0
00001FFFFFFFFFE0
000003FFFFFFFFE0
ENDCHAR
STARTCHAR cdotaccent
ENCODING 267
SWIDTH 829 0
DWIDTH 65 0
BBX 59 70 3 0
BITMAP
00000000F0000000
00000001F8000000
00000003FC000000
00000003FC000000
00000003FC000000
00000001F8000000
00000000F0000000
0000000000000000
0000000000000000
0000000000000000
0000000000000000
0000000000000000
0000000000000000
000003FFFFFFFFE0
00003FFFFFFFFFE0
0000FFFFFFFFFFE0
0003FFFFFFFFFFE0
000FFFFFFFFFFFE0
001FFFFFFFFFFFE0
007FFFFFFFFFFFE0
00FFFFFFFFFFFFE0
01FFFFFFFFFFFFE0
03FFFFFFFFFFFFE0
03FFFE0000000000
07FFF00000000000
0FFFC00000000000
0FFF800000000000
1FFF000000000000
1FFE000000000000
3FFC000000000000
3FF8000000000000
3FF8000000000000
7FF0000000000000
7FF0000000000000
7FE0000000000000
7FE0000000000000
7FE0000000000000
FFE0000000000000
FFC0000000000000
FFC0000000000000
FFC0000000000000
FFC0000000000000
FFC0000000000000
FFC0000000000000
FFC0000000000000
7FE0000000000000
7FE0000000000000
7FE0000000000000
7FE0000000000000
7FF0000000000000
3FF0000000000000
3FF8000000000000
3FF8000000000000
1FFC000000000000
1FFE000000000000
0FFF000000000000
0FFF800000000000
07FFE00000000000
03FFF00000000000
03FFFE0000000000
01FFFFFFFFFFFFE0
00FFFFFFFFFFFFE0
007FFFFFFFFFFFE0
003FFFFFFFFFFFE0
001FFFFFFFFFFFE0
0007FFFFFFFFFFE0
0003FFFFFFFFFFE0
0000FFFFFFFFFFE0
00001FFFFFFFFFE0
000003FFFFFFFFE0
ENDCHAR
STARTCHAR Ccaron
ENCODING 268
SWIDTH 829 0
DWIDTH 65 0
BBX 59 72 3 0
BITMAP
000001F003F00000
000001F803E00000
000000F807E00000
0000007C0FC00000
0000007E0F800000
0000003E1F000000
0000001F1F000000
0000001F3E000000
0000000FFC000000
00000007FC000000
00000007F8000000
0000000000000000
0000000000000000
0000000000000000
0000000000000000
000003FFFFFFFFE0
00003FFFFFFFFFE0
0000FFFFFFFFFFE0
0003FFFFFFFFFFE0
000FFFFFFFFFFFE0
001FFFFFFFFFFFE0
007FFFFFFFFFFFE0
00FFFFFFFFFFFFE0
01FFFFFFFFFFFFE0
03FFFFFFFFFFFFE0
03FFFE0000000000
07FFF00000000000
0FFFC00000000000
0FFF800000000000
1FFF000000000000
1FFE000000000000
3FFC000000000000
3FF8000000000000
3FF8000000000000
7FF0000000000000
7FF0000000000000
7FE0000000000000
7FE0000000000000
7FE0000000000000
FFE0000000000000
FFC0000000000000
FFC0000000000000
FFC0000000000000
FFC0000000000000
FFC0000000000000
FFC0000000000000
FFC0000000000000
7FE0000000000000
7FE0000000000000
7FE0000000000000
7FE0000000000000
7FF0000000000000
3FF0000000000000
3FF8000000000000
3FF8000000000000
1FFC000000000000
1FFE000000000000
0FFF000000000000
0FFF800000000000
07FFE00000000000
03FFF00000000000
03FFFE0000000000
01FFFFFFFFFFFFE0
00FFFFFFFFFFFFE0
007FFFFFFFFFFFE0
003FFFFFFFFFFFE0
001FFFFFFFFFFFE0
0007FFFFFFFFFFE0
0003FFFFFFFFFFE0
0000FFFFFFFFFFE0
00001FFFFFFFFFE0
000003FFFFFFFFE0
ENDCHAR
STARTCHAR ccaron
ENCODING 269
SWIDTH 829 0
DWIDTH 65 0
BBX 59 72 3 0
BITMAP
000001F003F00000
000001F803E00000
000000F807E00000
0000007C0FC00000
0000007E0F800000
0000003E1F000000
0000001F1F000000
0000001F3E000000
0000000FFC000000
00000007FC000000
00000007F8000000
0000000000000000
0000000000000000
0000000000000000
0000000000000000
000003FFFFFFFFE0
00003FFFFFFFFFE0
0000FFFFFFFFFFE0
0003FFFFFFFFFFE0
000FFFFFFFFFFFE0
001FFFFFFFFFFFE0
007FFFFFFFFFFFE0
00FFFFFFFFFFFFE0
01FFFFFFFFFFFFE0
03FFFFFFFFFFFFE0
03FFFE0000000000
07FFF00000000000
0FFFC00000000000
0FFF800000000000
1FFF000000000000
1FFE000000000000
3FFC000000000000
3FF8000000000000
3FF8000000000000
7FF0000000000000
7FF0000000000000
7FE0000000000000
7FE0000000000000
7FE0000000000000
FFE0000000000000
FFC0000000000000
FFC0000000000000
FFC0000000000000
FFC0000000000000
FFC0000000000000
FFC0000000000000
FFC0000000000000
7FE0000000000000
7FE0000000000000
7FE0000000000000
7FE0000000000000
7FF0000000000000
3FF0000000000000
3FF8000000000000
3FF8000000000000
1FFC000000000000
1FFE000000000000
0FFF000000000000
0FFF800000000000
07FFE00000000000
03FFF00000000000
03FFFE0000000000
01FFFFFFFFFFFFE0
00FFFFFFFFFFFFE0
007FFFFFFFFFFFE0
003FFFFFFFFFFFE0
001FFFFFFFFFFFE0
0007FFFFFFFFFFE0
0003FFFFFFFFFFE0
0000FFFFFFFFFFE0
00001FFFFFFFFFE0
000003FFFFFFFFE0
ENDCHAR
STARTCHAR Dcaron
ENCODING 270
SWIDTH 879 0
DWIDTH 69 0
BBX 60 72 5 0
BITMAP
0000F801F8000000
0000FC01F0000000
00007C03E0000000
00003E07E0000000
00003E07C0000000
00001F0F80000000
00000F9F80000000
00000F9F00000000
000007FE00000000
000003FE00000000
000003FC00000000
0000000000000000
0000000000000000
0000000000000000
0000000000000000
FFFFFFFFFE000000
FFFFFFFFFFC00000
FFFFFFFFFFF80000
FFFFFFFFFFFE0000
FFFFFFFFFFFF8000
FFFFFFFFFFFFC000
FFFFFFFFFFFFE000
FFFFFFFFFFFFF000
FFFFFFFFFFFFF800
FFFFFFFFFFFFFC00
FFC0000007FFFE00
FFC0000000FFFF00
FFC00000003FFF00
FFC00000000FFF80
FFC000000007FF80
FFC000000003FFC0
FFC000000001FFC0
FFC000000001FFE0
FFC000000000FFE0
FFC000000000FFE0
FFC0000000007FF0
FFC0000000007FF0
FFC0000000003FF0
FFC0000000003FF0
FFC0000000003FF0
FFC0000000003FF0
FFC0000000003FF0
FFC0000000003FF0
FFC0000000003FF0
FFC0000000003FF0
FFC0000000003FF0
FFC0000000003FF0
FFC0000000003FF0
FFC0000000003FF0
FFC0000000003FF0
FFC0000000007FF0
FFC0000000007FE0
FFC000000000FFE0
FFC000000000FFE0
FFC000000001FFC0
FFC000000003FFC0
FFC000000003FF80
FFC000000007FF80
FFC00000001FFF00
FFC00000003FFF00
FFC0000000FFFE00
FFC0000007FFFC00
FFFFFFFFFFFFFC00
FFFFFFFFFFFFF800
FFFFFFFFFFFFF000
FFFFFFFFFFFFE000
FFFFFFFFFFFF8000
FFFFFFFFFFFF0000
FFFFFFFFFFFC0000
FFFFFFFFFFF00000
FFFFFFFFFFC00000
FFFFFFFFFC000000
ENDCHAR
STARTCHAR dcaron
ENCODING 271
SWIDTH 879 0
DWIDTH 69 0
BBX 60 72 5 0
BITMAP
0000F801F8000000
0000FC01F0000000
00007C03E0000000
00003E07E0000000
00003E07C0000000
00001F0F80000000
00000F9F80000000
00000F9F00000000
000007FE00000000
000003FE00000000
000003FC00000000
0000000000000000
0000000000000000
0000000000000000
0000000000000000
FFFFFFFFFE000000
FFFFFFFFFFC00000
FFFFFFFFFFF80000
FFFFFFFFFFFE0000
FFFFFFFFFFFF8000
FFFFFFFFFFFFC000
FFFFFFFFFFFFE000
FFFFFFFFFFFFF000
FFFFFFFFFFFFF800
FFFFFFFFFFFFFC00
FFC0000007FFFE00
FFC0000000FFFF00
FFC00000003FFF00
FFC00000000FFF80
FFC000000007FF80
FFC000000003FFC0
FFC000000001FFC0
FFC000000001FFE0
FFC000000000FFE0
FFC000000000FFE0
FFC0000000007FF0
FFC0000000007FF0
FFC0000000003FF0
FFC0000000003FF0
FFC0000000003FF0
FFC0000000003FF0
FFC0000000003FF0
FFC0000000003FF0
FFC0000000003FF0
FFC0000000003FF0
FFC0000000003FF0
FFC0000000003FF0
FFC0000000003FF0
FFC0000000003FF0
FFC0000000003FF0
FFC0000000007FF0
FFC0000000007FE0
FFC000000000FFE0
FFC000000000FFE0
FFC000000001FFC0
FFC000000003FFC0
FFC000000003FF80
FFC000000007FF80
FFC00000001FFF00
FFC00000003FFF00
FFC0000000FFFE00
FFC0000007FFFC00
FFFFFFFFFFFFFC00
FFFFFFFFFFFFF800
FFFFFFFFFFFFF000
FFFFFFFFFFFFE000
FFFFFFFFFFFF8000
FFFFFFFFFFFF0000
FFFFFFFFFFFC0000
FFFFFFFFFFF00000
FFFFFFFFFFC00000
FFFFFFFFFC000000
ENDCHAR
ENDFONT
